<?xml version="1.0" encoding="utf-8" standalone="no"?>
<!DOCTYPE svg PUBLIC "-//W3C//DTD SVG 1.1//EN"
  "http://www.w3.org/Graphics/SVG/1.1/DTD/svg11.dtd">
<svg xmlns:xlink="http://www.w3.org/1999/xlink" width="720pt" height="360pt" viewBox="0 0 720 360" xmlns="http://www.w3.org/2000/svg" version="1.1">
 <metadata>
  <rdf:RDF xmlns:dc="http://purl.org/dc/elements/1.1/" xmlns:cc="http://creativecommons.org/ns#" xmlns:rdf="http://www.w3.org/1999/02/22-rdf-syntax-ns#">
   <cc:Work>
    <dc:type rdf:resource="http://purl.org/dc/dcmitype/StillImage"/>
    <dc:date>2024-04-07T19:07:44.898308</dc:date>
    <dc:format>image/svg+xml</dc:format>
    <dc:creator>
     <cc:Agent>
      <dc:title>Matplotlib v3.8.3, https://matplotlib.org/</dc:title>
     </cc:Agent>
    </dc:creator>
   </cc:Work>
  </rdf:RDF>
 </metadata>
 <defs>
  <style type="text/css">*{stroke-linejoin: round; stroke-linecap: butt}</style>
 </defs>
 <g id="figure_1">
  <g id="patch_1">
   <path d="M 0 360 
L 720 360 
L 720 0 
L 0 0 
z
" style="fill: #ffffff"/>
  </g>
  <g id="axes_1">
   <g id="patch_2">
    <path d="M 90 320.4 
L 648 320.4 
L 648 43.2 
L 90 43.2 
z
" style="fill: #ffffff"/>
   </g>
   <g id="PathCollection_1">
    <defs>
     <path id="C0_0_9d47dd328d" d="M 0 3 
C 0.795609 3 1.55874 2.683901 2.12132 2.12132 
C 2.683901 1.55874 3 0.795609 3 -0 
C 3 -0.795609 2.683901 -1.55874 2.12132 -2.12132 
C 1.55874 -2.683901 0.795609 -3 0 -3 
C -0.795609 -3 -1.55874 -2.683901 -2.12132 -2.12132 
C -2.683901 -1.55874 -3 -0.795609 -3 0 
C -3 0.795609 -2.683901 1.55874 -2.12132 2.12132 
C -1.55874 2.683901 -0.795609 3 0 3 
z
"/>
    </defs>
    <g clip-path="url(#p5a76ac00aa)">
     <use xlink:href="#C0_0_9d47dd328d" x="268.288886" y="267.963517" style="fill: #440154; stroke: #440154"/>
    </g>
    <g clip-path="url(#p5a76ac00aa)">
     <use xlink:href="#C0_0_9d47dd328d" x="174.810176" y="225.536712" style="fill: #440154; stroke: #440154"/>
    </g>
    <g clip-path="url(#p5a76ac00aa)">
     <use xlink:href="#C0_0_9d47dd328d" x="195.676571" y="196.251977" style="fill: #440154; stroke: #440154"/>
    </g>
    <g clip-path="url(#p5a76ac00aa)">
     <use xlink:href="#C0_0_9d47dd328d" x="210.13785" y="207.207762" style="fill: #fde725; stroke: #fde725"/>
    </g>
    <g clip-path="url(#p5a76ac00aa)">
     <use xlink:href="#C0_0_9d47dd328d" x="332.715656" y="245.413626" style="fill: #440154; stroke: #440154"/>
    </g>
    <g clip-path="url(#p5a76ac00aa)">
     <use xlink:href="#C0_0_9d47dd328d" x="252.835169" y="130.238847" style="fill: #440154; stroke: #440154"/>
    </g>
    <g clip-path="url(#p5a76ac00aa)">
     <use xlink:href="#C0_0_9d47dd328d" x="292.775485" y="187.826281" style="fill: #440154; stroke: #440154"/>
    </g>
    <g clip-path="url(#p5a76ac00aa)">
     <use xlink:href="#C0_0_9d47dd328d" x="314.964469" y="219.819251" style="fill: #440154; stroke: #440154"/>
    </g>
    <g clip-path="url(#p5a76ac00aa)">
     <use xlink:href="#C0_0_9d47dd328d" x="222.791517" y="216.794058" style="fill: #440154; stroke: #440154"/>
    </g>
    <g clip-path="url(#p5a76ac00aa)">
     <use xlink:href="#C0_0_9d47dd328d" x="266.148559" y="149.434651" style="fill: #2ab07f; stroke: #2ab07f"/>
    </g>
    <g clip-path="url(#p5a76ac00aa)">
     <use xlink:href="#C0_0_9d47dd328d" x="216.818172" y="182.206845" style="fill: #fde725; stroke: #fde725"/>
    </g>
    <g clip-path="url(#p5a76ac00aa)">
     <use xlink:href="#C0_0_9d47dd328d" x="357.678378" y="281.405786" style="fill: #433e85; stroke: #433e85"/>
    </g>
    <g clip-path="url(#p5a76ac00aa)">
     <use xlink:href="#C0_0_9d47dd328d" x="302.760516" y="202.223101" style="fill: #440154; stroke: #440154"/>
    </g>
    <g clip-path="url(#p5a76ac00aa)">
     <use xlink:href="#C0_0_9d47dd328d" x="239.427367" y="249.438496" style="fill: #433e85; stroke: #433e85"/>
    </g>
    <g clip-path="url(#p5a76ac00aa)">
     <use xlink:href="#C0_0_9d47dd328d" x="311.209369" y="214.405049" style="fill: #c2df23; stroke: #c2df23"/>
    </g>
    <g clip-path="url(#p5a76ac00aa)">
     <use xlink:href="#C0_0_9d47dd328d" x="210.13785" y="207.20774" style="fill: #52c569; stroke: #52c569"/>
    </g>
    <g clip-path="url(#p5a76ac00aa)">
     <use xlink:href="#C0_0_9d47dd328d" x="219.472928" y="197.578984" style="fill: #440154; stroke: #440154"/>
    </g>
    <g clip-path="url(#p5a76ac00aa)">
     <use xlink:href="#C0_0_9d47dd328d" x="622.636364" y="143.939338" style="fill: #52c569; stroke: #52c569"/>
    </g>
    <g clip-path="url(#p5a76ac00aa)">
     <use xlink:href="#C0_0_9d47dd328d" x="332.715656" y="245.413626" style="fill: #440154; stroke: #440154"/>
    </g>
    <g clip-path="url(#p5a76ac00aa)">
     <use xlink:href="#C0_0_9d47dd328d" x="212.785979" y="232.338528" style="fill: #440154; stroke: #440154"/>
    </g>
    <g clip-path="url(#p5a76ac00aa)">
     <use xlink:href="#C0_0_9d47dd328d" x="214.64602" y="169.629669" style="fill: #2ab07f; stroke: #2ab07f"/>
    </g>
    <g clip-path="url(#p5a76ac00aa)">
     <use xlink:href="#C0_0_9d47dd328d" x="252.835169" y="130.238825" style="fill: #433e85; stroke: #433e85"/>
    </g>
    <g clip-path="url(#p5a76ac00aa)">
     <use xlink:href="#C0_0_9d47dd328d" x="252.835169" y="130.238847" style="fill: #440154; stroke: #440154"/>
    </g>
    <g clip-path="url(#p5a76ac00aa)">
     <use xlink:href="#C0_0_9d47dd328d" x="204.15072" y="150.390413" style="fill: #433e85; stroke: #433e85"/>
    </g>
    <g clip-path="url(#p5a76ac00aa)">
     <use xlink:href="#C0_0_9d47dd328d" x="302.760516" y="202.223101" style="fill: #440154; stroke: #440154"/>
    </g>
    <g clip-path="url(#p5a76ac00aa)">
     <use xlink:href="#C0_0_9d47dd328d" x="227.058192" y="241.499226" style="fill: #440154; stroke: #440154"/>
    </g>
    <g clip-path="url(#p5a76ac00aa)">
     <use xlink:href="#C0_0_9d47dd328d" x="250.250448" y="256.385401" style="fill: #440154; stroke: #440154"/>
    </g>
    <g clip-path="url(#p5a76ac00aa)">
     <use xlink:href="#C0_0_9d47dd328d" x="210.13785" y="207.20774" style="fill: #fde725; stroke: #fde725"/>
    </g>
    <g clip-path="url(#p5a76ac00aa)">
     <use xlink:href="#C0_0_9d47dd328d" x="252.835169" y="130.238847" style="fill: #2ab07f; stroke: #2ab07f"/>
    </g>
    <g clip-path="url(#p5a76ac00aa)">
     <use xlink:href="#C0_0_9d47dd328d" x="280.793342" y="170.550062" style="fill: #440154; stroke: #440154"/>
    </g>
    <g clip-path="url(#p5a76ac00aa)">
     <use xlink:href="#C0_0_9d47dd328d" x="280.793342" y="170.550062" style="fill: #fde725; stroke: #fde725"/>
    </g>
    <g clip-path="url(#p5a76ac00aa)">
     <use xlink:href="#C0_0_9d47dd328d" x="236.859091" y="107.203874" style="fill: #440154; stroke: #440154"/>
    </g>
    <g clip-path="url(#p5a76ac00aa)">
     <use xlink:href="#C0_0_9d47dd328d" x="332.715656" y="245.413626" style="fill: #440154; stroke: #440154"/>
    </g>
    <g clip-path="url(#p5a76ac00aa)">
     <use xlink:href="#C0_0_9d47dd328d" x="252.835169" y="130.238825" style="fill: #440154; stroke: #440154"/>
    </g>
    <g clip-path="url(#p5a76ac00aa)">
     <use xlink:href="#C0_0_9d47dd328d" x="292.775437" y="187.826259" style="fill: #440154; stroke: #440154"/>
    </g>
    <g clip-path="url(#p5a76ac00aa)">
     <use xlink:href="#C0_0_9d47dd328d" x="252.835169" y="130.238847" style="fill: #440154; stroke: #440154"/>
    </g>
    <g clip-path="url(#p5a76ac00aa)">
     <use xlink:href="#C0_0_9d47dd328d" x="250.250448" y="256.385401" style="fill: #433e85; stroke: #433e85"/>
    </g>
    <g clip-path="url(#p5a76ac00aa)">
     <use xlink:href="#C0_0_9d47dd328d" x="302.760564" y="202.223101" style="fill: #440154; stroke: #440154"/>
    </g>
    <g clip-path="url(#p5a76ac00aa)">
     <use xlink:href="#C0_0_9d47dd328d" x="332.715656" y="245.413626" style="fill: #440154; stroke: #440154"/>
    </g>
    <g clip-path="url(#p5a76ac00aa)">
     <use xlink:href="#C0_0_9d47dd328d" x="368.661844" y="297.242339" style="fill: #1e9b8a; stroke: #1e9b8a"/>
    </g>
    <g clip-path="url(#p5a76ac00aa)">
     <use xlink:href="#C0_0_9d47dd328d" x="408.743729" y="147.236539" style="fill: #440154; stroke: #440154"/>
    </g>
    <g clip-path="url(#p5a76ac00aa)">
     <use xlink:href="#C0_0_9d47dd328d" x="153.613534" y="236.533967" style="fill: #86d549; stroke: #86d549"/>
    </g>
    <g clip-path="url(#p5a76ac00aa)">
     <use xlink:href="#C0_0_9d47dd328d" x="302.760516" y="202.223101" style="fill: #86d549; stroke: #86d549"/>
    </g>
    <g clip-path="url(#p5a76ac00aa)">
     <use xlink:href="#C0_0_9d47dd328d" x="280.793293" y="170.550062" style="fill: #52c569; stroke: #52c569"/>
    </g>
    <g clip-path="url(#p5a76ac00aa)">
     <use xlink:href="#C0_0_9d47dd328d" x="314.964469" y="219.819251" style="fill: #440154; stroke: #440154"/>
    </g>
    <g clip-path="url(#p5a76ac00aa)">
     <use xlink:href="#C0_0_9d47dd328d" x="314.964469" y="219.819251" style="fill: #440154; stroke: #440154"/>
    </g>
    <g clip-path="url(#p5a76ac00aa)">
     <use xlink:href="#C0_0_9d47dd328d" x="277.41381" y="165.6773" style="fill: #433e85; stroke: #433e85"/>
    </g>
    <g clip-path="url(#p5a76ac00aa)">
     <use xlink:href="#C0_0_9d47dd328d" x="210.13785" y="207.20774" style="fill: #440154; stroke: #440154"/>
    </g>
    <g clip-path="url(#p5a76ac00aa)">
     <use xlink:href="#C0_0_9d47dd328d" x="277.41381" y="165.6773" style="fill: #440154; stroke: #440154"/>
    </g>
    <g clip-path="url(#p5a76ac00aa)">
     <use xlink:href="#C0_0_9d47dd328d" x="292.775485" y="187.826281" style="fill: #440154; stroke: #440154"/>
    </g>
    <g clip-path="url(#p5a76ac00aa)">
     <use xlink:href="#C0_0_9d47dd328d" x="332.715656" y="245.413626" style="fill: #440154; stroke: #440154"/>
    </g>
    <g clip-path="url(#p5a76ac00aa)">
     <use xlink:href="#C0_0_9d47dd328d" x="368.661844" y="297.242339" style="fill: #86d549; stroke: #86d549"/>
    </g>
    <g clip-path="url(#p5a76ac00aa)">
     <use xlink:href="#C0_0_9d47dd328d" x="280.793245" y="170.550084" style="fill: #440154; stroke: #440154"/>
    </g>
    <g clip-path="url(#p5a76ac00aa)">
     <use xlink:href="#C0_0_9d47dd328d" x="252.835169" y="130.238847" style="fill: #440154; stroke: #440154"/>
    </g>
    <g clip-path="url(#p5a76ac00aa)">
     <use xlink:href="#C0_0_9d47dd328d" x="243.618154" y="116.949485" style="fill: #2ab07f; stroke: #2ab07f"/>
    </g>
    <g clip-path="url(#p5a76ac00aa)">
     <use xlink:href="#C0_0_9d47dd328d" x="302.760516" y="202.223101" style="fill: #440154; stroke: #440154"/>
    </g>
    <g clip-path="url(#p5a76ac00aa)">
     <use xlink:href="#C0_0_9d47dd328d" x="280.793342" y="170.550062" style="fill: #440154; stroke: #440154"/>
    </g>
    <g clip-path="url(#p5a76ac00aa)">
     <use xlink:href="#C0_0_9d47dd328d" x="332.715656" y="245.413626" style="fill: #440154; stroke: #440154"/>
    </g>
    <g clip-path="url(#p5a76ac00aa)">
     <use xlink:href="#C0_0_9d47dd328d" x="115.363636" y="191.773695" style="fill: #440154; stroke: #440154"/>
    </g>
    <g clip-path="url(#p5a76ac00aa)">
     <use xlink:href="#C0_0_9d47dd328d" x="292.775437" y="187.826259" style="fill: #440154; stroke: #440154"/>
    </g>
    <g clip-path="url(#p5a76ac00aa)">
     <use xlink:href="#C0_0_9d47dd328d" x="222.791517" y="216.794058" style="fill: #440154; stroke: #440154"/>
    </g>
    <g clip-path="url(#p5a76ac00aa)">
     <use xlink:href="#C0_0_9d47dd328d" x="210.13785" y="207.20774" style="fill: #433e85; stroke: #433e85"/>
    </g>
    <g clip-path="url(#p5a76ac00aa)">
     <use xlink:href="#C0_0_9d47dd328d" x="339.372375" y="255.01155" style="fill: #86d549; stroke: #86d549"/>
    </g>
    <g clip-path="url(#p5a76ac00aa)">
     <use xlink:href="#C0_0_9d47dd328d" x="255.688035" y="134.352206" style="fill: #52c569; stroke: #52c569"/>
    </g>
    <g clip-path="url(#p5a76ac00aa)">
     <use xlink:href="#C0_0_9d47dd328d" x="280.793293" y="170.550062" style="fill: #86d549; stroke: #86d549"/>
    </g>
    <g clip-path="url(#p5a76ac00aa)">
     <use xlink:href="#C0_0_9d47dd328d" x="280.793342" y="170.550062" style="fill: #440154; stroke: #440154"/>
    </g>
    <g clip-path="url(#p5a76ac00aa)">
     <use xlink:href="#C0_0_9d47dd328d" x="292.775437" y="187.826259" style="fill: #440154; stroke: #440154"/>
    </g>
    <g clip-path="url(#p5a76ac00aa)">
     <use xlink:href="#C0_0_9d47dd328d" x="233.956455" y="225.252546" style="fill: #440154; stroke: #440154"/>
    </g>
    <g clip-path="url(#p5a76ac00aa)">
     <use xlink:href="#C0_0_9d47dd328d" x="324.727641" y="233.896162" style="fill: #1e9b8a; stroke: #1e9b8a"/>
    </g>
    <g clip-path="url(#p5a76ac00aa)">
     <use xlink:href="#C0_0_9d47dd328d" x="163.574478" y="241.30529" style="fill: #440154; stroke: #440154"/>
    </g>
    <g clip-path="url(#p5a76ac00aa)">
     <use xlink:href="#C0_0_9d47dd328d" x="332.715656" y="245.413626" style="fill: #440154; stroke: #440154"/>
    </g>
    <g clip-path="url(#p5a76ac00aa)">
     <use xlink:href="#C0_0_9d47dd328d" x="196.135185" y="221.651073" style="fill: #440154; stroke: #440154"/>
    </g>
    <g clip-path="url(#p5a76ac00aa)">
     <use xlink:href="#C0_0_9d47dd328d" x="243.618154" y="116.949485" style="fill: #86d549; stroke: #86d549"/>
    </g>
    <g clip-path="url(#p5a76ac00aa)">
     <use xlink:href="#C0_0_9d47dd328d" x="195.065021" y="162.386596" style="fill: #440154; stroke: #440154"/>
    </g>
    <g clip-path="url(#p5a76ac00aa)">
     <use xlink:href="#C0_0_9d47dd328d" x="277.41381" y="165.6773" style="fill: #433e85; stroke: #433e85"/>
    </g>
    <g clip-path="url(#p5a76ac00aa)">
     <use xlink:href="#C0_0_9d47dd328d" x="266.148559" y="149.434651" style="fill: #c2df23; stroke: #c2df23"/>
    </g>
    <g clip-path="url(#p5a76ac00aa)">
     <use xlink:href="#C0_0_9d47dd328d" x="302.760564" y="202.223101" style="fill: #440154; stroke: #440154"/>
    </g>
    <g clip-path="url(#p5a76ac00aa)">
     <use xlink:href="#C0_0_9d47dd328d" x="208.112733" y="187.990133" style="fill: #440154; stroke: #440154"/>
    </g>
    <g clip-path="url(#p5a76ac00aa)">
     <use xlink:href="#C0_0_9d47dd328d" x="375.984235" y="307.8" style="fill: #440154; stroke: #440154"/>
    </g>
    <g clip-path="url(#p5a76ac00aa)">
     <use xlink:href="#C0_0_9d47dd328d" x="277.41381" y="165.6773" style="fill: #440154; stroke: #440154"/>
    </g>
    <g clip-path="url(#p5a76ac00aa)">
     <use xlink:href="#C0_0_9d47dd328d" x="277.41381" y="165.6773" style="fill: #440154; stroke: #440154"/>
    </g>
    <g clip-path="url(#p5a76ac00aa)">
     <use xlink:href="#C0_0_9d47dd328d" x="311.209369" y="214.405049" style="fill: #440154; stroke: #440154"/>
    </g>
    <g clip-path="url(#p5a76ac00aa)">
     <use xlink:href="#C0_0_9d47dd328d" x="292.775485" y="187.826281" style="fill: #440154; stroke: #440154"/>
    </g>
    <g clip-path="url(#p5a76ac00aa)">
     <use xlink:href="#C0_0_9d47dd328d" x="250.250448" y="256.385401" style="fill: #440154; stroke: #440154"/>
    </g>
    <g clip-path="url(#p5a76ac00aa)">
     <use xlink:href="#C0_0_9d47dd328d" x="174.810176" y="225.53669" style="fill: #86d549; stroke: #86d549"/>
    </g>
    <g clip-path="url(#p5a76ac00aa)">
     <use xlink:href="#C0_0_9d47dd328d" x="178.99042" y="183.610735" style="fill: #440154; stroke: #440154"/>
    </g>
    <g clip-path="url(#p5a76ac00aa)">
     <use xlink:href="#C0_0_9d47dd328d" x="227.058192" y="241.499226" style="fill: #440154; stroke: #440154"/>
    </g>
    <g clip-path="url(#p5a76ac00aa)">
     <use xlink:href="#C0_0_9d47dd328d" x="292.775437" y="187.826259" style="fill: #52c569; stroke: #52c569"/>
    </g>
    <g clip-path="url(#p5a76ac00aa)">
     <use xlink:href="#C0_0_9d47dd328d" x="227.058144" y="241.499226" style="fill: #440154; stroke: #440154"/>
    </g>
    <g clip-path="url(#p5a76ac00aa)">
     <use xlink:href="#C0_0_9d47dd328d" x="174.810176" y="225.536712" style="fill: #440154; stroke: #440154"/>
    </g>
    <g clip-path="url(#p5a76ac00aa)">
     <use xlink:href="#C0_0_9d47dd328d" x="292.775437" y="187.826259" style="fill: #440154; stroke: #440154"/>
    </g>
    <g clip-path="url(#p5a76ac00aa)">
     <use xlink:href="#C0_0_9d47dd328d" x="292.775485" y="187.826281" style="fill: #fde725; stroke: #fde725"/>
    </g>
    <g clip-path="url(#p5a76ac00aa)">
     <use xlink:href="#C0_0_9d47dd328d" x="266.148608" y="149.434695" style="fill: #440154; stroke: #440154"/>
    </g>
    <g clip-path="url(#p5a76ac00aa)">
     <use xlink:href="#C0_0_9d47dd328d" x="277.41381" y="165.6773" style="fill: #440154; stroke: #440154"/>
    </g>
    <g clip-path="url(#p5a76ac00aa)">
     <use xlink:href="#C0_0_9d47dd328d" x="252.835169" y="130.238847" style="fill: #440154; stroke: #440154"/>
    </g>
    <g clip-path="url(#p5a76ac00aa)">
     <use xlink:href="#C0_0_9d47dd328d" x="280.793293" y="170.550084" style="fill: #440154; stroke: #440154"/>
    </g>
    <g clip-path="url(#p5a76ac00aa)">
     <use xlink:href="#C0_0_9d47dd328d" x="302.760564" y="202.223101" style="fill: #440154; stroke: #440154"/>
    </g>
    <g clip-path="url(#p5a76ac00aa)">
     <use xlink:href="#C0_0_9d47dd328d" x="292.775485" y="187.826281" style="fill: #c2df23; stroke: #c2df23"/>
    </g>
    <g clip-path="url(#p5a76ac00aa)">
     <use xlink:href="#C0_0_9d47dd328d" x="332.715656" y="245.413626" style="fill: #440154; stroke: #440154"/>
    </g>
    <g clip-path="url(#p5a76ac00aa)">
     <use xlink:href="#C0_0_9d47dd328d" x="211.367478" y="218.875601" style="fill: #fde725; stroke: #fde725"/>
    </g>
    <g clip-path="url(#p5a76ac00aa)">
     <use xlink:href="#C0_0_9d47dd328d" x="292.775485" y="187.826281" style="fill: #433e85; stroke: #433e85"/>
    </g>
    <g clip-path="url(#p5a76ac00aa)">
     <use xlink:href="#C0_0_9d47dd328d" x="239.427367" y="249.438496" style="fill: #440154; stroke: #440154"/>
    </g>
    <g clip-path="url(#p5a76ac00aa)">
     <use xlink:href="#C0_0_9d47dd328d" x="292.775485" y="187.826281" style="fill: #440154; stroke: #440154"/>
    </g>
    <g clip-path="url(#p5a76ac00aa)">
     <use xlink:href="#C0_0_9d47dd328d" x="311.209369" y="214.405049" style="fill: #440154; stroke: #440154"/>
    </g>
    <g clip-path="url(#p5a76ac00aa)">
     <use xlink:href="#C0_0_9d47dd328d" x="302.760564" y="202.223101" style="fill: #440154; stroke: #440154"/>
    </g>
    <g clip-path="url(#p5a76ac00aa)">
     <use xlink:href="#C0_0_9d47dd328d" x="292.775485" y="187.826281" style="fill: #fde725; stroke: #fde725"/>
    </g>
    <g clip-path="url(#p5a76ac00aa)">
     <use xlink:href="#C0_0_9d47dd328d" x="227.058144" y="241.499226" style="fill: #440154; stroke: #440154"/>
    </g>
    <g clip-path="url(#p5a76ac00aa)">
     <use xlink:href="#C0_0_9d47dd328d" x="345.005025" y="263.132886" style="fill: #86d549; stroke: #86d549"/>
    </g>
    <g clip-path="url(#p5a76ac00aa)">
     <use xlink:href="#C0_0_9d47dd328d" x="622.636364" y="143.939338" style="fill: #440154; stroke: #440154"/>
    </g>
    <g clip-path="url(#p5a76ac00aa)">
     <use xlink:href="#C0_0_9d47dd328d" x="229.637399" y="206.158402" style="fill: #440154; stroke: #440154"/>
    </g>
    <g clip-path="url(#p5a76ac00aa)">
     <use xlink:href="#C0_0_9d47dd328d" x="252.835169" y="130.238847" style="fill: #440154; stroke: #440154"/>
    </g>
    <g clip-path="url(#p5a76ac00aa)">
     <use xlink:href="#C0_0_9d47dd328d" x="580.62832" y="187.269138" style="fill: #440154; stroke: #440154"/>
    </g>
    <g clip-path="url(#p5a76ac00aa)">
     <use xlink:href="#C0_0_9d47dd328d" x="172.797441" y="245.723184" style="fill: #440154; stroke: #440154"/>
    </g>
    <g clip-path="url(#p5a76ac00aa)">
     <use xlink:href="#C0_0_9d47dd328d" x="178.990517" y="183.610757" style="fill: #440154; stroke: #440154"/>
    </g>
    <g clip-path="url(#p5a76ac00aa)">
     <use xlink:href="#C0_0_9d47dd328d" x="212.785979" y="232.338528" style="fill: #433e85; stroke: #433e85"/>
    </g>
    <g clip-path="url(#p5a76ac00aa)">
     <use xlink:href="#C0_0_9d47dd328d" x="324.727641" y="233.896162" style="fill: #86d549; stroke: #86d549"/>
    </g>
    <g clip-path="url(#p5a76ac00aa)">
     <use xlink:href="#C0_0_9d47dd328d" x="239.427367" y="249.438496" style="fill: #1e9b8a; stroke: #1e9b8a"/>
    </g>
    <g clip-path="url(#p5a76ac00aa)">
     <use xlink:href="#C0_0_9d47dd328d" x="280.793342" y="170.550062" style="fill: #52c569; stroke: #52c569"/>
    </g>
    <g clip-path="url(#p5a76ac00aa)">
     <use xlink:href="#C0_0_9d47dd328d" x="311.209369" y="214.405049" style="fill: #440154; stroke: #440154"/>
    </g>
    <g clip-path="url(#p5a76ac00aa)">
     <use xlink:href="#C0_0_9d47dd328d" x="363.78033" y="290.20385" style="fill: #440154; stroke: #440154"/>
    </g>
    <g clip-path="url(#p5a76ac00aa)">
     <use xlink:href="#C0_0_9d47dd328d" x="222.791469" y="216.79408" style="fill: #433e85; stroke: #433e85"/>
    </g>
    <g clip-path="url(#p5a76ac00aa)">
     <use xlink:href="#C0_0_9d47dd328d" x="196.777302" y="257.209728" style="fill: #2ab07f; stroke: #2ab07f"/>
    </g>
    <g clip-path="url(#p5a76ac00aa)">
     <use xlink:href="#C0_0_9d47dd328d" x="292.775485" y="187.826281" style="fill: #fde725; stroke: #fde725"/>
    </g>
    <g clip-path="url(#p5a76ac00aa)">
     <use xlink:href="#C0_0_9d47dd328d" x="174.810176" y="225.536712" style="fill: #440154; stroke: #440154"/>
    </g>
    <g clip-path="url(#p5a76ac00aa)">
     <use xlink:href="#C0_0_9d47dd328d" x="287.069608" y="179.599543" style="fill: #440154; stroke: #440154"/>
    </g>
    <g clip-path="url(#p5a76ac00aa)">
     <use xlink:href="#C0_0_9d47dd328d" x="292.775485" y="187.826281" style="fill: #433e85; stroke: #433e85"/>
    </g>
    <g clip-path="url(#p5a76ac00aa)">
     <use xlink:href="#C0_0_9d47dd328d" x="292.775485" y="187.826281" style="fill: #25858e; stroke: #25858e"/>
    </g>
    <g clip-path="url(#p5a76ac00aa)">
     <use xlink:href="#C0_0_9d47dd328d" x="227.058192" y="241.499226" style="fill: #440154; stroke: #440154"/>
    </g>
    <g clip-path="url(#p5a76ac00aa)">
     <use xlink:href="#C0_0_9d47dd328d" x="292.775485" y="187.826281" style="fill: #52c569; stroke: #52c569"/>
    </g>
    <g clip-path="url(#p5a76ac00aa)">
     <use xlink:href="#C0_0_9d47dd328d" x="302.760516" y="202.223101" style="fill: #440154; stroke: #440154"/>
    </g>
    <g clip-path="url(#p5a76ac00aa)">
     <use xlink:href="#C0_0_9d47dd328d" x="212.786028" y="232.33855" style="fill: #440154; stroke: #440154"/>
    </g>
    <g clip-path="url(#p5a76ac00aa)">
     <use xlink:href="#C0_0_9d47dd328d" x="280.793342" y="170.550062" style="fill: #433e85; stroke: #433e85"/>
    </g>
    <g clip-path="url(#p5a76ac00aa)">
     <use xlink:href="#C0_0_9d47dd328d" x="208.112733" y="187.990111" style="fill: #52c569; stroke: #52c569"/>
    </g>
    <g clip-path="url(#p5a76ac00aa)">
     <use xlink:href="#C0_0_9d47dd328d" x="280.793342" y="170.550062" style="fill: #86d549; stroke: #86d549"/>
    </g>
    <g clip-path="url(#p5a76ac00aa)">
     <use xlink:href="#C0_0_9d47dd328d" x="280.793293" y="170.550062" style="fill: #440154; stroke: #440154"/>
    </g>
    <g clip-path="url(#p5a76ac00aa)">
     <use xlink:href="#C0_0_9d47dd328d" x="160.267448" y="106.13804" style="fill: #86d549; stroke: #86d549"/>
    </g>
    <g clip-path="url(#p5a76ac00aa)">
     <use xlink:href="#C0_0_9d47dd328d" x="280.793293" y="170.550062" style="fill: #fde725; stroke: #fde725"/>
    </g>
    <g clip-path="url(#p5a76ac00aa)">
     <use xlink:href="#C0_0_9d47dd328d" x="280.793342" y="170.550062" style="fill: #25858e; stroke: #25858e"/>
    </g>
    <g clip-path="url(#p5a76ac00aa)">
     <use xlink:href="#C0_0_9d47dd328d" x="292.775485" y="187.826281" style="fill: #433e85; stroke: #433e85"/>
    </g>
    <g clip-path="url(#p5a76ac00aa)">
     <use xlink:href="#C0_0_9d47dd328d" x="292.775485" y="187.826281" style="fill: #440154; stroke: #440154"/>
    </g>
    <g clip-path="url(#p5a76ac00aa)">
     <use xlink:href="#C0_0_9d47dd328d" x="222.791517" y="216.79408" style="fill: #440154; stroke: #440154"/>
    </g>
    <g clip-path="url(#p5a76ac00aa)">
     <use xlink:href="#C0_0_9d47dd328d" x="266.148559" y="149.434651" style="fill: #440154; stroke: #440154"/>
    </g>
    <g clip-path="url(#p5a76ac00aa)">
     <use xlink:href="#C0_0_9d47dd328d" x="302.760516" y="202.223101" style="fill: #440154; stroke: #440154"/>
    </g>
    <g clip-path="url(#p5a76ac00aa)">
     <use xlink:href="#C0_0_9d47dd328d" x="314.964469" y="219.819251" style="fill: #440154; stroke: #440154"/>
    </g>
    <g clip-path="url(#p5a76ac00aa)">
     <use xlink:href="#C0_0_9d47dd328d" x="268.716932" y="291.669306" style="fill: #86d549; stroke: #86d549"/>
    </g>
    <g clip-path="url(#p5a76ac00aa)">
     <use xlink:href="#C0_0_9d47dd328d" x="252.835169" y="130.238847" style="fill: #440154; stroke: #440154"/>
    </g>
    <g clip-path="url(#p5a76ac00aa)">
     <use xlink:href="#C0_0_9d47dd328d" x="266.148608" y="149.434695" style="fill: #440154; stroke: #440154"/>
    </g>
    <g clip-path="url(#p5a76ac00aa)">
     <use xlink:href="#C0_0_9d47dd328d" x="302.760516" y="202.223101" style="fill: #440154; stroke: #440154"/>
    </g>
    <g clip-path="url(#p5a76ac00aa)">
     <use xlink:href="#C0_0_9d47dd328d" x="363.78033" y="290.20385" style="fill: #440154; stroke: #440154"/>
    </g>
    <g clip-path="url(#p5a76ac00aa)">
     <use xlink:href="#C0_0_9d47dd328d" x="314.964469" y="219.819251" style="fill: #440154; stroke: #440154"/>
    </g>
    <g clip-path="url(#p5a76ac00aa)">
     <use xlink:href="#C0_0_9d47dd328d" x="309.221446" y="211.538732" style="fill: #482173; stroke: #482173"/>
    </g>
    <g clip-path="url(#p5a76ac00aa)">
     <use xlink:href="#C0_0_9d47dd328d" x="252.835169" y="130.238847" style="fill: #433e85; stroke: #433e85"/>
    </g>
    <g clip-path="url(#p5a76ac00aa)">
     <use xlink:href="#C0_0_9d47dd328d" x="407.092584" y="55.8" style="fill: #25858e; stroke: #25858e"/>
    </g>
    <g clip-path="url(#p5a76ac00aa)">
     <use xlink:href="#C0_0_9d47dd328d" x="580.62832" y="187.269138" style="fill: #c2df23; stroke: #c2df23"/>
    </g>
    <g clip-path="url(#p5a76ac00aa)">
     <use xlink:href="#C0_0_9d47dd328d" x="479.399173" y="110.578795" style="fill: #25858e; stroke: #25858e"/>
    </g>
    <g clip-path="url(#p5a76ac00aa)">
     <use xlink:href="#C0_0_9d47dd328d" x="280.793342" y="170.550062" style="fill: #440154; stroke: #440154"/>
    </g>
    <g clip-path="url(#p5a76ac00aa)">
     <use xlink:href="#C0_0_9d47dd328d" x="280.793342" y="170.550062" style="fill: #440154; stroke: #440154"/>
    </g>
    <g clip-path="url(#p5a76ac00aa)">
     <use xlink:href="#C0_0_9d47dd328d" x="324.727641" y="233.896162" style="fill: #440154; stroke: #440154"/>
    </g>
    <g clip-path="url(#p5a76ac00aa)">
     <use xlink:href="#C0_0_9d47dd328d" x="314.964469" y="219.819251" style="fill: #38588c; stroke: #38588c"/>
    </g>
    <g clip-path="url(#p5a76ac00aa)">
     <use xlink:href="#C0_0_9d47dd328d" x="363.78033" y="290.20385" style="fill: #440154; stroke: #440154"/>
    </g>
    <g clip-path="url(#p5a76ac00aa)">
     <use xlink:href="#C0_0_9d47dd328d" x="363.78033" y="290.20385" style="fill: #440154; stroke: #440154"/>
    </g>
    <g clip-path="url(#p5a76ac00aa)">
     <use xlink:href="#C0_0_9d47dd328d" x="349.832948" y="270.093941" style="fill: #440154; stroke: #440154"/>
    </g>
    <g clip-path="url(#p5a76ac00aa)">
     <use xlink:href="#C0_0_9d47dd328d" x="222.791517" y="216.794058" style="fill: #440154; stroke: #440154"/>
    </g>
    <g clip-path="url(#p5a76ac00aa)">
     <use xlink:href="#C0_0_9d47dd328d" x="185.418461" y="251.768725" style="fill: #440154; stroke: #440154"/>
    </g>
    <g clip-path="url(#p5a76ac00aa)">
     <use xlink:href="#C0_0_9d47dd328d" x="368.661844" y="297.242339" style="fill: #440154; stroke: #440154"/>
    </g>
    <g clip-path="url(#p5a76ac00aa)">
     <use xlink:href="#C0_0_9d47dd328d" x="287.069705" y="179.599476" style="fill: #2d708e; stroke: #2d708e"/>
    </g>
    <g clip-path="url(#p5a76ac00aa)">
     <use xlink:href="#C0_0_9d47dd328d" x="277.41381" y="165.6773" style="fill: #2ab07f; stroke: #2ab07f"/>
    </g>
    <g clip-path="url(#p5a76ac00aa)">
     <use xlink:href="#C0_0_9d47dd328d" x="266.148559" y="149.434651" style="fill: #52c569; stroke: #52c569"/>
    </g>
    <g clip-path="url(#p5a76ac00aa)">
     <use xlink:href="#C0_0_9d47dd328d" x="302.760516" y="202.223101" style="fill: #86d549; stroke: #86d549"/>
    </g>
    <g clip-path="url(#p5a76ac00aa)">
     <use xlink:href="#C0_0_9d47dd328d" x="324.727641" y="233.896162" style="fill: #440154; stroke: #440154"/>
    </g>
    <g clip-path="url(#p5a76ac00aa)">
     <use xlink:href="#C0_0_9d47dd328d" x="206.514018" y="172.81834" style="fill: #2ab07f; stroke: #2ab07f"/>
    </g>
    <g clip-path="url(#p5a76ac00aa)">
     <use xlink:href="#C0_0_9d47dd328d" x="314.964469" y="219.819251" style="fill: #38588c; stroke: #38588c"/>
    </g>
    <g clip-path="url(#p5a76ac00aa)">
     <use xlink:href="#C0_0_9d47dd328d" x="357.678378" y="281.405786" style="fill: #440154; stroke: #440154"/>
    </g>
    <g clip-path="url(#p5a76ac00aa)">
     <use xlink:href="#C0_0_9d47dd328d" x="252.835169" y="130.238847" style="fill: #482173; stroke: #482173"/>
    </g>
    <g clip-path="url(#p5a76ac00aa)">
     <use xlink:href="#C0_0_9d47dd328d" x="479.399173" y="110.578795" style="fill: #433e85; stroke: #433e85"/>
    </g>
    <g clip-path="url(#p5a76ac00aa)">
     <use xlink:href="#C0_0_9d47dd328d" x="227.058192" y="241.499226" style="fill: #25858e; stroke: #25858e"/>
    </g>
    <g clip-path="url(#p5a76ac00aa)">
     <use xlink:href="#C0_0_9d47dd328d" x="349.832948" y="270.093941" style="fill: #440154; stroke: #440154"/>
    </g>
    <g clip-path="url(#p5a76ac00aa)">
     <use xlink:href="#C0_0_9d47dd328d" x="174.810176" y="225.536712" style="fill: #2ab07f; stroke: #2ab07f"/>
    </g>
    <g clip-path="url(#p5a76ac00aa)">
     <use xlink:href="#C0_0_9d47dd328d" x="280.793293" y="170.550062" style="fill: #433e85; stroke: #433e85"/>
    </g>
    <g clip-path="url(#p5a76ac00aa)">
     <use xlink:href="#C0_0_9d47dd328d" x="246.581635" y="281.066321" style="fill: #440154; stroke: #440154"/>
    </g>
    <g clip-path="url(#p5a76ac00aa)">
     <use xlink:href="#C0_0_9d47dd328d" x="227.058192" y="241.499226" style="fill: #440154; stroke: #440154"/>
    </g>
    <g clip-path="url(#p5a76ac00aa)">
     <use xlink:href="#C0_0_9d47dd328d" x="216.397188" y="266.60777" style="fill: #c2df23; stroke: #c2df23"/>
    </g>
    <g clip-path="url(#p5a76ac00aa)">
     <use xlink:href="#C0_0_9d47dd328d" x="280.793342" y="170.550062" style="fill: #440154; stroke: #440154"/>
    </g>
    <g clip-path="url(#p5a76ac00aa)">
     <use xlink:href="#C0_0_9d47dd328d" x="357.678378" y="281.405786" style="fill: #440154; stroke: #440154"/>
    </g>
    <g clip-path="url(#p5a76ac00aa)">
     <use xlink:href="#C0_0_9d47dd328d" x="172.797441" y="245.723206" style="fill: #440154; stroke: #440154"/>
    </g>
    <g clip-path="url(#p5a76ac00aa)">
     <use xlink:href="#C0_0_9d47dd328d" x="314.964469" y="219.819251" style="fill: #440154; stroke: #440154"/>
    </g>
    <g clip-path="url(#p5a76ac00aa)">
     <use xlink:href="#C0_0_9d47dd328d" x="208.112733" y="187.990133" style="fill: #52c569; stroke: #52c569"/>
    </g>
    <g clip-path="url(#p5a76ac00aa)">
     <use xlink:href="#C0_0_9d47dd328d" x="302.760516" y="202.223123" style="fill: #440154; stroke: #440154"/>
    </g>
    <g clip-path="url(#p5a76ac00aa)">
     <use xlink:href="#C0_0_9d47dd328d" x="174.810176" y="225.536712" style="fill: #86d549; stroke: #86d549"/>
    </g>
    <g clip-path="url(#p5a76ac00aa)">
     <use xlink:href="#C0_0_9d47dd328d" x="212.785979" y="232.338528" style="fill: #440154; stroke: #440154"/>
    </g>
    <g clip-path="url(#p5a76ac00aa)">
     <use xlink:href="#C0_0_9d47dd328d" x="178.99042" y="183.610735" style="fill: #440154; stroke: #440154"/>
    </g>
    <g clip-path="url(#p5a76ac00aa)">
     <use xlink:href="#C0_0_9d47dd328d" x="277.709379" y="295.976732" style="fill: #440154; stroke: #440154"/>
    </g>
    <g clip-path="url(#p5a76ac00aa)">
     <use xlink:href="#C0_0_9d47dd328d" x="243.618154" y="116.949485" style="fill: #86d549; stroke: #86d549"/>
    </g>
    <g clip-path="url(#p5a76ac00aa)">
     <use xlink:href="#C0_0_9d47dd328d" x="302.760516" y="202.223101" style="fill: #2ab07f; stroke: #2ab07f"/>
    </g>
   </g>
   <g id="matplotlib.axis_1">
    <g id="xtick_1">
     <g id="line2d_1">
      <defs>
       <path id="m5ad46b4af4" d="M 0 0 
L 0 3.5 
" style="stroke: #000000; stroke-width: 0.8"/>
      </defs>
      <g>
       <use xlink:href="#m5ad46b4af4" x="129.948367" y="320.4" style="stroke: #000000; stroke-width: 0.8"/>
      </g>
     </g>
     <g id="text_1">
      <!-- −0.55 -->
      <g transform="translate(114.62571 334.998438) scale(0.1 -0.1)">
       <defs>
        <path id="DejaVuSans-2212" d="M 678 2272 
L 4684 2272 
L 4684 1741 
L 678 1741 
L 678 2272 
z
" transform="scale(0.015625)"/>
        <path id="DejaVuSans-30" d="M 2034 4250 
Q 1547 4250 1301 3770 
Q 1056 3291 1056 2328 
Q 1056 1369 1301 889 
Q 1547 409 2034 409 
Q 2525 409 2770 889 
Q 3016 1369 3016 2328 
Q 3016 3291 2770 3770 
Q 2525 4250 2034 4250 
z
M 2034 4750 
Q 2819 4750 3233 4129 
Q 3647 3509 3647 2328 
Q 3647 1150 3233 529 
Q 2819 -91 2034 -91 
Q 1250 -91 836 529 
Q 422 1150 422 2328 
Q 422 3509 836 4129 
Q 1250 4750 2034 4750 
z
" transform="scale(0.015625)"/>
        <path id="DejaVuSans-2e" d="M 684 794 
L 1344 794 
L 1344 0 
L 684 0 
L 684 794 
z
" transform="scale(0.015625)"/>
        <path id="DejaVuSans-35" d="M 691 4666 
L 3169 4666 
L 3169 4134 
L 1269 4134 
L 1269 2991 
Q 1406 3038 1543 3061 
Q 1681 3084 1819 3084 
Q 2600 3084 3056 2656 
Q 3513 2228 3513 1497 
Q 3513 744 3044 326 
Q 2575 -91 1722 -91 
Q 1428 -91 1123 -41 
Q 819 9 494 109 
L 494 744 
Q 775 591 1075 516 
Q 1375 441 1709 441 
Q 2250 441 2565 725 
Q 2881 1009 2881 1497 
Q 2881 1984 2565 2268 
Q 2250 2553 1709 2553 
Q 1456 2553 1204 2497 
Q 953 2441 691 2322 
L 691 4666 
z
" transform="scale(0.015625)"/>
       </defs>
       <use xlink:href="#DejaVuSans-2212"/>
       <use xlink:href="#DejaVuSans-30" x="83.789062"/>
       <use xlink:href="#DejaVuSans-2e" x="147.412109"/>
       <use xlink:href="#DejaVuSans-35" x="179.199219"/>
       <use xlink:href="#DejaVuSans-35" x="242.822266"/>
      </g>
     </g>
    </g>
    <g id="xtick_2">
     <g id="line2d_2">
      <g>
       <use xlink:href="#m5ad46b4af4" x="211.094351" y="320.4" style="stroke: #000000; stroke-width: 0.8"/>
      </g>
     </g>
     <g id="text_2">
      <!-- −0.50 -->
      <g transform="translate(195.771695 334.998438) scale(0.1 -0.1)">
       <use xlink:href="#DejaVuSans-2212"/>
       <use xlink:href="#DejaVuSans-30" x="83.789062"/>
       <use xlink:href="#DejaVuSans-2e" x="147.412109"/>
       <use xlink:href="#DejaVuSans-35" x="179.199219"/>
       <use xlink:href="#DejaVuSans-30" x="242.822266"/>
      </g>
     </g>
    </g>
    <g id="xtick_3">
     <g id="line2d_3">
      <g>
       <use xlink:href="#m5ad46b4af4" x="292.240336" y="320.4" style="stroke: #000000; stroke-width: 0.8"/>
      </g>
     </g>
     <g id="text_3">
      <!-- −0.45 -->
      <g transform="translate(276.917679 334.998438) scale(0.1 -0.1)">
       <defs>
        <path id="DejaVuSans-34" d="M 2419 4116 
L 825 1625 
L 2419 1625 
L 2419 4116 
z
M 2253 4666 
L 3047 4666 
L 3047 1625 
L 3713 1625 
L 3713 1100 
L 3047 1100 
L 3047 0 
L 2419 0 
L 2419 1100 
L 313 1100 
L 313 1709 
L 2253 4666 
z
" transform="scale(0.015625)"/>
       </defs>
       <use xlink:href="#DejaVuSans-2212"/>
       <use xlink:href="#DejaVuSans-30" x="83.789062"/>
       <use xlink:href="#DejaVuSans-2e" x="147.412109"/>
       <use xlink:href="#DejaVuSans-34" x="179.199219"/>
       <use xlink:href="#DejaVuSans-35" x="242.822266"/>
      </g>
     </g>
    </g>
    <g id="xtick_4">
     <g id="line2d_4">
      <g>
       <use xlink:href="#m5ad46b4af4" x="373.38632" y="320.4" style="stroke: #000000; stroke-width: 0.8"/>
      </g>
     </g>
     <g id="text_4">
      <!-- −0.40 -->
      <g transform="translate(358.063664 334.998438) scale(0.1 -0.1)">
       <use xlink:href="#DejaVuSans-2212"/>
       <use xlink:href="#DejaVuSans-30" x="83.789062"/>
       <use xlink:href="#DejaVuSans-2e" x="147.412109"/>
       <use xlink:href="#DejaVuSans-34" x="179.199219"/>
       <use xlink:href="#DejaVuSans-30" x="242.822266"/>
      </g>
     </g>
    </g>
    <g id="xtick_5">
     <g id="line2d_5">
      <g>
       <use xlink:href="#m5ad46b4af4" x="454.532304" y="320.4" style="stroke: #000000; stroke-width: 0.8"/>
      </g>
     </g>
     <g id="text_5">
      <!-- −0.35 -->
      <g transform="translate(439.209648 334.998438) scale(0.1 -0.1)">
       <defs>
        <path id="DejaVuSans-33" d="M 2597 2516 
Q 3050 2419 3304 2112 
Q 3559 1806 3559 1356 
Q 3559 666 3084 287 
Q 2609 -91 1734 -91 
Q 1441 -91 1130 -33 
Q 819 25 488 141 
L 488 750 
Q 750 597 1062 519 
Q 1375 441 1716 441 
Q 2309 441 2620 675 
Q 2931 909 2931 1356 
Q 2931 1769 2642 2001 
Q 2353 2234 1838 2234 
L 1294 2234 
L 1294 2753 
L 1863 2753 
Q 2328 2753 2575 2939 
Q 2822 3125 2822 3475 
Q 2822 3834 2567 4026 
Q 2313 4219 1838 4219 
Q 1578 4219 1281 4162 
Q 984 4106 628 3988 
L 628 4550 
Q 988 4650 1302 4700 
Q 1616 4750 1894 4750 
Q 2613 4750 3031 4423 
Q 3450 4097 3450 3541 
Q 3450 3153 3228 2886 
Q 3006 2619 2597 2516 
z
" transform="scale(0.015625)"/>
       </defs>
       <use xlink:href="#DejaVuSans-2212"/>
       <use xlink:href="#DejaVuSans-30" x="83.789062"/>
       <use xlink:href="#DejaVuSans-2e" x="147.412109"/>
       <use xlink:href="#DejaVuSans-33" x="179.199219"/>
       <use xlink:href="#DejaVuSans-35" x="242.822266"/>
      </g>
     </g>
    </g>
    <g id="xtick_6">
     <g id="line2d_6">
      <g>
       <use xlink:href="#m5ad46b4af4" x="535.678289" y="320.4" style="stroke: #000000; stroke-width: 0.8"/>
      </g>
     </g>
     <g id="text_6">
      <!-- −0.30 -->
      <g transform="translate(520.355633 334.998438) scale(0.1 -0.1)">
       <use xlink:href="#DejaVuSans-2212"/>
       <use xlink:href="#DejaVuSans-30" x="83.789062"/>
       <use xlink:href="#DejaVuSans-2e" x="147.412109"/>
       <use xlink:href="#DejaVuSans-33" x="179.199219"/>
       <use xlink:href="#DejaVuSans-30" x="242.822266"/>
      </g>
     </g>
    </g>
    <g id="xtick_7">
     <g id="line2d_7">
      <g>
       <use xlink:href="#m5ad46b4af4" x="616.824273" y="320.4" style="stroke: #000000; stroke-width: 0.8"/>
      </g>
     </g>
     <g id="text_7">
      <!-- −0.25 -->
      <g transform="translate(601.501617 334.998438) scale(0.1 -0.1)">
       <defs>
        <path id="DejaVuSans-32" d="M 1228 531 
L 3431 531 
L 3431 0 
L 469 0 
L 469 531 
Q 828 903 1448 1529 
Q 2069 2156 2228 2338 
Q 2531 2678 2651 2914 
Q 2772 3150 2772 3378 
Q 2772 3750 2511 3984 
Q 2250 4219 1831 4219 
Q 1534 4219 1204 4116 
Q 875 4013 500 3803 
L 500 4441 
Q 881 4594 1212 4672 
Q 1544 4750 1819 4750 
Q 2544 4750 2975 4387 
Q 3406 4025 3406 3419 
Q 3406 3131 3298 2873 
Q 3191 2616 2906 2266 
Q 2828 2175 2409 1742 
Q 1991 1309 1228 531 
z
" transform="scale(0.015625)"/>
       </defs>
       <use xlink:href="#DejaVuSans-2212"/>
       <use xlink:href="#DejaVuSans-30" x="83.789062"/>
       <use xlink:href="#DejaVuSans-2e" x="147.412109"/>
       <use xlink:href="#DejaVuSans-32" x="179.199219"/>
       <use xlink:href="#DejaVuSans-35" x="242.822266"/>
      </g>
     </g>
    </g>
   </g>
   <g id="matplotlib.axis_2">
    <g id="ytick_1">
     <g id="line2d_8">
      <defs>
       <path id="mbf49f81929" d="M 0 0 
L -3.5 0 
" style="stroke: #000000; stroke-width: 0.8"/>
      </defs>
      <g>
       <use xlink:href="#mbf49f81929" x="90" y="273.000094" style="stroke: #000000; stroke-width: 0.8"/>
      </g>
     </g>
     <g id="text_8">
      <!-- 0.06 -->
      <g transform="translate(60.734375 276.799313) scale(0.1 -0.1)">
       <defs>
        <path id="DejaVuSans-36" d="M 2113 2584 
Q 1688 2584 1439 2293 
Q 1191 2003 1191 1497 
Q 1191 994 1439 701 
Q 1688 409 2113 409 
Q 2538 409 2786 701 
Q 3034 994 3034 1497 
Q 3034 2003 2786 2293 
Q 2538 2584 2113 2584 
z
M 3366 4563 
L 3366 3988 
Q 3128 4100 2886 4159 
Q 2644 4219 2406 4219 
Q 1781 4219 1451 3797 
Q 1122 3375 1075 2522 
Q 1259 2794 1537 2939 
Q 1816 3084 2150 3084 
Q 2853 3084 3261 2657 
Q 3669 2231 3669 1497 
Q 3669 778 3244 343 
Q 2819 -91 2113 -91 
Q 1303 -91 875 529 
Q 447 1150 447 2328 
Q 447 3434 972 4092 
Q 1497 4750 2381 4750 
Q 2619 4750 2861 4703 
Q 3103 4656 3366 4563 
z
" transform="scale(0.015625)"/>
       </defs>
       <use xlink:href="#DejaVuSans-30"/>
       <use xlink:href="#DejaVuSans-2e" x="63.623047"/>
       <use xlink:href="#DejaVuSans-30" x="95.410156"/>
       <use xlink:href="#DejaVuSans-36" x="159.033203"/>
      </g>
     </g>
    </g>
    <g id="ytick_2">
     <g id="line2d_9">
      <g>
       <use xlink:href="#mbf49f81929" x="90" y="213.882059" style="stroke: #000000; stroke-width: 0.8"/>
      </g>
     </g>
     <g id="text_9">
      <!-- 0.08 -->
      <g transform="translate(60.734375 217.681278) scale(0.1 -0.1)">
       <defs>
        <path id="DejaVuSans-38" d="M 2034 2216 
Q 1584 2216 1326 1975 
Q 1069 1734 1069 1313 
Q 1069 891 1326 650 
Q 1584 409 2034 409 
Q 2484 409 2743 651 
Q 3003 894 3003 1313 
Q 3003 1734 2745 1975 
Q 2488 2216 2034 2216 
z
M 1403 2484 
Q 997 2584 770 2862 
Q 544 3141 544 3541 
Q 544 4100 942 4425 
Q 1341 4750 2034 4750 
Q 2731 4750 3128 4425 
Q 3525 4100 3525 3541 
Q 3525 3141 3298 2862 
Q 3072 2584 2669 2484 
Q 3125 2378 3379 2068 
Q 3634 1759 3634 1313 
Q 3634 634 3220 271 
Q 2806 -91 2034 -91 
Q 1263 -91 848 271 
Q 434 634 434 1313 
Q 434 1759 690 2068 
Q 947 2378 1403 2484 
z
M 1172 3481 
Q 1172 3119 1398 2916 
Q 1625 2713 2034 2713 
Q 2441 2713 2670 2916 
Q 2900 3119 2900 3481 
Q 2900 3844 2670 4047 
Q 2441 4250 2034 4250 
Q 1625 4250 1398 4047 
Q 1172 3844 1172 3481 
z
" transform="scale(0.015625)"/>
       </defs>
       <use xlink:href="#DejaVuSans-30"/>
       <use xlink:href="#DejaVuSans-2e" x="63.623047"/>
       <use xlink:href="#DejaVuSans-30" x="95.410156"/>
       <use xlink:href="#DejaVuSans-38" x="159.033203"/>
      </g>
     </g>
    </g>
    <g id="ytick_3">
     <g id="line2d_10">
      <g>
       <use xlink:href="#mbf49f81929" x="90" y="154.764024" style="stroke: #000000; stroke-width: 0.8"/>
      </g>
     </g>
     <g id="text_10">
      <!-- 0.10 -->
      <g transform="translate(60.734375 158.563243) scale(0.1 -0.1)">
       <defs>
        <path id="DejaVuSans-31" d="M 794 531 
L 1825 531 
L 1825 4091 
L 703 3866 
L 703 4441 
L 1819 4666 
L 2450 4666 
L 2450 531 
L 3481 531 
L 3481 0 
L 794 0 
L 794 531 
z
" transform="scale(0.015625)"/>
       </defs>
       <use xlink:href="#DejaVuSans-30"/>
       <use xlink:href="#DejaVuSans-2e" x="63.623047"/>
       <use xlink:href="#DejaVuSans-31" x="95.410156"/>
       <use xlink:href="#DejaVuSans-30" x="159.033203"/>
      </g>
     </g>
    </g>
    <g id="ytick_4">
     <g id="line2d_11">
      <g>
       <use xlink:href="#mbf49f81929" x="90" y="95.645989" style="stroke: #000000; stroke-width: 0.8"/>
      </g>
     </g>
     <g id="text_11">
      <!-- 0.12 -->
      <g transform="translate(60.734375 99.445208) scale(0.1 -0.1)">
       <use xlink:href="#DejaVuSans-30"/>
       <use xlink:href="#DejaVuSans-2e" x="63.623047"/>
       <use xlink:href="#DejaVuSans-31" x="95.410156"/>
       <use xlink:href="#DejaVuSans-32" x="159.033203"/>
      </g>
     </g>
    </g>
   </g>
   <g id="patch_3">
    <path d="M 90 320.4 
L 90 43.2 
" style="fill: none; stroke: #000000; stroke-width: 0.8; stroke-linejoin: miter; stroke-linecap: square"/>
   </g>
   <g id="patch_4">
    <path d="M 648 320.4 
L 648 43.2 
" style="fill: none; stroke: #000000; stroke-width: 0.8; stroke-linejoin: miter; stroke-linecap: square"/>
   </g>
   <g id="patch_5">
    <path d="M 90 320.4 
L 648 320.4 
" style="fill: none; stroke: #000000; stroke-width: 0.8; stroke-linejoin: miter; stroke-linecap: square"/>
   </g>
   <g id="patch_6">
    <path d="M 90 43.2 
L 648 43.2 
" style="fill: none; stroke: #000000; stroke-width: 0.8; stroke-linejoin: miter; stroke-linecap: square"/>
   </g>
  </g>
 </g>
 <defs>
  <clipPath id="p5a76ac00aa">
   <rect x="90" y="43.2" width="558" height="277.2"/>
  </clipPath>
 </defs>
</svg>
