<?xml version="1.0" encoding="utf-8" standalone="no"?>
<!DOCTYPE svg PUBLIC "-//W3C//DTD SVG 1.1//EN"
  "http://www.w3.org/Graphics/SVG/1.1/DTD/svg11.dtd">
<svg xmlns:xlink="http://www.w3.org/1999/xlink" width="720pt" height="360pt" viewBox="0 0 720 360" xmlns="http://www.w3.org/2000/svg" version="1.1">
 <metadata>
  <rdf:RDF xmlns:dc="http://purl.org/dc/elements/1.1/" xmlns:cc="http://creativecommons.org/ns#" xmlns:rdf="http://www.w3.org/1999/02/22-rdf-syntax-ns#">
   <cc:Work>
    <dc:type rdf:resource="http://purl.org/dc/dcmitype/StillImage"/>
    <dc:date>2024-04-04T22:27:02.996139</dc:date>
    <dc:format>image/svg+xml</dc:format>
    <dc:creator>
     <cc:Agent>
      <dc:title>Matplotlib v3.8.3, https://matplotlib.org/</dc:title>
     </cc:Agent>
    </dc:creator>
   </cc:Work>
  </rdf:RDF>
 </metadata>
 <defs>
  <style type="text/css">*{stroke-linejoin: round; stroke-linecap: butt}</style>
 </defs>
 <g id="figure_1">
  <g id="patch_1">
   <path d="M 0 360 
L 720 360 
L 720 0 
L 0 0 
z
" style="fill: #ffffff"/>
  </g>
  <g id="axes_1">
   <g id="patch_2">
    <path d="M 90 320.4 
L 648 320.4 
L 648 43.2 
L 90 43.2 
z
" style="fill: #ffffff"/>
   </g>
   <g id="PathCollection_1">
    <defs>
     <path id="C0_0_0cbd8c0218" d="M 0 3 
C 0.795609 3 1.55874 2.683901 2.12132 2.12132 
C 2.683901 1.55874 3 0.795609 3 -0 
C 3 -0.795609 2.683901 -1.55874 2.12132 -2.12132 
C 1.55874 -2.683901 0.795609 -3 0 -3 
C -0.795609 -3 -1.55874 -2.683901 -2.12132 -2.12132 
C -2.683901 -1.55874 -3 -0.795609 -3 0 
C -3 0.795609 -2.683901 1.55874 -2.12132 2.12132 
C -1.55874 2.683901 -0.795609 3 0 3 
z
"/>
    </defs>
    <g clip-path="url(#p5f20044610)">
     <use xlink:href="#C0_0_0cbd8c0218" x="435.514314" y="251.237569" style="fill: #440154; stroke: #440154"/>
    </g>
    <g clip-path="url(#p5f20044610)">
     <use xlink:href="#C0_0_0cbd8c0218" x="385.372776" y="146.149578" style="fill: #440154; stroke: #440154"/>
    </g>
    <g clip-path="url(#p5f20044610)">
     <use xlink:href="#C0_0_0cbd8c0218" x="306.596463" y="222.346641" style="fill: #440154; stroke: #440154"/>
    </g>
    <g clip-path="url(#p5f20044610)">
     <use xlink:href="#C0_0_0cbd8c0218" x="277.843357" y="237.735895" style="fill: #fde725; stroke: #fde725"/>
    </g>
    <g clip-path="url(#p5f20044610)">
     <use xlink:href="#C0_0_0cbd8c0218" x="320.652003" y="233.146497" style="fill: #440154; stroke: #440154"/>
    </g>
    <g clip-path="url(#p5f20044610)">
     <use xlink:href="#C0_0_0cbd8c0218" x="278.576047" y="190.175717" style="fill: #440154; stroke: #440154"/>
    </g>
    <g clip-path="url(#p5f20044610)">
     <use xlink:href="#C0_0_0cbd8c0218" x="270.033702" y="160.24389" style="fill: #440154; stroke: #440154"/>
    </g>
    <g clip-path="url(#p5f20044610)">
     <use xlink:href="#C0_0_0cbd8c0218" x="242.155031" y="219.364992" style="fill: #440154; stroke: #440154"/>
    </g>
    <g clip-path="url(#p5f20044610)">
     <use xlink:href="#C0_0_0cbd8c0218" x="304.955258" y="166.726797" style="fill: #2ab07f; stroke: #2ab07f"/>
    </g>
    <g clip-path="url(#p5f20044610)">
     <use xlink:href="#C0_0_0cbd8c0218" x="182.402062" y="110.514987" style="fill: #fde725; stroke: #fde725"/>
    </g>
    <g clip-path="url(#p5f20044610)">
     <use xlink:href="#C0_0_0cbd8c0218" x="497.436768" y="201.049497" style="fill: #433e85; stroke: #433e85"/>
    </g>
    <g clip-path="url(#p5f20044610)">
     <use xlink:href="#C0_0_0cbd8c0218" x="326.500497" y="216.513093" style="fill: #440154; stroke: #440154"/>
    </g>
    <g clip-path="url(#p5f20044610)">
     <use xlink:href="#C0_0_0cbd8c0218" x="296.113994" y="171.210051" style="fill: #433e85; stroke: #433e85"/>
    </g>
    <g clip-path="url(#p5f20044610)">
     <use xlink:href="#C0_0_0cbd8c0218" x="488.545779" y="217.191232" style="fill: #c2df23; stroke: #c2df23"/>
    </g>
    <g clip-path="url(#p5f20044610)">
     <use xlink:href="#C0_0_0cbd8c0218" x="353.550171" y="139.515526" style="fill: #52c569; stroke: #52c569"/>
    </g>
    <g clip-path="url(#p5f20044610)">
     <use xlink:href="#C0_0_0cbd8c0218" x="403.764829" y="256.431687" style="fill: #440154; stroke: #440154"/>
    </g>
    <g clip-path="url(#p5f20044610)">
     <use xlink:href="#C0_0_0cbd8c0218" x="390.034437" y="154.638598" style="fill: #52c569; stroke: #52c569"/>
    </g>
    <g clip-path="url(#p5f20044610)">
     <use xlink:href="#C0_0_0cbd8c0218" x="600.44253" y="95.754171" style="fill: #440154; stroke: #440154"/>
    </g>
    <g clip-path="url(#p5f20044610)">
     <use xlink:href="#C0_0_0cbd8c0218" x="436.458253" y="228.664669" style="fill: #440154; stroke: #440154"/>
    </g>
    <g clip-path="url(#p5f20044610)">
     <use xlink:href="#C0_0_0cbd8c0218" x="380.745013" y="265.670531" style="fill: #2ab07f; stroke: #2ab07f"/>
    </g>
    <g clip-path="url(#p5f20044610)">
     <use xlink:href="#C0_0_0cbd8c0218" x="267.146573" y="190.573578" style="fill: #433e85; stroke: #433e85"/>
    </g>
    <g clip-path="url(#p5f20044610)">
     <use xlink:href="#C0_0_0cbd8c0218" x="279.875264" y="171.641111" style="fill: #440154; stroke: #440154"/>
    </g>
    <g clip-path="url(#p5f20044610)">
     <use xlink:href="#C0_0_0cbd8c0218" x="219.348546" y="176.36697" style="fill: #433e85; stroke: #433e85"/>
    </g>
    <g clip-path="url(#p5f20044610)">
     <use xlink:href="#C0_0_0cbd8c0218" x="272.850559" y="172.764407" style="fill: #440154; stroke: #440154"/>
    </g>
    <g clip-path="url(#p5f20044610)">
     <use xlink:href="#C0_0_0cbd8c0218" x="218.076368" y="228.707574" style="fill: #440154; stroke: #440154"/>
    </g>
    <g clip-path="url(#p5f20044610)">
     <use xlink:href="#C0_0_0cbd8c0218" x="325.815704" y="200.504462" style="fill: #440154; stroke: #440154"/>
    </g>
    <g clip-path="url(#p5f20044610)">
     <use xlink:href="#C0_0_0cbd8c0218" x="287.591607" y="126.598183" style="fill: #fde725; stroke: #fde725"/>
    </g>
    <g clip-path="url(#p5f20044610)">
     <use xlink:href="#C0_0_0cbd8c0218" x="294.038827" y="183.221587" style="fill: #2ab07f; stroke: #2ab07f"/>
    </g>
    <g clip-path="url(#p5f20044610)">
     <use xlink:href="#C0_0_0cbd8c0218" x="282.826945" y="198.048745" style="fill: #440154; stroke: #440154"/>
    </g>
    <g clip-path="url(#p5f20044610)">
     <use xlink:href="#C0_0_0cbd8c0218" x="366.668674" y="218.796688" style="fill: #fde725; stroke: #fde725"/>
    </g>
    <g clip-path="url(#p5f20044610)">
     <use xlink:href="#C0_0_0cbd8c0218" x="293.387851" y="189.894292" style="fill: #440154; stroke: #440154"/>
    </g>
    <g clip-path="url(#p5f20044610)">
     <use xlink:href="#C0_0_0cbd8c0218" x="115.363636" y="119.571584" style="fill: #440154; stroke: #440154"/>
    </g>
    <g clip-path="url(#p5f20044610)">
     <use xlink:href="#C0_0_0cbd8c0218" x="304.441243" y="199.293343" style="fill: #440154; stroke: #440154"/>
    </g>
    <g clip-path="url(#p5f20044610)">
     <use xlink:href="#C0_0_0cbd8c0218" x="315.032009" y="181.487976" style="fill: #440154; stroke: #440154"/>
    </g>
    <g clip-path="url(#p5f20044610)">
     <use xlink:href="#C0_0_0cbd8c0218" x="243.386761" y="141.958881" style="fill: #440154; stroke: #440154"/>
    </g>
    <g clip-path="url(#p5f20044610)">
     <use xlink:href="#C0_0_0cbd8c0218" x="342.638351" y="212.950526" style="fill: #433e85; stroke: #433e85"/>
    </g>
    <g clip-path="url(#p5f20044610)">
     <use xlink:href="#C0_0_0cbd8c0218" x="434.244903" y="254.57574" style="fill: #440154; stroke: #440154"/>
    </g>
    <g clip-path="url(#p5f20044610)">
     <use xlink:href="#C0_0_0cbd8c0218" x="298.236106" y="233.832664" style="fill: #440154; stroke: #440154"/>
    </g>
    <g clip-path="url(#p5f20044610)">
     <use xlink:href="#C0_0_0cbd8c0218" x="346.89801" y="247.990913" style="fill: #1e9b8a; stroke: #1e9b8a"/>
    </g>
    <g clip-path="url(#p5f20044610)">
     <use xlink:href="#C0_0_0cbd8c0218" x="451.679261" y="234.473437" style="fill: #440154; stroke: #440154"/>
    </g>
    <g clip-path="url(#p5f20044610)">
     <use xlink:href="#C0_0_0cbd8c0218" x="302.089982" y="276.693134" style="fill: #86d549; stroke: #86d549"/>
    </g>
    <g clip-path="url(#p5f20044610)">
     <use xlink:href="#C0_0_0cbd8c0218" x="399.588725" y="150.380999" style="fill: #86d549; stroke: #86d549"/>
    </g>
    <g clip-path="url(#p5f20044610)">
     <use xlink:href="#C0_0_0cbd8c0218" x="317.273105" y="245.734532" style="fill: #52c569; stroke: #52c569"/>
    </g>
    <g clip-path="url(#p5f20044610)">
     <use xlink:href="#C0_0_0cbd8c0218" x="387.890612" y="253.971746" style="fill: #440154; stroke: #440154"/>
    </g>
    <g clip-path="url(#p5f20044610)">
     <use xlink:href="#C0_0_0cbd8c0218" x="317.359542" y="294.294998" style="fill: #440154; stroke: #440154"/>
    </g>
    <g clip-path="url(#p5f20044610)">
     <use xlink:href="#C0_0_0cbd8c0218" x="230.88701" y="239.832097" style="fill: #433e85; stroke: #433e85"/>
    </g>
    <g clip-path="url(#p5f20044610)">
     <use xlink:href="#C0_0_0cbd8c0218" x="222.63911" y="218.665596" style="fill: #440154; stroke: #440154"/>
    </g>
    <g clip-path="url(#p5f20044610)">
     <use xlink:href="#C0_0_0cbd8c0218" x="386.367424" y="171.748569" style="fill: #440154; stroke: #440154"/>
    </g>
    <g clip-path="url(#p5f20044610)">
     <use xlink:href="#C0_0_0cbd8c0218" x="352.207473" y="236.969149" style="fill: #440154; stroke: #440154"/>
    </g>
    <g clip-path="url(#p5f20044610)">
     <use xlink:href="#C0_0_0cbd8c0218" x="336.746916" y="269.183341" style="fill: #440154; stroke: #440154"/>
    </g>
    <g clip-path="url(#p5f20044610)">
     <use xlink:href="#C0_0_0cbd8c0218" x="332.651404" y="196.253939" style="fill: #86d549; stroke: #86d549"/>
    </g>
    <g clip-path="url(#p5f20044610)">
     <use xlink:href="#C0_0_0cbd8c0218" x="488.383164" y="238.685922" style="fill: #440154; stroke: #440154"/>
    </g>
    <g clip-path="url(#p5f20044610)">
     <use xlink:href="#C0_0_0cbd8c0218" x="381.410286" y="242.814556" style="fill: #2ab07f; stroke: #2ab07f"/>
    </g>
    <g clip-path="url(#p5f20044610)">
     <use xlink:href="#C0_0_0cbd8c0218" x="128.446176" y="141.528715" style="fill: #440154; stroke: #440154"/>
    </g>
    <g clip-path="url(#p5f20044610)">
     <use xlink:href="#C0_0_0cbd8c0218" x="194.304865" y="106.252381" style="fill: #440154; stroke: #440154"/>
    </g>
    <g clip-path="url(#p5f20044610)">
     <use xlink:href="#C0_0_0cbd8c0218" x="227.283289" y="175.66268" style="fill: #440154; stroke: #440154"/>
    </g>
    <g clip-path="url(#p5f20044610)">
     <use xlink:href="#C0_0_0cbd8c0218" x="363.118478" y="216.794658" style="fill: #440154; stroke: #440154"/>
    </g>
    <g clip-path="url(#p5f20044610)">
     <use xlink:href="#C0_0_0cbd8c0218" x="357.201043" y="296.033195" style="fill: #440154; stroke: #440154"/>
    </g>
    <g clip-path="url(#p5f20044610)">
     <use xlink:href="#C0_0_0cbd8c0218" x="294.021365" y="138.387112" style="fill: #440154; stroke: #440154"/>
    </g>
    <g clip-path="url(#p5f20044610)">
     <use xlink:href="#C0_0_0cbd8c0218" x="294.771489" y="205.854983" style="fill: #433e85; stroke: #433e85"/>
    </g>
    <g clip-path="url(#p5f20044610)">
     <use xlink:href="#C0_0_0cbd8c0218" x="341.509221" y="187.816018" style="fill: #86d549; stroke: #86d549"/>
    </g>
    <g clip-path="url(#p5f20044610)">
     <use xlink:href="#C0_0_0cbd8c0218" x="319.071057" y="232.135554" style="fill: #52c569; stroke: #52c569"/>
    </g>
    <g clip-path="url(#p5f20044610)">
     <use xlink:href="#C0_0_0cbd8c0218" x="383.479533" y="288.000938" style="fill: #86d549; stroke: #86d549"/>
    </g>
    <g clip-path="url(#p5f20044610)">
     <use xlink:href="#C0_0_0cbd8c0218" x="329.314368" y="219.592353" style="fill: #440154; stroke: #440154"/>
    </g>
    <g clip-path="url(#p5f20044610)">
     <use xlink:href="#C0_0_0cbd8c0218" x="362.192456" y="250.39251" style="fill: #440154; stroke: #440154"/>
    </g>
    <g clip-path="url(#p5f20044610)">
     <use xlink:href="#C0_0_0cbd8c0218" x="288.70804" y="182.301962" style="fill: #440154; stroke: #440154"/>
    </g>
    <g clip-path="url(#p5f20044610)">
     <use xlink:href="#C0_0_0cbd8c0218" x="375.99546" y="294.796903" style="fill: #1e9b8a; stroke: #1e9b8a"/>
    </g>
    <g clip-path="url(#p5f20044610)">
     <use xlink:href="#C0_0_0cbd8c0218" x="383.301821" y="226.169097" style="fill: #440154; stroke: #440154"/>
    </g>
    <g clip-path="url(#p5f20044610)">
     <use xlink:href="#C0_0_0cbd8c0218" x="287.915077" y="200.147716" style="fill: #440154; stroke: #440154"/>
    </g>
    <g clip-path="url(#p5f20044610)">
     <use xlink:href="#C0_0_0cbd8c0218" x="363.300595" y="183.017887" style="fill: #440154; stroke: #440154"/>
    </g>
    <g clip-path="url(#p5f20044610)">
     <use xlink:href="#C0_0_0cbd8c0218" x="282.807491" y="216.411817" style="fill: #86d549; stroke: #86d549"/>
    </g>
    <g clip-path="url(#p5f20044610)">
     <use xlink:href="#C0_0_0cbd8c0218" x="266.223516" y="202.867434" style="fill: #440154; stroke: #440154"/>
    </g>
    <g clip-path="url(#p5f20044610)">
     <use xlink:href="#C0_0_0cbd8c0218" x="387.885749" y="227.67515" style="fill: #433e85; stroke: #433e85"/>
    </g>
    <g clip-path="url(#p5f20044610)">
     <use xlink:href="#C0_0_0cbd8c0218" x="348.104081" y="187.708477" style="fill: #c2df23; stroke: #c2df23"/>
    </g>
    <g clip-path="url(#p5f20044610)">
     <use xlink:href="#C0_0_0cbd8c0218" x="366.877605" y="257.011654" style="fill: #440154; stroke: #440154"/>
    </g>
    <g clip-path="url(#p5f20044610)">
     <use xlink:href="#C0_0_0cbd8c0218" x="211.663121" y="139.272139" style="fill: #440154; stroke: #440154"/>
    </g>
    <g clip-path="url(#p5f20044610)">
     <use xlink:href="#C0_0_0cbd8c0218" x="351.407828" y="255.831301" style="fill: #440154; stroke: #440154"/>
    </g>
    <g clip-path="url(#p5f20044610)">
     <use xlink:href="#C0_0_0cbd8c0218" x="256.978415" y="211.250227" style="fill: #440154; stroke: #440154"/>
    </g>
    <g clip-path="url(#p5f20044610)">
     <use xlink:href="#C0_0_0cbd8c0218" x="462.385607" y="233.507215" style="fill: #440154; stroke: #440154"/>
    </g>
    <g clip-path="url(#p5f20044610)">
     <use xlink:href="#C0_0_0cbd8c0218" x="365.654532" y="262.194361" style="fill: #440154; stroke: #440154"/>
    </g>
    <g clip-path="url(#p5f20044610)">
     <use xlink:href="#C0_0_0cbd8c0218" x="353.413445" y="221.28566" style="fill: #440154; stroke: #440154"/>
    </g>
    <g clip-path="url(#p5f20044610)">
     <use xlink:href="#C0_0_0cbd8c0218" x="291.953697" y="276.085113" style="fill: #86d549; stroke: #86d549"/>
    </g>
    <g clip-path="url(#p5f20044610)">
     <use xlink:href="#C0_0_0cbd8c0218" x="231.381552" y="184.273142" style="fill: #440154; stroke: #440154"/>
    </g>
    <g clip-path="url(#p5f20044610)">
     <use xlink:href="#C0_0_0cbd8c0218" x="351.601448" y="215.792664" style="fill: #440154; stroke: #440154"/>
    </g>
    <g clip-path="url(#p5f20044610)">
     <use xlink:href="#C0_0_0cbd8c0218" x="313.577322" y="231.600504" style="fill: #52c569; stroke: #52c569"/>
    </g>
    <g clip-path="url(#p5f20044610)">
     <use xlink:href="#C0_0_0cbd8c0218" x="297.947164" y="251.50487" style="fill: #440154; stroke: #440154"/>
    </g>
    <g clip-path="url(#p5f20044610)">
     <use xlink:href="#C0_0_0cbd8c0218" x="364.65991" y="247.902559" style="fill: #440154; stroke: #440154"/>
    </g>
    <g clip-path="url(#p5f20044610)">
     <use xlink:href="#C0_0_0cbd8c0218" x="271.539853" y="230.134978" style="fill: #440154; stroke: #440154"/>
    </g>
    <g clip-path="url(#p5f20044610)">
     <use xlink:href="#C0_0_0cbd8c0218" x="365.875202" y="266.105227" style="fill: #fde725; stroke: #fde725"/>
    </g>
    <g clip-path="url(#p5f20044610)">
     <use xlink:href="#C0_0_0cbd8c0218" x="393.317357" y="159.35959" style="fill: #440154; stroke: #440154"/>
    </g>
    <g clip-path="url(#p5f20044610)">
     <use xlink:href="#C0_0_0cbd8c0218" x="406.280241" y="219.55191" style="fill: #440154; stroke: #440154"/>
    </g>
    <g clip-path="url(#p5f20044610)">
     <use xlink:href="#C0_0_0cbd8c0218" x="261.17482" y="163.06122" style="fill: #1e9b8a; stroke: #1e9b8a"/>
    </g>
    <g clip-path="url(#p5f20044610)">
     <use xlink:href="#C0_0_0cbd8c0218" x="321.455688" y="295.055646" style="fill: #440154; stroke: #440154"/>
    </g>
    <g clip-path="url(#p5f20044610)">
     <use xlink:href="#C0_0_0cbd8c0218" x="328.200037" y="260.016014" style="fill: #2ab07f; stroke: #2ab07f"/>
    </g>
    <g clip-path="url(#p5f20044610)">
     <use xlink:href="#C0_0_0cbd8c0218" x="329.25212" y="195.157018" style="fill: #c2df23; stroke: #c2df23"/>
    </g>
    <g clip-path="url(#p5f20044610)">
     <use xlink:href="#C0_0_0cbd8c0218" x="377.828276" y="233.722913" style="fill: #440154; stroke: #440154"/>
    </g>
    <g clip-path="url(#p5f20044610)">
     <use xlink:href="#C0_0_0cbd8c0218" x="327.975617" y="241.44088" style="fill: #fde725; stroke: #fde725"/>
    </g>
    <g clip-path="url(#p5f20044610)">
     <use xlink:href="#C0_0_0cbd8c0218" x="359.964927" y="224.548146" style="fill: #440154; stroke: #440154"/>
    </g>
    <g clip-path="url(#p5f20044610)">
     <use xlink:href="#C0_0_0cbd8c0218" x="234.011484" y="117.186629" style="fill: #2ab07f; stroke: #2ab07f"/>
    </g>
    <g clip-path="url(#p5f20044610)">
     <use xlink:href="#C0_0_0cbd8c0218" x="392.617591" y="189.494389" style="fill: #440154; stroke: #440154"/>
    </g>
    <g clip-path="url(#p5f20044610)">
     <use xlink:href="#C0_0_0cbd8c0218" x="304.394516" y="224.920359" style="fill: #440154; stroke: #440154"/>
    </g>
    <g clip-path="url(#p5f20044610)">
     <use xlink:href="#C0_0_0cbd8c0218" x="267.362332" y="245.221299" style="fill: #440154; stroke: #440154"/>
    </g>
    <g clip-path="url(#p5f20044610)">
     <use xlink:href="#C0_0_0cbd8c0218" x="348.559055" y="166.041609" style="fill: #fde725; stroke: #fde725"/>
    </g>
    <g clip-path="url(#p5f20044610)">
     <use xlink:href="#C0_0_0cbd8c0218" x="250.5068" y="193.091442" style="fill: #440154; stroke: #440154"/>
    </g>
    <g clip-path="url(#p5f20044610)">
     <use xlink:href="#C0_0_0cbd8c0218" x="312.356538" y="197.708389" style="fill: #86d549; stroke: #86d549"/>
    </g>
    <g clip-path="url(#p5f20044610)">
     <use xlink:href="#C0_0_0cbd8c0218" x="393.83105" y="254.672876" style="fill: #440154; stroke: #440154"/>
    </g>
    <g clip-path="url(#p5f20044610)">
     <use xlink:href="#C0_0_0cbd8c0218" x="364.904964" y="264.765087" style="fill: #440154; stroke: #440154"/>
    </g>
    <g clip-path="url(#p5f20044610)">
     <use xlink:href="#C0_0_0cbd8c0218" x="369.178161" y="223.990889" style="fill: #440154; stroke: #440154"/>
    </g>
    <g clip-path="url(#p5f20044610)">
     <use xlink:href="#C0_0_0cbd8c0218" x="607.911125" y="83.663539" style="fill: #440154; stroke: #440154"/>
    </g>
    <g clip-path="url(#p5f20044610)">
     <use xlink:href="#C0_0_0cbd8c0218" x="381.37068" y="242.23291" style="fill: #440154; stroke: #440154"/>
    </g>
    <g clip-path="url(#p5f20044610)">
     <use xlink:href="#C0_0_0cbd8c0218" x="285.201228" y="189.875413" style="fill: #440154; stroke: #440154"/>
    </g>
    <g clip-path="url(#p5f20044610)">
     <use xlink:href="#C0_0_0cbd8c0218" x="368.865442" y="209.600524" style="fill: #433e85; stroke: #433e85"/>
    </g>
    <g clip-path="url(#p5f20044610)">
     <use xlink:href="#C0_0_0cbd8c0218" x="366.31971" y="208.767548" style="fill: #86d549; stroke: #86d549"/>
    </g>
    <g clip-path="url(#p5f20044610)">
     <use xlink:href="#C0_0_0cbd8c0218" x="254.324256" y="177.656626" style="fill: #1e9b8a; stroke: #1e9b8a"/>
    </g>
    <g clip-path="url(#p5f20044610)">
     <use xlink:href="#C0_0_0cbd8c0218" x="305.438777" y="268.332716" style="fill: #52c569; stroke: #52c569"/>
    </g>
    <g clip-path="url(#p5f20044610)">
     <use xlink:href="#C0_0_0cbd8c0218" x="397.196611" y="307.8" style="fill: #440154; stroke: #440154"/>
    </g>
    <g clip-path="url(#p5f20044610)">
     <use xlink:href="#C0_0_0cbd8c0218" x="315.551485" y="167.343096" style="fill: #440154; stroke: #440154"/>
    </g>
    <g clip-path="url(#p5f20044610)">
     <use xlink:href="#C0_0_0cbd8c0218" x="214.711417" y="210.081146" style="fill: #433e85; stroke: #433e85"/>
    </g>
    <g clip-path="url(#p5f20044610)">
     <use xlink:href="#C0_0_0cbd8c0218" x="356.064037" y="174.219501" style="fill: #2ab07f; stroke: #2ab07f"/>
    </g>
    <g clip-path="url(#p5f20044610)">
     <use xlink:href="#C0_0_0cbd8c0218" x="388.595178" y="215.022506" style="fill: #fde725; stroke: #fde725"/>
    </g>
    <g clip-path="url(#p5f20044610)">
     <use xlink:href="#C0_0_0cbd8c0218" x="289.108107" y="191.223133" style="fill: #440154; stroke: #440154"/>
    </g>
    <g clip-path="url(#p5f20044610)">
     <use xlink:href="#C0_0_0cbd8c0218" x="373.507109" y="248.867046" style="fill: #440154; stroke: #440154"/>
    </g>
    <g clip-path="url(#p5f20044610)">
     <use xlink:href="#C0_0_0cbd8c0218" x="311.478921" y="211.920591" style="fill: #433e85; stroke: #433e85"/>
    </g>
    <g clip-path="url(#p5f20044610)">
     <use xlink:href="#C0_0_0cbd8c0218" x="410.139186" y="168.507675" style="fill: #25858e; stroke: #25858e"/>
    </g>
    <g clip-path="url(#p5f20044610)">
     <use xlink:href="#C0_0_0cbd8c0218" x="414.518836" y="168.528819" style="fill: #440154; stroke: #440154"/>
    </g>
    <g clip-path="url(#p5f20044610)">
     <use xlink:href="#C0_0_0cbd8c0218" x="331.996807" y="208.154577" style="fill: #52c569; stroke: #52c569"/>
    </g>
    <g clip-path="url(#p5f20044610)">
     <use xlink:href="#C0_0_0cbd8c0218" x="299.121281" y="233.155531" style="fill: #440154; stroke: #440154"/>
    </g>
    <g clip-path="url(#p5f20044610)">
     <use xlink:href="#C0_0_0cbd8c0218" x="419.487222" y="245.86003" style="fill: #440154; stroke: #440154"/>
    </g>
    <g clip-path="url(#p5f20044610)">
     <use xlink:href="#C0_0_0cbd8c0218" x="322.882532" y="230.078592" style="fill: #433e85; stroke: #433e85"/>
    </g>
    <g clip-path="url(#p5f20044610)">
     <use xlink:href="#C0_0_0cbd8c0218" x="290.168819" y="260.897069" style="fill: #52c569; stroke: #52c569"/>
    </g>
    <g clip-path="url(#p5f20044610)">
     <use xlink:href="#C0_0_0cbd8c0218" x="312.930785" y="203.310241" style="fill: #86d549; stroke: #86d549"/>
    </g>
    <g clip-path="url(#p5f20044610)">
     <use xlink:href="#C0_0_0cbd8c0218" x="280.23272" y="176.827761" style="fill: #440154; stroke: #440154"/>
    </g>
    <g clip-path="url(#p5f20044610)">
     <use xlink:href="#C0_0_0cbd8c0218" x="252.204132" y="208.196334" style="fill: #86d549; stroke: #86d549"/>
    </g>
    <g clip-path="url(#p5f20044610)">
     <use xlink:href="#C0_0_0cbd8c0218" x="307.601432" y="218.87598" style="fill: #fde725; stroke: #fde725"/>
    </g>
    <g clip-path="url(#p5f20044610)">
     <use xlink:href="#C0_0_0cbd8c0218" x="266.042028" y="214.841378" style="fill: #25858e; stroke: #25858e"/>
    </g>
    <g clip-path="url(#p5f20044610)">
     <use xlink:href="#C0_0_0cbd8c0218" x="301.561617" y="229.628066" style="fill: #433e85; stroke: #433e85"/>
    </g>
    <g clip-path="url(#p5f20044610)">
     <use xlink:href="#C0_0_0cbd8c0218" x="180.211475" y="226.150273" style="fill: #440154; stroke: #440154"/>
    </g>
    <g clip-path="url(#p5f20044610)">
     <use xlink:href="#C0_0_0cbd8c0218" x="275.950619" y="174.512533" style="fill: #440154; stroke: #440154"/>
    </g>
    <g clip-path="url(#p5f20044610)">
     <use xlink:href="#C0_0_0cbd8c0218" x="291.835066" y="276.657306" style="fill: #440154; stroke: #440154"/>
    </g>
    <g clip-path="url(#p5f20044610)">
     <use xlink:href="#C0_0_0cbd8c0218" x="277.76454" y="230.540782" style="fill: #440154; stroke: #440154"/>
    </g>
    <g clip-path="url(#p5f20044610)">
     <use xlink:href="#C0_0_0cbd8c0218" x="317.752279" y="265.881446" style="fill: #440154; stroke: #440154"/>
    </g>
    <g clip-path="url(#p5f20044610)">
     <use xlink:href="#C0_0_0cbd8c0218" x="183.288509" y="179.670767" style="fill: #86d549; stroke: #86d549"/>
    </g>
    <g clip-path="url(#p5f20044610)">
     <use xlink:href="#C0_0_0cbd8c0218" x="335.683954" y="232.693398" style="fill: #440154; stroke: #440154"/>
    </g>
    <g clip-path="url(#p5f20044610)">
     <use xlink:href="#C0_0_0cbd8c0218" x="516.589408" y="204.843872" style="fill: #440154; stroke: #440154"/>
    </g>
    <g clip-path="url(#p5f20044610)">
     <use xlink:href="#C0_0_0cbd8c0218" x="466.472188" y="230.038736" style="fill: #440154; stroke: #440154"/>
    </g>
    <g clip-path="url(#p5f20044610)">
     <use xlink:href="#C0_0_0cbd8c0218" x="365.498658" y="231.869455" style="fill: #440154; stroke: #440154"/>
    </g>
    <g clip-path="url(#p5f20044610)">
     <use xlink:href="#C0_0_0cbd8c0218" x="306.231691" y="224.394763" style="fill: #440154; stroke: #440154"/>
    </g>
    <g clip-path="url(#p5f20044610)">
     <use xlink:href="#C0_0_0cbd8c0218" x="332.711047" y="235.966736" style="fill: #482173; stroke: #482173"/>
    </g>
    <g clip-path="url(#p5f20044610)">
     <use xlink:href="#C0_0_0cbd8c0218" x="492.231196" y="229.227156" style="fill: #433e85; stroke: #433e85"/>
    </g>
    <g clip-path="url(#p5f20044610)">
     <use xlink:href="#C0_0_0cbd8c0218" x="465.81545" y="212.0137" style="fill: #25858e; stroke: #25858e"/>
    </g>
    <g clip-path="url(#p5f20044610)">
     <use xlink:href="#C0_0_0cbd8c0218" x="343.048854" y="236.839317" style="fill: #c2df23; stroke: #c2df23"/>
    </g>
    <g clip-path="url(#p5f20044610)">
     <use xlink:href="#C0_0_0cbd8c0218" x="284.02354" y="198.249731" style="fill: #25858e; stroke: #25858e"/>
    </g>
    <g clip-path="url(#p5f20044610)">
     <use xlink:href="#C0_0_0cbd8c0218" x="604.433103" y="87.439482" style="fill: #440154; stroke: #440154"/>
    </g>
    <g clip-path="url(#p5f20044610)">
     <use xlink:href="#C0_0_0cbd8c0218" x="595.659659" y="103.143613" style="fill: #440154; stroke: #440154"/>
    </g>
    <g clip-path="url(#p5f20044610)">
     <use xlink:href="#C0_0_0cbd8c0218" x="415.888256" y="183.069099" style="fill: #440154; stroke: #440154"/>
    </g>
    <g clip-path="url(#p5f20044610)">
     <use xlink:href="#C0_0_0cbd8c0218" x="282.187913" y="178.449243" style="fill: #38588c; stroke: #38588c"/>
    </g>
    <g clip-path="url(#p5f20044610)">
     <use xlink:href="#C0_0_0cbd8c0218" x="426.20503" y="184.24218" style="fill: #440154; stroke: #440154"/>
    </g>
    <g clip-path="url(#p5f20044610)">
     <use xlink:href="#C0_0_0cbd8c0218" x="362.07543" y="230.253623" style="fill: #440154; stroke: #440154"/>
    </g>
    <g clip-path="url(#p5f20044610)">
     <use xlink:href="#C0_0_0cbd8c0218" x="290.871525" y="179.744829" style="fill: #440154; stroke: #440154"/>
    </g>
    <g clip-path="url(#p5f20044610)">
     <use xlink:href="#C0_0_0cbd8c0218" x="491.350023" y="230.35627" style="fill: #440154; stroke: #440154"/>
    </g>
    <g clip-path="url(#p5f20044610)">
     <use xlink:href="#C0_0_0cbd8c0218" x="375.198063" y="224.704298" style="fill: #440154; stroke: #440154"/>
    </g>
    <g clip-path="url(#p5f20044610)">
     <use xlink:href="#C0_0_0cbd8c0218" x="497.79716" y="233.952735" style="fill: #440154; stroke: #440154"/>
    </g>
    <g clip-path="url(#p5f20044610)">
     <use xlink:href="#C0_0_0cbd8c0218" x="406.14577" y="229.040966" style="fill: #2d708e; stroke: #2d708e"/>
    </g>
    <g clip-path="url(#p5f20044610)">
     <use xlink:href="#C0_0_0cbd8c0218" x="438.709053" y="213.256872" style="fill: #2ab07f; stroke: #2ab07f"/>
    </g>
    <g clip-path="url(#p5f20044610)">
     <use xlink:href="#C0_0_0cbd8c0218" x="493.973164" y="200.826275" style="fill: #52c569; stroke: #52c569"/>
    </g>
    <g clip-path="url(#p5f20044610)">
     <use xlink:href="#C0_0_0cbd8c0218" x="277.063361" y="253.449507" style="fill: #86d549; stroke: #86d549"/>
    </g>
    <g clip-path="url(#p5f20044610)">
     <use xlink:href="#C0_0_0cbd8c0218" x="292.273558" y="225.3616" style="fill: #440154; stroke: #440154"/>
    </g>
    <g clip-path="url(#p5f20044610)">
     <use xlink:href="#C0_0_0cbd8c0218" x="187.687661" y="185.802829" style="fill: #2ab07f; stroke: #2ab07f"/>
    </g>
    <g clip-path="url(#p5f20044610)">
     <use xlink:href="#C0_0_0cbd8c0218" x="273.50788" y="204.304655" style="fill: #38588c; stroke: #38588c"/>
    </g>
    <g clip-path="url(#p5f20044610)">
     <use xlink:href="#C0_0_0cbd8c0218" x="328.392556" y="183.816238" style="fill: #440154; stroke: #440154"/>
    </g>
    <g clip-path="url(#p5f20044610)">
     <use xlink:href="#C0_0_0cbd8c0218" x="306.855412" y="239.527513" style="fill: #482173; stroke: #482173"/>
    </g>
    <g clip-path="url(#p5f20044610)">
     <use xlink:href="#C0_0_0cbd8c0218" x="294.123296" y="185.589173" style="fill: #433e85; stroke: #433e85"/>
    </g>
    <g clip-path="url(#p5f20044610)">
     <use xlink:href="#C0_0_0cbd8c0218" x="445.902991" y="279.167702" style="fill: #25858e; stroke: #25858e"/>
    </g>
    <g clip-path="url(#p5f20044610)">
     <use xlink:href="#C0_0_0cbd8c0218" x="335.522096" y="202.134615" style="fill: #440154; stroke: #440154"/>
    </g>
    <g clip-path="url(#p5f20044610)">
     <use xlink:href="#C0_0_0cbd8c0218" x="622.636364" y="55.8" style="fill: #2ab07f; stroke: #2ab07f"/>
    </g>
    <g clip-path="url(#p5f20044610)">
     <use xlink:href="#C0_0_0cbd8c0218" x="346.221892" y="202.385917" style="fill: #433e85; stroke: #433e85"/>
    </g>
    <g clip-path="url(#p5f20044610)">
     <use xlink:href="#C0_0_0cbd8c0218" x="368.116937" y="253.779822" style="fill: #440154; stroke: #440154"/>
    </g>
    <g clip-path="url(#p5f20044610)">
     <use xlink:href="#C0_0_0cbd8c0218" x="391.855129" y="156.093608" style="fill: #440154; stroke: #440154"/>
    </g>
    <g clip-path="url(#p5f20044610)">
     <use xlink:href="#C0_0_0cbd8c0218" x="201.583937" y="250.359842" style="fill: #c2df23; stroke: #c2df23"/>
    </g>
    <g clip-path="url(#p5f20044610)">
     <use xlink:href="#C0_0_0cbd8c0218" x="396.118087" y="245.515254" style="fill: #440154; stroke: #440154"/>
    </g>
    <g clip-path="url(#p5f20044610)">
     <use xlink:href="#C0_0_0cbd8c0218" x="422.588216" y="210.336392" style="fill: #440154; stroke: #440154"/>
    </g>
    <g clip-path="url(#p5f20044610)">
     <use xlink:href="#C0_0_0cbd8c0218" x="320.388251" y="227.636105" style="fill: #440154; stroke: #440154"/>
    </g>
    <g clip-path="url(#p5f20044610)">
     <use xlink:href="#C0_0_0cbd8c0218" x="282.427315" y="196.674986" style="fill: #440154; stroke: #440154"/>
    </g>
    <g clip-path="url(#p5f20044610)">
     <use xlink:href="#C0_0_0cbd8c0218" x="459.851402" y="241.764064" style="fill: #52c569; stroke: #52c569"/>
    </g>
    <g clip-path="url(#p5f20044610)">
     <use xlink:href="#C0_0_0cbd8c0218" x="415.386634" y="206.292057" style="fill: #440154; stroke: #440154"/>
    </g>
    <g clip-path="url(#p5f20044610)">
     <use xlink:href="#C0_0_0cbd8c0218" x="248.175798" y="227.253627" style="fill: #86d549; stroke: #86d549"/>
    </g>
    <g clip-path="url(#p5f20044610)">
     <use xlink:href="#C0_0_0cbd8c0218" x="270.867222" y="197.558167" style="fill: #440154; stroke: #440154"/>
    </g>
    <g clip-path="url(#p5f20044610)">
     <use xlink:href="#C0_0_0cbd8c0218" x="325.714918" y="225.465142" style="fill: #440154; stroke: #440154"/>
    </g>
    <g clip-path="url(#p5f20044610)">
     <use xlink:href="#C0_0_0cbd8c0218" x="416.04956" y="170.639229" style="fill: #440154; stroke: #440154"/>
    </g>
    <g clip-path="url(#p5f20044610)">
     <use xlink:href="#C0_0_0cbd8c0218" x="376.759469" y="268.802178" style="fill: #86d549; stroke: #86d549"/>
    </g>
    <g clip-path="url(#p5f20044610)">
     <use xlink:href="#C0_0_0cbd8c0218" x="240.421301" y="218.078469" style="fill: #2ab07f; stroke: #2ab07f"/>
    </g>
    <g clip-path="url(#p5f20044610)">
     <use xlink:href="#C0_0_0cbd8c0218" x="468.460676" y="228.898156" style="fill: #440154; stroke: #440154"/>
    </g>
    <g clip-path="url(#p5f20044610)">
     <use xlink:href="#C0_0_0cbd8c0218" x="332.766197" y="194.375057" style="fill: #440154; stroke: #440154"/>
    </g>
    <g clip-path="url(#p5f20044610)">
     <use xlink:href="#C0_0_0cbd8c0218" x="233.917038" y="184.39078" style="fill: #440154; stroke: #440154"/>
    </g>
   </g>
   <g id="matplotlib.axis_1">
    <g id="xtick_1">
     <g id="line2d_1">
      <defs>
       <path id="m92ac1c5337" d="M 0 0 
L 0 3.5 
" style="stroke: #000000; stroke-width: 0.8"/>
      </defs>
      <g>
       <use xlink:href="#m92ac1c5337" x="114.375999" y="320.4" style="stroke: #000000; stroke-width: 0.8"/>
      </g>
     </g>
     <g id="text_1">
      <!-- −1.5 -->
      <g transform="translate(102.234593 334.998438) scale(0.1 -0.1)">
       <defs>
        <path id="DejaVuSans-2212" d="M 678 2272 
L 4684 2272 
L 4684 1741 
L 678 1741 
L 678 2272 
z
" transform="scale(0.015625)"/>
        <path id="DejaVuSans-31" d="M 794 531 
L 1825 531 
L 1825 4091 
L 703 3866 
L 703 4441 
L 1819 4666 
L 2450 4666 
L 2450 531 
L 3481 531 
L 3481 0 
L 794 0 
L 794 531 
z
" transform="scale(0.015625)"/>
        <path id="DejaVuSans-2e" d="M 684 794 
L 1344 794 
L 1344 0 
L 684 0 
L 684 794 
z
" transform="scale(0.015625)"/>
        <path id="DejaVuSans-35" d="M 691 4666 
L 3169 4666 
L 3169 4134 
L 1269 4134 
L 1269 2991 
Q 1406 3038 1543 3061 
Q 1681 3084 1819 3084 
Q 2600 3084 3056 2656 
Q 3513 2228 3513 1497 
Q 3513 744 3044 326 
Q 2575 -91 1722 -91 
Q 1428 -91 1123 -41 
Q 819 9 494 109 
L 494 744 
Q 775 591 1075 516 
Q 1375 441 1709 441 
Q 2250 441 2565 725 
Q 2881 1009 2881 1497 
Q 2881 1984 2565 2268 
Q 2250 2553 1709 2553 
Q 1456 2553 1204 2497 
Q 953 2441 691 2322 
L 691 4666 
z
" transform="scale(0.015625)"/>
       </defs>
       <use xlink:href="#DejaVuSans-2212"/>
       <use xlink:href="#DejaVuSans-31" x="83.789062"/>
       <use xlink:href="#DejaVuSans-2e" x="147.412109"/>
       <use xlink:href="#DejaVuSans-35" x="179.199219"/>
      </g>
     </g>
    </g>
    <g id="xtick_2">
     <g id="line2d_2">
      <g>
       <use xlink:href="#m92ac1c5337" x="178.304667" y="320.4" style="stroke: #000000; stroke-width: 0.8"/>
      </g>
     </g>
     <g id="text_2">
      <!-- −1.0 -->
      <g transform="translate(166.163261 334.998438) scale(0.1 -0.1)">
       <defs>
        <path id="DejaVuSans-30" d="M 2034 4250 
Q 1547 4250 1301 3770 
Q 1056 3291 1056 2328 
Q 1056 1369 1301 889 
Q 1547 409 2034 409 
Q 2525 409 2770 889 
Q 3016 1369 3016 2328 
Q 3016 3291 2770 3770 
Q 2525 4250 2034 4250 
z
M 2034 4750 
Q 2819 4750 3233 4129 
Q 3647 3509 3647 2328 
Q 3647 1150 3233 529 
Q 2819 -91 2034 -91 
Q 1250 -91 836 529 
Q 422 1150 422 2328 
Q 422 3509 836 4129 
Q 1250 4750 2034 4750 
z
" transform="scale(0.015625)"/>
       </defs>
       <use xlink:href="#DejaVuSans-2212"/>
       <use xlink:href="#DejaVuSans-31" x="83.789062"/>
       <use xlink:href="#DejaVuSans-2e" x="147.412109"/>
       <use xlink:href="#DejaVuSans-30" x="179.199219"/>
      </g>
     </g>
    </g>
    <g id="xtick_3">
     <g id="line2d_3">
      <g>
       <use xlink:href="#m92ac1c5337" x="242.233335" y="320.4" style="stroke: #000000; stroke-width: 0.8"/>
      </g>
     </g>
     <g id="text_3">
      <!-- −0.5 -->
      <g transform="translate(230.091929 334.998438) scale(0.1 -0.1)">
       <use xlink:href="#DejaVuSans-2212"/>
       <use xlink:href="#DejaVuSans-30" x="83.789062"/>
       <use xlink:href="#DejaVuSans-2e" x="147.412109"/>
       <use xlink:href="#DejaVuSans-35" x="179.199219"/>
      </g>
     </g>
    </g>
    <g id="xtick_4">
     <g id="line2d_4">
      <g>
       <use xlink:href="#m92ac1c5337" x="306.162003" y="320.4" style="stroke: #000000; stroke-width: 0.8"/>
      </g>
     </g>
     <g id="text_4">
      <!-- 0.0 -->
      <g transform="translate(298.210441 334.998438) scale(0.1 -0.1)">
       <use xlink:href="#DejaVuSans-30"/>
       <use xlink:href="#DejaVuSans-2e" x="63.623047"/>
       <use xlink:href="#DejaVuSans-30" x="95.410156"/>
      </g>
     </g>
    </g>
    <g id="xtick_5">
     <g id="line2d_5">
      <g>
       <use xlink:href="#m92ac1c5337" x="370.090671" y="320.4" style="stroke: #000000; stroke-width: 0.8"/>
      </g>
     </g>
     <g id="text_5">
      <!-- 0.5 -->
      <g transform="translate(362.139109 334.998438) scale(0.1 -0.1)">
       <use xlink:href="#DejaVuSans-30"/>
       <use xlink:href="#DejaVuSans-2e" x="63.623047"/>
       <use xlink:href="#DejaVuSans-35" x="95.410156"/>
      </g>
     </g>
    </g>
    <g id="xtick_6">
     <g id="line2d_6">
      <g>
       <use xlink:href="#m92ac1c5337" x="434.019339" y="320.4" style="stroke: #000000; stroke-width: 0.8"/>
      </g>
     </g>
     <g id="text_6">
      <!-- 1.0 -->
      <g transform="translate(426.067777 334.998438) scale(0.1 -0.1)">
       <use xlink:href="#DejaVuSans-31"/>
       <use xlink:href="#DejaVuSans-2e" x="63.623047"/>
       <use xlink:href="#DejaVuSans-30" x="95.410156"/>
      </g>
     </g>
    </g>
    <g id="xtick_7">
     <g id="line2d_7">
      <g>
       <use xlink:href="#m92ac1c5337" x="497.948007" y="320.4" style="stroke: #000000; stroke-width: 0.8"/>
      </g>
     </g>
     <g id="text_7">
      <!-- 1.5 -->
      <g transform="translate(489.996445 334.998438) scale(0.1 -0.1)">
       <use xlink:href="#DejaVuSans-31"/>
       <use xlink:href="#DejaVuSans-2e" x="63.623047"/>
       <use xlink:href="#DejaVuSans-35" x="95.410156"/>
      </g>
     </g>
    </g>
    <g id="xtick_8">
     <g id="line2d_8">
      <g>
       <use xlink:href="#m92ac1c5337" x="561.876676" y="320.4" style="stroke: #000000; stroke-width: 0.8"/>
      </g>
     </g>
     <g id="text_8">
      <!-- 2.0 -->
      <g transform="translate(553.925113 334.998438) scale(0.1 -0.1)">
       <defs>
        <path id="DejaVuSans-32" d="M 1228 531 
L 3431 531 
L 3431 0 
L 469 0 
L 469 531 
Q 828 903 1448 1529 
Q 2069 2156 2228 2338 
Q 2531 2678 2651 2914 
Q 2772 3150 2772 3378 
Q 2772 3750 2511 3984 
Q 2250 4219 1831 4219 
Q 1534 4219 1204 4116 
Q 875 4013 500 3803 
L 500 4441 
Q 881 4594 1212 4672 
Q 1544 4750 1819 4750 
Q 2544 4750 2975 4387 
Q 3406 4025 3406 3419 
Q 3406 3131 3298 2873 
Q 3191 2616 2906 2266 
Q 2828 2175 2409 1742 
Q 1991 1309 1228 531 
z
" transform="scale(0.015625)"/>
       </defs>
       <use xlink:href="#DejaVuSans-32"/>
       <use xlink:href="#DejaVuSans-2e" x="63.623047"/>
       <use xlink:href="#DejaVuSans-30" x="95.410156"/>
      </g>
     </g>
    </g>
    <g id="xtick_9">
     <g id="line2d_9">
      <g>
       <use xlink:href="#m92ac1c5337" x="625.805344" y="320.4" style="stroke: #000000; stroke-width: 0.8"/>
      </g>
     </g>
     <g id="text_9">
      <!-- 2.5 -->
      <g transform="translate(617.853781 334.998438) scale(0.1 -0.1)">
       <use xlink:href="#DejaVuSans-32"/>
       <use xlink:href="#DejaVuSans-2e" x="63.623047"/>
       <use xlink:href="#DejaVuSans-35" x="95.410156"/>
      </g>
     </g>
    </g>
   </g>
   <g id="matplotlib.axis_2">
    <g id="ytick_1">
     <g id="line2d_10">
      <defs>
       <path id="md56f5f4503" d="M 0 0 
L -3.5 0 
" style="stroke: #000000; stroke-width: 0.8"/>
      </defs>
      <g>
       <use xlink:href="#md56f5f4503" x="90" y="313.458545" style="stroke: #000000; stroke-width: 0.8"/>
      </g>
     </g>
     <g id="text_10">
      <!-- 1.0 -->
      <g transform="translate(67.096875 317.257764) scale(0.1 -0.1)">
       <use xlink:href="#DejaVuSans-31"/>
       <use xlink:href="#DejaVuSans-2e" x="63.623047"/>
       <use xlink:href="#DejaVuSans-30" x="95.410156"/>
      </g>
     </g>
    </g>
    <g id="ytick_2">
     <g id="line2d_11">
      <g>
       <use xlink:href="#md56f5f4503" x="90" y="266.534145" style="stroke: #000000; stroke-width: 0.8"/>
      </g>
     </g>
     <g id="text_11">
      <!-- 1.2 -->
      <g transform="translate(67.096875 270.333363) scale(0.1 -0.1)">
       <use xlink:href="#DejaVuSans-31"/>
       <use xlink:href="#DejaVuSans-2e" x="63.623047"/>
       <use xlink:href="#DejaVuSans-32" x="95.410156"/>
      </g>
     </g>
    </g>
    <g id="ytick_3">
     <g id="line2d_12">
      <g>
       <use xlink:href="#md56f5f4503" x="90" y="219.609744" style="stroke: #000000; stroke-width: 0.8"/>
      </g>
     </g>
     <g id="text_12">
      <!-- 1.4 -->
      <g transform="translate(67.096875 223.408963) scale(0.1 -0.1)">
       <defs>
        <path id="DejaVuSans-34" d="M 2419 4116 
L 825 1625 
L 2419 1625 
L 2419 4116 
z
M 2253 4666 
L 3047 4666 
L 3047 1625 
L 3713 1625 
L 3713 1100 
L 3047 1100 
L 3047 0 
L 2419 0 
L 2419 1100 
L 313 1100 
L 313 1709 
L 2253 4666 
z
" transform="scale(0.015625)"/>
       </defs>
       <use xlink:href="#DejaVuSans-31"/>
       <use xlink:href="#DejaVuSans-2e" x="63.623047"/>
       <use xlink:href="#DejaVuSans-34" x="95.410156"/>
      </g>
     </g>
    </g>
    <g id="ytick_4">
     <g id="line2d_13">
      <g>
       <use xlink:href="#md56f5f4503" x="90" y="172.685344" style="stroke: #000000; stroke-width: 0.8"/>
      </g>
     </g>
     <g id="text_13">
      <!-- 1.6 -->
      <g transform="translate(67.096875 176.484563) scale(0.1 -0.1)">
       <defs>
        <path id="DejaVuSans-36" d="M 2113 2584 
Q 1688 2584 1439 2293 
Q 1191 2003 1191 1497 
Q 1191 994 1439 701 
Q 1688 409 2113 409 
Q 2538 409 2786 701 
Q 3034 994 3034 1497 
Q 3034 2003 2786 2293 
Q 2538 2584 2113 2584 
z
M 3366 4563 
L 3366 3988 
Q 3128 4100 2886 4159 
Q 2644 4219 2406 4219 
Q 1781 4219 1451 3797 
Q 1122 3375 1075 2522 
Q 1259 2794 1537 2939 
Q 1816 3084 2150 3084 
Q 2853 3084 3261 2657 
Q 3669 2231 3669 1497 
Q 3669 778 3244 343 
Q 2819 -91 2113 -91 
Q 1303 -91 875 529 
Q 447 1150 447 2328 
Q 447 3434 972 4092 
Q 1497 4750 2381 4750 
Q 2619 4750 2861 4703 
Q 3103 4656 3366 4563 
z
" transform="scale(0.015625)"/>
       </defs>
       <use xlink:href="#DejaVuSans-31"/>
       <use xlink:href="#DejaVuSans-2e" x="63.623047"/>
       <use xlink:href="#DejaVuSans-36" x="95.410156"/>
      </g>
     </g>
    </g>
    <g id="ytick_5">
     <g id="line2d_14">
      <g>
       <use xlink:href="#md56f5f4503" x="90" y="125.760944" style="stroke: #000000; stroke-width: 0.8"/>
      </g>
     </g>
     <g id="text_14">
      <!-- 1.8 -->
      <g transform="translate(67.096875 129.560163) scale(0.1 -0.1)">
       <defs>
        <path id="DejaVuSans-38" d="M 2034 2216 
Q 1584 2216 1326 1975 
Q 1069 1734 1069 1313 
Q 1069 891 1326 650 
Q 1584 409 2034 409 
Q 2484 409 2743 651 
Q 3003 894 3003 1313 
Q 3003 1734 2745 1975 
Q 2488 2216 2034 2216 
z
M 1403 2484 
Q 997 2584 770 2862 
Q 544 3141 544 3541 
Q 544 4100 942 4425 
Q 1341 4750 2034 4750 
Q 2731 4750 3128 4425 
Q 3525 4100 3525 3541 
Q 3525 3141 3298 2862 
Q 3072 2584 2669 2484 
Q 3125 2378 3379 2068 
Q 3634 1759 3634 1313 
Q 3634 634 3220 271 
Q 2806 -91 2034 -91 
Q 1263 -91 848 271 
Q 434 634 434 1313 
Q 434 1759 690 2068 
Q 947 2378 1403 2484 
z
M 1172 3481 
Q 1172 3119 1398 2916 
Q 1625 2713 2034 2713 
Q 2441 2713 2670 2916 
Q 2900 3119 2900 3481 
Q 2900 3844 2670 4047 
Q 2441 4250 2034 4250 
Q 1625 4250 1398 4047 
Q 1172 3844 1172 3481 
z
" transform="scale(0.015625)"/>
       </defs>
       <use xlink:href="#DejaVuSans-31"/>
       <use xlink:href="#DejaVuSans-2e" x="63.623047"/>
       <use xlink:href="#DejaVuSans-38" x="95.410156"/>
      </g>
     </g>
    </g>
    <g id="ytick_6">
     <g id="line2d_15">
      <g>
       <use xlink:href="#md56f5f4503" x="90" y="78.836544" style="stroke: #000000; stroke-width: 0.8"/>
      </g>
     </g>
     <g id="text_15">
      <!-- 2.0 -->
      <g transform="translate(67.096875 82.635762) scale(0.1 -0.1)">
       <use xlink:href="#DejaVuSans-32"/>
       <use xlink:href="#DejaVuSans-2e" x="63.623047"/>
       <use xlink:href="#DejaVuSans-30" x="95.410156"/>
      </g>
     </g>
    </g>
   </g>
   <g id="patch_3">
    <path d="M 90 320.4 
L 90 43.2 
" style="fill: none; stroke: #000000; stroke-width: 0.8; stroke-linejoin: miter; stroke-linecap: square"/>
   </g>
   <g id="patch_4">
    <path d="M 648 320.4 
L 648 43.2 
" style="fill: none; stroke: #000000; stroke-width: 0.8; stroke-linejoin: miter; stroke-linecap: square"/>
   </g>
   <g id="patch_5">
    <path d="M 90 320.4 
L 648 320.4 
" style="fill: none; stroke: #000000; stroke-width: 0.8; stroke-linejoin: miter; stroke-linecap: square"/>
   </g>
   <g id="patch_6">
    <path d="M 90 43.2 
L 648 43.2 
" style="fill: none; stroke: #000000; stroke-width: 0.8; stroke-linejoin: miter; stroke-linecap: square"/>
   </g>
  </g>
 </g>
 <defs>
  <clipPath id="p5f20044610">
   <rect x="90" y="43.2" width="558" height="277.2"/>
  </clipPath>
 </defs>
</svg>
