<?xml version="1.0" encoding="utf-8" standalone="no"?>
<!DOCTYPE svg PUBLIC "-//W3C//DTD SVG 1.1//EN"
  "http://www.w3.org/Graphics/SVG/1.1/DTD/svg11.dtd">
<svg xmlns:xlink="http://www.w3.org/1999/xlink" width="720pt" height="360pt" viewBox="0 0 720 360" xmlns="http://www.w3.org/2000/svg" version="1.1">
 <metadata>
  <rdf:RDF xmlns:dc="http://purl.org/dc/elements/1.1/" xmlns:cc="http://creativecommons.org/ns#" xmlns:rdf="http://www.w3.org/1999/02/22-rdf-syntax-ns#">
   <cc:Work>
    <dc:type rdf:resource="http://purl.org/dc/dcmitype/StillImage"/>
    <dc:date>2024-04-07T21:28:32.098142</dc:date>
    <dc:format>image/svg+xml</dc:format>
    <dc:creator>
     <cc:Agent>
      <dc:title>Matplotlib v3.8.3, https://matplotlib.org/</dc:title>
     </cc:Agent>
    </dc:creator>
   </cc:Work>
  </rdf:RDF>
 </metadata>
 <defs>
  <style type="text/css">*{stroke-linejoin: round; stroke-linecap: butt}</style>
 </defs>
 <g id="figure_1">
  <g id="patch_1">
   <path d="M 0 360 
L 720 360 
L 720 0 
L 0 0 
z
" style="fill: #ffffff"/>
  </g>
  <g id="axes_1">
   <g id="patch_2">
    <path d="M 90 320.4 
L 648 320.4 
L 648 43.2 
L 90 43.2 
z
" style="fill: #ffffff"/>
   </g>
   <g id="PathCollection_1">
    <defs>
     <path id="C0_0_cd4f8c746a" d="M 0 3 
C 0.795609 3 1.55874 2.683901 2.12132 2.12132 
C 2.683901 1.55874 3 0.795609 3 -0 
C 3 -0.795609 2.683901 -1.55874 2.12132 -2.12132 
C 1.55874 -2.683901 0.795609 -3 0 -3 
C -0.795609 -3 -1.55874 -2.683901 -2.12132 -2.12132 
C -2.683901 -1.55874 -3 -0.795609 -3 0 
C -3 0.795609 -2.683901 1.55874 -2.12132 2.12132 
C -1.55874 2.683901 -0.795609 3 0 3 
z
"/>
    </defs>
    <g clip-path="url(#pbfe6ea14fd)">
     <use xlink:href="#C0_0_cd4f8c746a" x="263.156191" y="205.924329" style="fill: #440154; stroke: #440154"/>
    </g>
    <g clip-path="url(#pbfe6ea14fd)">
     <use xlink:href="#C0_0_cd4f8c746a" x="474.812021" y="57.705746" style="fill: #440154; stroke: #440154"/>
    </g>
    <g clip-path="url(#pbfe6ea14fd)">
     <use xlink:href="#C0_0_cd4f8c746a" x="325.890931" y="204.956993" style="fill: #440154; stroke: #440154"/>
    </g>
    <g clip-path="url(#pbfe6ea14fd)">
     <use xlink:href="#C0_0_cd4f8c746a" x="416.896194" y="198.434216" style="fill: #fde725; stroke: #fde725"/>
    </g>
    <g clip-path="url(#pbfe6ea14fd)">
     <use xlink:href="#C0_0_cd4f8c746a" x="259.888" y="187.69557" style="fill: #440154; stroke: #440154"/>
    </g>
    <g clip-path="url(#pbfe6ea14fd)">
     <use xlink:href="#C0_0_cd4f8c746a" x="360.576956" y="212.445653" style="fill: #440154; stroke: #440154"/>
    </g>
    <g clip-path="url(#pbfe6ea14fd)">
     <use xlink:href="#C0_0_cd4f8c746a" x="310.290221" y="180.451353" style="fill: #440154; stroke: #440154"/>
    </g>
    <g clip-path="url(#pbfe6ea14fd)">
     <use xlink:href="#C0_0_cd4f8c746a" x="379.341354" y="236.979952" style="fill: #440154; stroke: #440154"/>
    </g>
    <g clip-path="url(#pbfe6ea14fd)">
     <use xlink:href="#C0_0_cd4f8c746a" x="344.063254" y="156.557647" style="fill: #440154; stroke: #440154"/>
    </g>
    <g clip-path="url(#pbfe6ea14fd)">
     <use xlink:href="#C0_0_cd4f8c746a" x="408.765025" y="199.111808" style="fill: #2ab07f; stroke: #2ab07f"/>
    </g>
    <g clip-path="url(#pbfe6ea14fd)">
     <use xlink:href="#C0_0_cd4f8c746a" x="236.308496" y="212.174644" style="fill: #fde725; stroke: #fde725"/>
    </g>
    <g clip-path="url(#pbfe6ea14fd)">
     <use xlink:href="#C0_0_cd4f8c746a" x="291.49423" y="185.052824" style="fill: #433e85; stroke: #433e85"/>
    </g>
    <g clip-path="url(#pbfe6ea14fd)">
     <use xlink:href="#C0_0_cd4f8c746a" x="352.049026" y="132.047848" style="fill: #440154; stroke: #440154"/>
    </g>
    <g clip-path="url(#pbfe6ea14fd)">
     <use xlink:href="#C0_0_cd4f8c746a" x="250.599989" y="141.241073" style="fill: #440154; stroke: #440154"/>
    </g>
    <g clip-path="url(#pbfe6ea14fd)">
     <use xlink:href="#C0_0_cd4f8c746a" x="338.60818" y="108.956314" style="fill: #433e85; stroke: #433e85"/>
    </g>
    <g clip-path="url(#pbfe6ea14fd)">
     <use xlink:href="#C0_0_cd4f8c746a" x="330.58062" y="216.042738" style="fill: #c2df23; stroke: #c2df23"/>
    </g>
    <g clip-path="url(#pbfe6ea14fd)">
     <use xlink:href="#C0_0_cd4f8c746a" x="400.599641" y="99.917056" style="fill: #52c569; stroke: #52c569"/>
    </g>
    <g clip-path="url(#pbfe6ea14fd)">
     <use xlink:href="#C0_0_cd4f8c746a" x="115.363636" y="75.250307" style="fill: #440154; stroke: #440154"/>
    </g>
    <g clip-path="url(#pbfe6ea14fd)">
     <use xlink:href="#C0_0_cd4f8c746a" x="207.991314" y="122.455298" style="fill: #52c569; stroke: #52c569"/>
    </g>
    <g clip-path="url(#pbfe6ea14fd)">
     <use xlink:href="#C0_0_cd4f8c746a" x="290.203849" y="227.29857" style="fill: #440154; stroke: #440154"/>
    </g>
    <g clip-path="url(#pbfe6ea14fd)">
     <use xlink:href="#C0_0_cd4f8c746a" x="460.978149" y="197.262638" style="fill: #440154; stroke: #440154"/>
    </g>
    <g clip-path="url(#pbfe6ea14fd)">
     <use xlink:href="#C0_0_cd4f8c746a" x="429.230441" y="212.004532" style="fill: #2ab07f; stroke: #2ab07f"/>
    </g>
    <g clip-path="url(#pbfe6ea14fd)">
     <use xlink:href="#C0_0_cd4f8c746a" x="453.490667" y="202.265885" style="fill: #433e85; stroke: #433e85"/>
    </g>
    <g clip-path="url(#pbfe6ea14fd)">
     <use xlink:href="#C0_0_cd4f8c746a" x="538.723463" y="217.679669" style="fill: #440154; stroke: #440154"/>
    </g>
    <g clip-path="url(#pbfe6ea14fd)">
     <use xlink:href="#C0_0_cd4f8c746a" x="434.726455" y="169.596212" style="fill: #433e85; stroke: #433e85"/>
    </g>
    <g clip-path="url(#pbfe6ea14fd)">
     <use xlink:href="#C0_0_cd4f8c746a" x="343.402922" y="162.181118" style="fill: #440154; stroke: #440154"/>
    </g>
    <g clip-path="url(#pbfe6ea14fd)">
     <use xlink:href="#C0_0_cd4f8c746a" x="557.050994" y="55.8" style="fill: #440154; stroke: #440154"/>
    </g>
    <g clip-path="url(#pbfe6ea14fd)">
     <use xlink:href="#C0_0_cd4f8c746a" x="391.242851" y="157.809702" style="fill: #440154; stroke: #440154"/>
    </g>
    <g clip-path="url(#pbfe6ea14fd)">
     <use xlink:href="#C0_0_cd4f8c746a" x="368.039571" y="209.148336" style="fill: #fde725; stroke: #fde725"/>
    </g>
    <g clip-path="url(#pbfe6ea14fd)">
     <use xlink:href="#C0_0_cd4f8c746a" x="240.136362" y="222.395505" style="fill: #2ab07f; stroke: #2ab07f"/>
    </g>
    <g clip-path="url(#pbfe6ea14fd)">
     <use xlink:href="#C0_0_cd4f8c746a" x="374.185986" y="161.600022" style="fill: #440154; stroke: #440154"/>
    </g>
    <g clip-path="url(#pbfe6ea14fd)">
     <use xlink:href="#C0_0_cd4f8c746a" x="502.720721" y="224.573102" style="fill: #fde725; stroke: #fde725"/>
    </g>
    <g clip-path="url(#pbfe6ea14fd)">
     <use xlink:href="#C0_0_cd4f8c746a" x="392.736121" y="173.328273" style="fill: #440154; stroke: #440154"/>
    </g>
    <g clip-path="url(#pbfe6ea14fd)">
     <use xlink:href="#C0_0_cd4f8c746a" x="376.210158" y="196.506686" style="fill: #440154; stroke: #440154"/>
    </g>
    <g clip-path="url(#pbfe6ea14fd)">
     <use xlink:href="#C0_0_cd4f8c746a" x="396.762699" y="172.55069" style="fill: #440154; stroke: #440154"/>
    </g>
    <g clip-path="url(#pbfe6ea14fd)">
     <use xlink:href="#C0_0_cd4f8c746a" x="380.00812" y="232.2784" style="fill: #440154; stroke: #440154"/>
    </g>
    <g clip-path="url(#pbfe6ea14fd)">
     <use xlink:href="#C0_0_cd4f8c746a" x="246.075558" y="191.423141" style="fill: #440154; stroke: #440154"/>
    </g>
    <g clip-path="url(#pbfe6ea14fd)">
     <use xlink:href="#C0_0_cd4f8c746a" x="359.052504" y="159.349996" style="fill: #433e85; stroke: #433e85"/>
    </g>
    <g clip-path="url(#pbfe6ea14fd)">
     <use xlink:href="#C0_0_cd4f8c746a" x="275.740934" y="228.140815" style="fill: #440154; stroke: #440154"/>
    </g>
    <g clip-path="url(#pbfe6ea14fd)">
     <use xlink:href="#C0_0_cd4f8c746a" x="182.356022" y="133.836794" style="fill: #440154; stroke: #440154"/>
    </g>
    <g clip-path="url(#pbfe6ea14fd)">
     <use xlink:href="#C0_0_cd4f8c746a" x="354.609239" y="258.90191" style="fill: #1e9b8a; stroke: #1e9b8a"/>
    </g>
    <g clip-path="url(#pbfe6ea14fd)">
     <use xlink:href="#C0_0_cd4f8c746a" x="413.391251" y="75.838978" style="fill: #440154; stroke: #440154"/>
    </g>
    <g clip-path="url(#pbfe6ea14fd)">
     <use xlink:href="#C0_0_cd4f8c746a" x="312.64021" y="198.310426" style="fill: #86d549; stroke: #86d549"/>
    </g>
    <g clip-path="url(#pbfe6ea14fd)">
     <use xlink:href="#C0_0_cd4f8c746a" x="274.037195" y="261.265446" style="fill: #86d549; stroke: #86d549"/>
    </g>
    <g clip-path="url(#pbfe6ea14fd)">
     <use xlink:href="#C0_0_cd4f8c746a" x="285.630043" y="307.8" style="fill: #52c569; stroke: #52c569"/>
    </g>
    <g clip-path="url(#pbfe6ea14fd)">
     <use xlink:href="#C0_0_cd4f8c746a" x="417.461364" y="273.959502" style="fill: #440154; stroke: #440154"/>
    </g>
    <g clip-path="url(#pbfe6ea14fd)">
     <use xlink:href="#C0_0_cd4f8c746a" x="425.406395" y="219.568873" style="fill: #440154; stroke: #440154"/>
    </g>
    <g clip-path="url(#pbfe6ea14fd)">
     <use xlink:href="#C0_0_cd4f8c746a" x="415.082497" y="110.629913" style="fill: #433e85; stroke: #433e85"/>
    </g>
    <g clip-path="url(#pbfe6ea14fd)">
     <use xlink:href="#C0_0_cd4f8c746a" x="276.656706" y="189.831193" style="fill: #440154; stroke: #440154"/>
    </g>
    <g clip-path="url(#pbfe6ea14fd)">
     <use xlink:href="#C0_0_cd4f8c746a" x="335.653154" y="220.773752" style="fill: #440154; stroke: #440154"/>
    </g>
    <g clip-path="url(#pbfe6ea14fd)">
     <use xlink:href="#C0_0_cd4f8c746a" x="262.646308" y="155.58452" style="fill: #440154; stroke: #440154"/>
    </g>
    <g clip-path="url(#pbfe6ea14fd)">
     <use xlink:href="#C0_0_cd4f8c746a" x="216.983334" y="214.933566" style="fill: #440154; stroke: #440154"/>
    </g>
    <g clip-path="url(#pbfe6ea14fd)">
     <use xlink:href="#C0_0_cd4f8c746a" x="240.471433" y="216.416735" style="fill: #86d549; stroke: #86d549"/>
    </g>
    <g clip-path="url(#pbfe6ea14fd)">
     <use xlink:href="#C0_0_cd4f8c746a" x="622.636364" y="185.835279" style="fill: #440154; stroke: #440154"/>
    </g>
    <g clip-path="url(#pbfe6ea14fd)">
     <use xlink:href="#C0_0_cd4f8c746a" x="420.182294" y="210.494975" style="fill: #440154; stroke: #440154"/>
    </g>
    <g clip-path="url(#pbfe6ea14fd)">
     <use xlink:href="#C0_0_cd4f8c746a" x="363.784603" y="197.559091" style="fill: #2ab07f; stroke: #2ab07f"/>
    </g>
    <g clip-path="url(#pbfe6ea14fd)">
     <use xlink:href="#C0_0_cd4f8c746a" x="270.468166" y="220.910321" style="fill: #440154; stroke: #440154"/>
    </g>
    <g clip-path="url(#pbfe6ea14fd)">
     <use xlink:href="#C0_0_cd4f8c746a" x="318.709669" y="210.41701" style="fill: #440154; stroke: #440154"/>
    </g>
    <g clip-path="url(#pbfe6ea14fd)">
     <use xlink:href="#C0_0_cd4f8c746a" x="417.350195" y="123.753369" style="fill: #440154; stroke: #440154"/>
    </g>
    <g clip-path="url(#pbfe6ea14fd)">
     <use xlink:href="#C0_0_cd4f8c746a" x="470.746754" y="135.197614" style="fill: #440154; stroke: #440154"/>
    </g>
    <g clip-path="url(#pbfe6ea14fd)">
     <use xlink:href="#C0_0_cd4f8c746a" x="358.99872" y="141.429525" style="fill: #440154; stroke: #440154"/>
    </g>
    <g clip-path="url(#pbfe6ea14fd)">
     <use xlink:href="#C0_0_cd4f8c746a" x="326.873636" y="199.384946" style="fill: #440154; stroke: #440154"/>
    </g>
    <g clip-path="url(#pbfe6ea14fd)">
     <use xlink:href="#C0_0_cd4f8c746a" x="310.689232" y="223.48394" style="fill: #433e85; stroke: #433e85"/>
    </g>
    <g clip-path="url(#pbfe6ea14fd)">
     <use xlink:href="#C0_0_cd4f8c746a" x="375.815781" y="188.888676" style="fill: #86d549; stroke: #86d549"/>
    </g>
    <g clip-path="url(#pbfe6ea14fd)">
     <use xlink:href="#C0_0_cd4f8c746a" x="246.975415" y="251.275776" style="fill: #52c569; stroke: #52c569"/>
    </g>
    <g clip-path="url(#pbfe6ea14fd)">
     <use xlink:href="#C0_0_cd4f8c746a" x="359.542969" y="231.6701" style="fill: #86d549; stroke: #86d549"/>
    </g>
    <g clip-path="url(#pbfe6ea14fd)">
     <use xlink:href="#C0_0_cd4f8c746a" x="298.967293" y="258.843357" style="fill: #440154; stroke: #440154"/>
    </g>
    <g clip-path="url(#pbfe6ea14fd)">
     <use xlink:href="#C0_0_cd4f8c746a" x="343.491675" y="154.018336" style="fill: #440154; stroke: #440154"/>
    </g>
    <g clip-path="url(#pbfe6ea14fd)">
     <use xlink:href="#C0_0_cd4f8c746a" x="298.991788" y="206.042354" style="fill: #440154; stroke: #440154"/>
    </g>
    <g clip-path="url(#pbfe6ea14fd)">
     <use xlink:href="#C0_0_cd4f8c746a" x="377.31632" y="116.162091" style="fill: #1e9b8a; stroke: #1e9b8a"/>
    </g>
    <g clip-path="url(#pbfe6ea14fd)">
     <use xlink:href="#C0_0_cd4f8c746a" x="345.822531" y="199.898344" style="fill: #440154; stroke: #440154"/>
    </g>
    <g clip-path="url(#pbfe6ea14fd)">
     <use xlink:href="#C0_0_cd4f8c746a" x="343.928303" y="175.216928" style="fill: #440154; stroke: #440154"/>
    </g>
    <g clip-path="url(#pbfe6ea14fd)">
     <use xlink:href="#C0_0_cd4f8c746a" x="256.810807" y="266.538758" style="fill: #440154; stroke: #440154"/>
    </g>
    <g clip-path="url(#pbfe6ea14fd)">
     <use xlink:href="#C0_0_cd4f8c746a" x="304.346999" y="165.895629" style="fill: #440154; stroke: #440154"/>
    </g>
    <g clip-path="url(#pbfe6ea14fd)">
     <use xlink:href="#C0_0_cd4f8c746a" x="305.441946" y="226.961406" style="fill: #86d549; stroke: #86d549"/>
    </g>
    <g clip-path="url(#pbfe6ea14fd)">
     <use xlink:href="#C0_0_cd4f8c746a" x="458.016634" y="157.95928" style="fill: #440154; stroke: #440154"/>
    </g>
    <g clip-path="url(#pbfe6ea14fd)">
     <use xlink:href="#C0_0_cd4f8c746a" x="319.724694" y="263.67144" style="fill: #433e85; stroke: #433e85"/>
    </g>
    <g clip-path="url(#pbfe6ea14fd)">
     <use xlink:href="#C0_0_cd4f8c746a" x="395.239346" y="216.228857" style="fill: #c2df23; stroke: #c2df23"/>
    </g>
    <g clip-path="url(#pbfe6ea14fd)">
     <use xlink:href="#C0_0_cd4f8c746a" x="213.088548" y="209.124053" style="fill: #440154; stroke: #440154"/>
    </g>
    <g clip-path="url(#pbfe6ea14fd)">
     <use xlink:href="#C0_0_cd4f8c746a" x="303.764961" y="226.879207" style="fill: #440154; stroke: #440154"/>
    </g>
    <g clip-path="url(#pbfe6ea14fd)">
     <use xlink:href="#C0_0_cd4f8c746a" x="325.936757" y="228.590851" style="fill: #440154; stroke: #440154"/>
    </g>
    <g clip-path="url(#pbfe6ea14fd)">
     <use xlink:href="#C0_0_cd4f8c746a" x="331.441867" y="222.990681" style="fill: #440154; stroke: #440154"/>
    </g>
    <g clip-path="url(#pbfe6ea14fd)">
     <use xlink:href="#C0_0_cd4f8c746a" x="449.337746" y="185.851069" style="fill: #440154; stroke: #440154"/>
    </g>
    <g clip-path="url(#pbfe6ea14fd)">
     <use xlink:href="#C0_0_cd4f8c746a" x="336.196595" y="158.639474" style="fill: #440154; stroke: #440154"/>
    </g>
    <g clip-path="url(#pbfe6ea14fd)">
     <use xlink:href="#C0_0_cd4f8c746a" x="361.047123" y="183.933767" style="fill: #440154; stroke: #440154"/>
    </g>
    <g clip-path="url(#pbfe6ea14fd)">
     <use xlink:href="#C0_0_cd4f8c746a" x="343.252666" y="234.01184" style="fill: #440154; stroke: #440154"/>
    </g>
    <g clip-path="url(#pbfe6ea14fd)">
     <use xlink:href="#C0_0_cd4f8c746a" x="294.549291" y="180.033049" style="fill: #86d549; stroke: #86d549"/>
    </g>
    <g clip-path="url(#pbfe6ea14fd)">
     <use xlink:href="#C0_0_cd4f8c746a" x="471.177609" y="251.512107" style="fill: #440154; stroke: #440154"/>
    </g>
    <g clip-path="url(#pbfe6ea14fd)">
     <use xlink:href="#C0_0_cd4f8c746a" x="315.762918" y="216.282194" style="fill: #440154; stroke: #440154"/>
    </g>
    <g clip-path="url(#pbfe6ea14fd)">
     <use xlink:href="#C0_0_cd4f8c746a" x="409.041413" y="88.061699" style="fill: #52c569; stroke: #52c569"/>
    </g>
    <g clip-path="url(#pbfe6ea14fd)">
     <use xlink:href="#C0_0_cd4f8c746a" x="282.298117" y="167.35343" style="fill: #440154; stroke: #440154"/>
    </g>
    <g clip-path="url(#pbfe6ea14fd)">
     <use xlink:href="#C0_0_cd4f8c746a" x="396.251419" y="196.253878" style="fill: #440154; stroke: #440154"/>
    </g>
    <g clip-path="url(#pbfe6ea14fd)">
     <use xlink:href="#C0_0_cd4f8c746a" x="370.806698" y="233.073009" style="fill: #440154; stroke: #440154"/>
    </g>
    <g clip-path="url(#pbfe6ea14fd)">
     <use xlink:href="#C0_0_cd4f8c746a" x="315.668723" y="288.566842" style="fill: #fde725; stroke: #fde725"/>
    </g>
    <g clip-path="url(#pbfe6ea14fd)">
     <use xlink:href="#C0_0_cd4f8c746a" x="348.315904" y="158.953017" style="fill: #440154; stroke: #440154"/>
    </g>
    <g clip-path="url(#pbfe6ea14fd)">
     <use xlink:href="#C0_0_cd4f8c746a" x="308.052196" y="176.253773" style="fill: #440154; stroke: #440154"/>
    </g>
    <g clip-path="url(#pbfe6ea14fd)">
     <use xlink:href="#C0_0_cd4f8c746a" x="391.996888" y="188.77412" style="fill: #86d549; stroke: #86d549"/>
    </g>
    <g clip-path="url(#pbfe6ea14fd)">
     <use xlink:href="#C0_0_cd4f8c746a" x="319.20167" y="251.003645" style="fill: #2ab07f; stroke: #2ab07f"/>
    </g>
    <g clip-path="url(#pbfe6ea14fd)">
     <use xlink:href="#C0_0_cd4f8c746a" x="503.839965" y="121.475616" style="fill: #440154; stroke: #440154"/>
    </g>
    <g clip-path="url(#pbfe6ea14fd)">
     <use xlink:href="#C0_0_cd4f8c746a" x="337.425539" y="189.172936" style="fill: #440154; stroke: #440154"/>
    </g>
    <g clip-path="url(#pbfe6ea14fd)">
     <use xlink:href="#C0_0_cd4f8c746a" x="384.069574" y="199.875055" style="fill: #2ab07f; stroke: #2ab07f"/>
    </g>
    <g clip-path="url(#pbfe6ea14fd)">
     <use xlink:href="#C0_0_cd4f8c746a" x="418.890337" y="198.854841" style="fill: #86d549; stroke: #86d549"/>
    </g>
    <g clip-path="url(#pbfe6ea14fd)">
     <use xlink:href="#C0_0_cd4f8c746a" x="362.223236" y="201.971906" style="fill: #433e85; stroke: #433e85"/>
    </g>
    <g clip-path="url(#pbfe6ea14fd)">
     <use xlink:href="#C0_0_cd4f8c746a" x="345.793825" y="194.956801" style="fill: #440154; stroke: #440154"/>
    </g>
    <g clip-path="url(#pbfe6ea14fd)">
     <use xlink:href="#C0_0_cd4f8c746a" x="344.341985" y="194.092313" style="fill: #440154; stroke: #440154"/>
    </g>
    <g clip-path="url(#pbfe6ea14fd)">
     <use xlink:href="#C0_0_cd4f8c746a" x="259.68331" y="226.992245" style="fill: #440154; stroke: #440154"/>
    </g>
    <g clip-path="url(#pbfe6ea14fd)">
     <use xlink:href="#C0_0_cd4f8c746a" x="304.514085" y="242.628254" style="fill: #440154; stroke: #440154"/>
    </g>
    <g clip-path="url(#pbfe6ea14fd)">
     <use xlink:href="#C0_0_cd4f8c746a" x="283.189302" y="145.94325" style="fill: #fde725; stroke: #fde725"/>
    </g>
    <g clip-path="url(#pbfe6ea14fd)">
     <use xlink:href="#C0_0_cd4f8c746a" x="115.732214" y="77.765411" style="fill: #440154; stroke: #440154"/>
    </g>
    <g clip-path="url(#pbfe6ea14fd)">
     <use xlink:href="#C0_0_cd4f8c746a" x="380.840728" y="155.864929" style="fill: #86d549; stroke: #86d549"/>
    </g>
    <g clip-path="url(#pbfe6ea14fd)">
     <use xlink:href="#C0_0_cd4f8c746a" x="466.7912" y="243.286396" style="fill: #440154; stroke: #440154"/>
    </g>
    <g clip-path="url(#pbfe6ea14fd)">
     <use xlink:href="#C0_0_cd4f8c746a" x="225.604866" y="289.723051" style="fill: #440154; stroke: #440154"/>
    </g>
    <g clip-path="url(#pbfe6ea14fd)">
     <use xlink:href="#C0_0_cd4f8c746a" x="328.045763" y="141.402614" style="fill: #440154; stroke: #440154"/>
    </g>
    <g clip-path="url(#pbfe6ea14fd)">
     <use xlink:href="#C0_0_cd4f8c746a" x="468.935414" y="151.8783" style="fill: #440154; stroke: #440154"/>
    </g>
    <g clip-path="url(#pbfe6ea14fd)">
     <use xlink:href="#C0_0_cd4f8c746a" x="341.39591" y="223.304951" style="fill: #440154; stroke: #440154"/>
    </g>
    <g clip-path="url(#pbfe6ea14fd)">
     <use xlink:href="#C0_0_cd4f8c746a" x="314.851541" y="190.39905" style="fill: #440154; stroke: #440154"/>
    </g>
    <g clip-path="url(#pbfe6ea14fd)">
     <use xlink:href="#C0_0_cd4f8c746a" x="419.373202" y="111.013195" style="fill: #433e85; stroke: #433e85"/>
    </g>
    <g clip-path="url(#pbfe6ea14fd)">
     <use xlink:href="#C0_0_cd4f8c746a" x="469.571978" y="207.031423" style="fill: #86d549; stroke: #86d549"/>
    </g>
    <g clip-path="url(#pbfe6ea14fd)">
     <use xlink:href="#C0_0_cd4f8c746a" x="357.509912" y="166.224068" style="fill: #440154; stroke: #440154"/>
    </g>
    <g clip-path="url(#pbfe6ea14fd)">
     <use xlink:href="#C0_0_cd4f8c746a" x="308.724815" y="169.625444" style="fill: #1e9b8a; stroke: #1e9b8a"/>
    </g>
    <g clip-path="url(#pbfe6ea14fd)">
     <use xlink:href="#C0_0_cd4f8c746a" x="377.356387" y="170.365275" style="fill: #52c569; stroke: #52c569"/>
    </g>
    <g clip-path="url(#pbfe6ea14fd)">
     <use xlink:href="#C0_0_cd4f8c746a" x="255.649808" y="190.741876" style="fill: #440154; stroke: #440154"/>
    </g>
    <g clip-path="url(#pbfe6ea14fd)">
     <use xlink:href="#C0_0_cd4f8c746a" x="399.550097" y="265.843055" style="fill: #440154; stroke: #440154"/>
    </g>
    <g clip-path="url(#pbfe6ea14fd)">
     <use xlink:href="#C0_0_cd4f8c746a" x="395.29501" y="95.473503" style="fill: #433e85; stroke: #433e85"/>
    </g>
    <g clip-path="url(#pbfe6ea14fd)">
     <use xlink:href="#C0_0_cd4f8c746a" x="236.899571" y="221.398797" style="fill: #2ab07f; stroke: #2ab07f"/>
    </g>
    <g clip-path="url(#pbfe6ea14fd)">
     <use xlink:href="#C0_0_cd4f8c746a" x="259.19926" y="219.612887" style="fill: #fde725; stroke: #fde725"/>
    </g>
    <g clip-path="url(#pbfe6ea14fd)">
     <use xlink:href="#C0_0_cd4f8c746a" x="394.767656" y="213.024912" style="fill: #440154; stroke: #440154"/>
    </g>
    <g clip-path="url(#pbfe6ea14fd)">
     <use xlink:href="#C0_0_cd4f8c746a" x="254.486717" y="211.376783" style="fill: #440154; stroke: #440154"/>
    </g>
    <g clip-path="url(#pbfe6ea14fd)">
     <use xlink:href="#C0_0_cd4f8c746a" x="281.39924" y="254.777602" style="fill: #433e85; stroke: #433e85"/>
    </g>
    <g clip-path="url(#pbfe6ea14fd)">
     <use xlink:href="#C0_0_cd4f8c746a" x="319.573365" y="257.296405" style="fill: #25858e; stroke: #25858e"/>
    </g>
    <g clip-path="url(#pbfe6ea14fd)">
     <use xlink:href="#C0_0_cd4f8c746a" x="319.479766" y="165.672052" style="fill: #440154; stroke: #440154"/>
    </g>
    <g clip-path="url(#pbfe6ea14fd)">
     <use xlink:href="#C0_0_cd4f8c746a" x="370.657103" y="199.829141" style="fill: #52c569; stroke: #52c569"/>
    </g>
    <g clip-path="url(#pbfe6ea14fd)">
     <use xlink:href="#C0_0_cd4f8c746a" x="492.169771" y="172.832195" style="fill: #440154; stroke: #440154"/>
    </g>
    <g clip-path="url(#pbfe6ea14fd)">
     <use xlink:href="#C0_0_cd4f8c746a" x="338.885469" y="209.58836" style="fill: #440154; stroke: #440154"/>
    </g>
    <g clip-path="url(#pbfe6ea14fd)">
     <use xlink:href="#C0_0_cd4f8c746a" x="398.107936" y="273.871602" style="fill: #433e85; stroke: #433e85"/>
    </g>
    <g clip-path="url(#pbfe6ea14fd)">
     <use xlink:href="#C0_0_cd4f8c746a" x="291.584042" y="177.360816" style="fill: #52c569; stroke: #52c569"/>
    </g>
    <g clip-path="url(#pbfe6ea14fd)">
     <use xlink:href="#C0_0_cd4f8c746a" x="447.029162" y="267.883559" style="fill: #86d549; stroke: #86d549"/>
    </g>
    <g clip-path="url(#pbfe6ea14fd)">
     <use xlink:href="#C0_0_cd4f8c746a" x="380.569397" y="198.802576" style="fill: #440154; stroke: #440154"/>
    </g>
    <g clip-path="url(#pbfe6ea14fd)">
     <use xlink:href="#C0_0_cd4f8c746a" x="315.591754" y="260.851593" style="fill: #86d549; stroke: #86d549"/>
    </g>
    <g clip-path="url(#pbfe6ea14fd)">
     <use xlink:href="#C0_0_cd4f8c746a" x="362.750325" y="201.052194" style="fill: #fde725; stroke: #fde725"/>
    </g>
    <g clip-path="url(#pbfe6ea14fd)">
     <use xlink:href="#C0_0_cd4f8c746a" x="312.458361" y="234.224359" style="fill: #440154; stroke: #440154"/>
    </g>
    <g clip-path="url(#pbfe6ea14fd)">
     <use xlink:href="#C0_0_cd4f8c746a" x="399.985507" y="239.362121" style="fill: #25858e; stroke: #25858e"/>
    </g>
    <g clip-path="url(#pbfe6ea14fd)">
     <use xlink:href="#C0_0_cd4f8c746a" x="239.883171" y="232.024673" style="fill: #433e85; stroke: #433e85"/>
    </g>
    <g clip-path="url(#pbfe6ea14fd)">
     <use xlink:href="#C0_0_cd4f8c746a" x="191.81313" y="209.099654" style="fill: #440154; stroke: #440154"/>
    </g>
    <g clip-path="url(#pbfe6ea14fd)">
     <use xlink:href="#C0_0_cd4f8c746a" x="212.705026" y="195.299806" style="fill: #440154; stroke: #440154"/>
    </g>
    <g clip-path="url(#pbfe6ea14fd)">
     <use xlink:href="#C0_0_cd4f8c746a" x="294.427966" y="279.257225" style="fill: #440154; stroke: #440154"/>
    </g>
    <g clip-path="url(#pbfe6ea14fd)">
     <use xlink:href="#C0_0_cd4f8c746a" x="371.178036" y="225.720332" style="fill: #440154; stroke: #440154"/>
    </g>
    <g clip-path="url(#pbfe6ea14fd)">
     <use xlink:href="#C0_0_cd4f8c746a" x="284.169173" y="238.20808" style="fill: #440154; stroke: #440154"/>
    </g>
    <g clip-path="url(#pbfe6ea14fd)">
     <use xlink:href="#C0_0_cd4f8c746a" x="154.978013" y="129.317917" style="fill: #86d549; stroke: #86d549"/>
    </g>
    <g clip-path="url(#pbfe6ea14fd)">
     <use xlink:href="#C0_0_cd4f8c746a" x="208.271155" y="209.618472" style="fill: #440154; stroke: #440154"/>
    </g>
    <g clip-path="url(#pbfe6ea14fd)">
     <use xlink:href="#C0_0_cd4f8c746a" x="361.073724" y="232.931313" style="fill: #440154; stroke: #440154"/>
    </g>
    <g clip-path="url(#pbfe6ea14fd)">
     <use xlink:href="#C0_0_cd4f8c746a" x="405.413887" y="208.641788" style="fill: #440154; stroke: #440154"/>
    </g>
    <g clip-path="url(#pbfe6ea14fd)">
     <use xlink:href="#C0_0_cd4f8c746a" x="150.569074" y="233.92019" style="fill: #440154; stroke: #440154"/>
    </g>
    <g clip-path="url(#pbfe6ea14fd)">
     <use xlink:href="#C0_0_cd4f8c746a" x="121.281823" y="66.24204" style="fill: #440154; stroke: #440154"/>
    </g>
    <g clip-path="url(#pbfe6ea14fd)">
     <use xlink:href="#C0_0_cd4f8c746a" x="233.047375" y="170.796665" style="fill: #482173; stroke: #482173"/>
    </g>
    <g clip-path="url(#pbfe6ea14fd)">
     <use xlink:href="#C0_0_cd4f8c746a" x="415.513035" y="186.433057" style="fill: #433e85; stroke: #433e85"/>
    </g>
    <g clip-path="url(#pbfe6ea14fd)">
     <use xlink:href="#C0_0_cd4f8c746a" x="244.573006" y="156.165233" style="fill: #25858e; stroke: #25858e"/>
    </g>
    <g clip-path="url(#pbfe6ea14fd)">
     <use xlink:href="#C0_0_cd4f8c746a" x="196.490767" y="153.765756" style="fill: #c2df23; stroke: #c2df23"/>
    </g>
    <g clip-path="url(#pbfe6ea14fd)">
     <use xlink:href="#C0_0_cd4f8c746a" x="233.804351" y="206.223078" style="fill: #25858e; stroke: #25858e"/>
    </g>
    <g clip-path="url(#pbfe6ea14fd)">
     <use xlink:href="#C0_0_cd4f8c746a" x="155.380857" y="116.256419" style="fill: #440154; stroke: #440154"/>
    </g>
    <g clip-path="url(#pbfe6ea14fd)">
     <use xlink:href="#C0_0_cd4f8c746a" x="233.836255" y="158.180791" style="fill: #440154; stroke: #440154"/>
    </g>
    <g clip-path="url(#pbfe6ea14fd)">
     <use xlink:href="#C0_0_cd4f8c746a" x="143.026382" y="179.422976" style="fill: #440154; stroke: #440154"/>
    </g>
    <g clip-path="url(#pbfe6ea14fd)">
     <use xlink:href="#C0_0_cd4f8c746a" x="399.158302" y="124.779807" style="fill: #38588c; stroke: #38588c"/>
    </g>
    <g clip-path="url(#pbfe6ea14fd)">
     <use xlink:href="#C0_0_cd4f8c746a" x="299.066109" y="128.102057" style="fill: #440154; stroke: #440154"/>
    </g>
    <g clip-path="url(#pbfe6ea14fd)">
     <use xlink:href="#C0_0_cd4f8c746a" x="203.525374" y="193.659214" style="fill: #440154; stroke: #440154"/>
    </g>
    <g clip-path="url(#pbfe6ea14fd)">
     <use xlink:href="#C0_0_cd4f8c746a" x="329.293417" y="235.370301" style="fill: #440154; stroke: #440154"/>
    </g>
    <g clip-path="url(#pbfe6ea14fd)">
     <use xlink:href="#C0_0_cd4f8c746a" x="426.436608" y="183.970907" style="fill: #440154; stroke: #440154"/>
    </g>
    <g clip-path="url(#pbfe6ea14fd)">
     <use xlink:href="#C0_0_cd4f8c746a" x="448.083923" y="217.204151" style="fill: #440154; stroke: #440154"/>
    </g>
    <g clip-path="url(#pbfe6ea14fd)">
     <use xlink:href="#C0_0_cd4f8c746a" x="362.256722" y="198.901827" style="fill: #440154; stroke: #440154"/>
    </g>
    <g clip-path="url(#pbfe6ea14fd)">
     <use xlink:href="#C0_0_cd4f8c746a" x="341.196278" y="186.022252" style="fill: #2d708e; stroke: #2d708e"/>
    </g>
    <g clip-path="url(#pbfe6ea14fd)">
     <use xlink:href="#C0_0_cd4f8c746a" x="395.930144" y="190.813987" style="fill: #2ab07f; stroke: #2ab07f"/>
    </g>
    <g clip-path="url(#pbfe6ea14fd)">
     <use xlink:href="#C0_0_cd4f8c746a" x="397.016763" y="150.863034" style="fill: #52c569; stroke: #52c569"/>
    </g>
    <g clip-path="url(#pbfe6ea14fd)">
     <use xlink:href="#C0_0_cd4f8c746a" x="181.563756" y="203.110196" style="fill: #86d549; stroke: #86d549"/>
    </g>
    <g clip-path="url(#pbfe6ea14fd)">
     <use xlink:href="#C0_0_cd4f8c746a" x="355.789258" y="200.412736" style="fill: #440154; stroke: #440154"/>
    </g>
    <g clip-path="url(#pbfe6ea14fd)">
     <use xlink:href="#C0_0_cd4f8c746a" x="117.429829" y="64.335861" style="fill: #2ab07f; stroke: #2ab07f"/>
    </g>
    <g clip-path="url(#pbfe6ea14fd)">
     <use xlink:href="#C0_0_cd4f8c746a" x="301.882504" y="155.747822" style="fill: #38588c; stroke: #38588c"/>
    </g>
    <g clip-path="url(#pbfe6ea14fd)">
     <use xlink:href="#C0_0_cd4f8c746a" x="220.974283" y="191.014734" style="fill: #440154; stroke: #440154"/>
    </g>
    <g clip-path="url(#pbfe6ea14fd)">
     <use xlink:href="#C0_0_cd4f8c746a" x="419.286925" y="82.536026" style="fill: #482173; stroke: #482173"/>
    </g>
    <g clip-path="url(#pbfe6ea14fd)">
     <use xlink:href="#C0_0_cd4f8c746a" x="485.480258" y="251.471358" style="fill: #433e85; stroke: #433e85"/>
    </g>
    <g clip-path="url(#pbfe6ea14fd)">
     <use xlink:href="#C0_0_cd4f8c746a" x="230.541774" y="172.438175" style="fill: #25858e; stroke: #25858e"/>
    </g>
    <g clip-path="url(#pbfe6ea14fd)">
     <use xlink:href="#C0_0_cd4f8c746a" x="342.419873" y="133.256234" style="fill: #440154; stroke: #440154"/>
    </g>
    <g clip-path="url(#pbfe6ea14fd)">
     <use xlink:href="#C0_0_cd4f8c746a" x="400.343617" y="173.646535" style="fill: #2ab07f; stroke: #2ab07f"/>
    </g>
    <g clip-path="url(#pbfe6ea14fd)">
     <use xlink:href="#C0_0_cd4f8c746a" x="439.441103" y="208.08291" style="fill: #433e85; stroke: #433e85"/>
    </g>
    <g clip-path="url(#pbfe6ea14fd)">
     <use xlink:href="#C0_0_cd4f8c746a" x="184.753833" y="181.420525" style="fill: #440154; stroke: #440154"/>
    </g>
    <g clip-path="url(#pbfe6ea14fd)">
     <use xlink:href="#C0_0_cd4f8c746a" x="323.849863" y="159.272044" style="fill: #440154; stroke: #440154"/>
    </g>
    <g clip-path="url(#pbfe6ea14fd)">
     <use xlink:href="#C0_0_cd4f8c746a" x="446.613216" y="207.02673" style="fill: #c2df23; stroke: #c2df23"/>
    </g>
    <g clip-path="url(#pbfe6ea14fd)">
     <use xlink:href="#C0_0_cd4f8c746a" x="415.387406" y="174.520282" style="fill: #440154; stroke: #440154"/>
    </g>
    <g clip-path="url(#pbfe6ea14fd)">
     <use xlink:href="#C0_0_cd4f8c746a" x="400.885484" y="133.157212" style="fill: #440154; stroke: #440154"/>
    </g>
    <g clip-path="url(#pbfe6ea14fd)">
     <use xlink:href="#C0_0_cd4f8c746a" x="383.059222" y="102.071044" style="fill: #440154; stroke: #440154"/>
    </g>
    <g clip-path="url(#pbfe6ea14fd)">
     <use xlink:href="#C0_0_cd4f8c746a" x="294.331573" y="227.370795" style="fill: #440154; stroke: #440154"/>
    </g>
    <g clip-path="url(#pbfe6ea14fd)">
     <use xlink:href="#C0_0_cd4f8c746a" x="469.672926" y="191.118679" style="fill: #52c569; stroke: #52c569"/>
    </g>
    <g clip-path="url(#pbfe6ea14fd)">
     <use xlink:href="#C0_0_cd4f8c746a" x="245.957113" y="194.074151" style="fill: #440154; stroke: #440154"/>
    </g>
    <g clip-path="url(#pbfe6ea14fd)">
     <use xlink:href="#C0_0_cd4f8c746a" x="396.665114" y="221.388722" style="fill: #86d549; stroke: #86d549"/>
    </g>
    <g clip-path="url(#pbfe6ea14fd)">
     <use xlink:href="#C0_0_cd4f8c746a" x="437.504161" y="166.379029" style="fill: #440154; stroke: #440154"/>
    </g>
   </g>
   <g id="matplotlib.axis_1">
    <g id="xtick_1">
     <g id="line2d_1">
      <defs>
       <path id="mfdb1593a42" d="M 0 0 
L 0 3.5 
" style="stroke: #000000; stroke-width: 0.8"/>
      </defs>
      <g>
       <use xlink:href="#mfdb1593a42" x="165.078604" y="320.4" style="stroke: #000000; stroke-width: 0.8"/>
      </g>
     </g>
     <g id="text_1">
      <!-- 0 -->
      <g transform="translate(161.897354 334.998438) scale(0.1 -0.1)">
       <defs>
        <path id="DejaVuSans-30" d="M 2034 4250 
Q 1547 4250 1301 3770 
Q 1056 3291 1056 2328 
Q 1056 1369 1301 889 
Q 1547 409 2034 409 
Q 2525 409 2770 889 
Q 3016 1369 3016 2328 
Q 3016 3291 2770 3770 
Q 2525 4250 2034 4250 
z
M 2034 4750 
Q 2819 4750 3233 4129 
Q 3647 3509 3647 2328 
Q 3647 1150 3233 529 
Q 2819 -91 2034 -91 
Q 1250 -91 836 529 
Q 422 1150 422 2328 
Q 422 3509 836 4129 
Q 1250 4750 2034 4750 
z
" transform="scale(0.015625)"/>
       </defs>
       <use xlink:href="#DejaVuSans-30"/>
      </g>
     </g>
    </g>
    <g id="xtick_2">
     <g id="line2d_2">
      <g>
       <use xlink:href="#mfdb1593a42" x="276.150405" y="320.4" style="stroke: #000000; stroke-width: 0.8"/>
      </g>
     </g>
     <g id="text_2">
      <!-- 1 -->
      <g transform="translate(272.969155 334.998438) scale(0.1 -0.1)">
       <defs>
        <path id="DejaVuSans-31" d="M 794 531 
L 1825 531 
L 1825 4091 
L 703 3866 
L 703 4441 
L 1819 4666 
L 2450 4666 
L 2450 531 
L 3481 531 
L 3481 0 
L 794 0 
L 794 531 
z
" transform="scale(0.015625)"/>
       </defs>
       <use xlink:href="#DejaVuSans-31"/>
      </g>
     </g>
    </g>
    <g id="xtick_3">
     <g id="line2d_3">
      <g>
       <use xlink:href="#mfdb1593a42" x="387.222206" y="320.4" style="stroke: #000000; stroke-width: 0.8"/>
      </g>
     </g>
     <g id="text_3">
      <!-- 2 -->
      <g transform="translate(384.040956 334.998438) scale(0.1 -0.1)">
       <defs>
        <path id="DejaVuSans-32" d="M 1228 531 
L 3431 531 
L 3431 0 
L 469 0 
L 469 531 
Q 828 903 1448 1529 
Q 2069 2156 2228 2338 
Q 2531 2678 2651 2914 
Q 2772 3150 2772 3378 
Q 2772 3750 2511 3984 
Q 2250 4219 1831 4219 
Q 1534 4219 1204 4116 
Q 875 4013 500 3803 
L 500 4441 
Q 881 4594 1212 4672 
Q 1544 4750 1819 4750 
Q 2544 4750 2975 4387 
Q 3406 4025 3406 3419 
Q 3406 3131 3298 2873 
Q 3191 2616 2906 2266 
Q 2828 2175 2409 1742 
Q 1991 1309 1228 531 
z
" transform="scale(0.015625)"/>
       </defs>
       <use xlink:href="#DejaVuSans-32"/>
      </g>
     </g>
    </g>
    <g id="xtick_4">
     <g id="line2d_4">
      <g>
       <use xlink:href="#mfdb1593a42" x="498.294007" y="320.4" style="stroke: #000000; stroke-width: 0.8"/>
      </g>
     </g>
     <g id="text_4">
      <!-- 3 -->
      <g transform="translate(495.112757 334.998438) scale(0.1 -0.1)">
       <defs>
        <path id="DejaVuSans-33" d="M 2597 2516 
Q 3050 2419 3304 2112 
Q 3559 1806 3559 1356 
Q 3559 666 3084 287 
Q 2609 -91 1734 -91 
Q 1441 -91 1130 -33 
Q 819 25 488 141 
L 488 750 
Q 750 597 1062 519 
Q 1375 441 1716 441 
Q 2309 441 2620 675 
Q 2931 909 2931 1356 
Q 2931 1769 2642 2001 
Q 2353 2234 1838 2234 
L 1294 2234 
L 1294 2753 
L 1863 2753 
Q 2328 2753 2575 2939 
Q 2822 3125 2822 3475 
Q 2822 3834 2567 4026 
Q 2313 4219 1838 4219 
Q 1578 4219 1281 4162 
Q 984 4106 628 3988 
L 628 4550 
Q 988 4650 1302 4700 
Q 1616 4750 1894 4750 
Q 2613 4750 3031 4423 
Q 3450 4097 3450 3541 
Q 3450 3153 3228 2886 
Q 3006 2619 2597 2516 
z
" transform="scale(0.015625)"/>
       </defs>
       <use xlink:href="#DejaVuSans-33"/>
      </g>
     </g>
    </g>
    <g id="xtick_5">
     <g id="line2d_5">
      <g>
       <use xlink:href="#mfdb1593a42" x="609.365808" y="320.4" style="stroke: #000000; stroke-width: 0.8"/>
      </g>
     </g>
     <g id="text_5">
      <!-- 4 -->
      <g transform="translate(606.184558 334.998438) scale(0.1 -0.1)">
       <defs>
        <path id="DejaVuSans-34" d="M 2419 4116 
L 825 1625 
L 2419 1625 
L 2419 4116 
z
M 2253 4666 
L 3047 4666 
L 3047 1625 
L 3713 1625 
L 3713 1100 
L 3047 1100 
L 3047 0 
L 2419 0 
L 2419 1100 
L 313 1100 
L 313 1709 
L 2253 4666 
z
" transform="scale(0.015625)"/>
       </defs>
       <use xlink:href="#DejaVuSans-34"/>
      </g>
     </g>
    </g>
   </g>
   <g id="matplotlib.axis_2">
    <g id="ytick_1">
     <g id="line2d_6">
      <defs>
       <path id="m87837f09fb" d="M 0 0 
L -3.5 0 
" style="stroke: #000000; stroke-width: 0.8"/>
      </defs>
      <g>
       <use xlink:href="#m87837f09fb" x="90" y="293.685325" style="stroke: #000000; stroke-width: 0.8"/>
      </g>
     </g>
     <g id="text_6">
      <!-- 0.6 -->
      <g transform="translate(67.096875 297.484544) scale(0.1 -0.1)">
       <defs>
        <path id="DejaVuSans-2e" d="M 684 794 
L 1344 794 
L 1344 0 
L 684 0 
L 684 794 
z
" transform="scale(0.015625)"/>
        <path id="DejaVuSans-36" d="M 2113 2584 
Q 1688 2584 1439 2293 
Q 1191 2003 1191 1497 
Q 1191 994 1439 701 
Q 1688 409 2113 409 
Q 2538 409 2786 701 
Q 3034 994 3034 1497 
Q 3034 2003 2786 2293 
Q 2538 2584 2113 2584 
z
M 3366 4563 
L 3366 3988 
Q 3128 4100 2886 4159 
Q 2644 4219 2406 4219 
Q 1781 4219 1451 3797 
Q 1122 3375 1075 2522 
Q 1259 2794 1537 2939 
Q 1816 3084 2150 3084 
Q 2853 3084 3261 2657 
Q 3669 2231 3669 1497 
Q 3669 778 3244 343 
Q 2819 -91 2113 -91 
Q 1303 -91 875 529 
Q 447 1150 447 2328 
Q 447 3434 972 4092 
Q 1497 4750 2381 4750 
Q 2619 4750 2861 4703 
Q 3103 4656 3366 4563 
z
" transform="scale(0.015625)"/>
       </defs>
       <use xlink:href="#DejaVuSans-30"/>
       <use xlink:href="#DejaVuSans-2e" x="63.623047"/>
       <use xlink:href="#DejaVuSans-36" x="95.410156"/>
      </g>
     </g>
    </g>
    <g id="ytick_2">
     <g id="line2d_7">
      <g>
       <use xlink:href="#m87837f09fb" x="90" y="250.890176" style="stroke: #000000; stroke-width: 0.8"/>
      </g>
     </g>
     <g id="text_7">
      <!-- 0.8 -->
      <g transform="translate(67.096875 254.689394) scale(0.1 -0.1)">
       <defs>
        <path id="DejaVuSans-38" d="M 2034 2216 
Q 1584 2216 1326 1975 
Q 1069 1734 1069 1313 
Q 1069 891 1326 650 
Q 1584 409 2034 409 
Q 2484 409 2743 651 
Q 3003 894 3003 1313 
Q 3003 1734 2745 1975 
Q 2488 2216 2034 2216 
z
M 1403 2484 
Q 997 2584 770 2862 
Q 544 3141 544 3541 
Q 544 4100 942 4425 
Q 1341 4750 2034 4750 
Q 2731 4750 3128 4425 
Q 3525 4100 3525 3541 
Q 3525 3141 3298 2862 
Q 3072 2584 2669 2484 
Q 3125 2378 3379 2068 
Q 3634 1759 3634 1313 
Q 3634 634 3220 271 
Q 2806 -91 2034 -91 
Q 1263 -91 848 271 
Q 434 634 434 1313 
Q 434 1759 690 2068 
Q 947 2378 1403 2484 
z
M 1172 3481 
Q 1172 3119 1398 2916 
Q 1625 2713 2034 2713 
Q 2441 2713 2670 2916 
Q 2900 3119 2900 3481 
Q 2900 3844 2670 4047 
Q 2441 4250 2034 4250 
Q 1625 4250 1398 4047 
Q 1172 3844 1172 3481 
z
" transform="scale(0.015625)"/>
       </defs>
       <use xlink:href="#DejaVuSans-30"/>
       <use xlink:href="#DejaVuSans-2e" x="63.623047"/>
       <use xlink:href="#DejaVuSans-38" x="95.410156"/>
      </g>
     </g>
    </g>
    <g id="ytick_3">
     <g id="line2d_8">
      <g>
       <use xlink:href="#m87837f09fb" x="90" y="208.095026" style="stroke: #000000; stroke-width: 0.8"/>
      </g>
     </g>
     <g id="text_8">
      <!-- 1.0 -->
      <g transform="translate(67.096875 211.894245) scale(0.1 -0.1)">
       <use xlink:href="#DejaVuSans-31"/>
       <use xlink:href="#DejaVuSans-2e" x="63.623047"/>
       <use xlink:href="#DejaVuSans-30" x="95.410156"/>
      </g>
     </g>
    </g>
    <g id="ytick_4">
     <g id="line2d_9">
      <g>
       <use xlink:href="#m87837f09fb" x="90" y="165.299876" style="stroke: #000000; stroke-width: 0.8"/>
      </g>
     </g>
     <g id="text_9">
      <!-- 1.2 -->
      <g transform="translate(67.096875 169.099095) scale(0.1 -0.1)">
       <use xlink:href="#DejaVuSans-31"/>
       <use xlink:href="#DejaVuSans-2e" x="63.623047"/>
       <use xlink:href="#DejaVuSans-32" x="95.410156"/>
      </g>
     </g>
    </g>
    <g id="ytick_5">
     <g id="line2d_10">
      <g>
       <use xlink:href="#m87837f09fb" x="90" y="122.504727" style="stroke: #000000; stroke-width: 0.8"/>
      </g>
     </g>
     <g id="text_10">
      <!-- 1.4 -->
      <g transform="translate(67.096875 126.303946) scale(0.1 -0.1)">
       <use xlink:href="#DejaVuSans-31"/>
       <use xlink:href="#DejaVuSans-2e" x="63.623047"/>
       <use xlink:href="#DejaVuSans-34" x="95.410156"/>
      </g>
     </g>
    </g>
    <g id="ytick_6">
     <g id="line2d_11">
      <g>
       <use xlink:href="#m87837f09fb" x="90" y="79.709577" style="stroke: #000000; stroke-width: 0.8"/>
      </g>
     </g>
     <g id="text_11">
      <!-- 1.6 -->
      <g transform="translate(67.096875 83.508796) scale(0.1 -0.1)">
       <use xlink:href="#DejaVuSans-31"/>
       <use xlink:href="#DejaVuSans-2e" x="63.623047"/>
       <use xlink:href="#DejaVuSans-36" x="95.410156"/>
      </g>
     </g>
    </g>
   </g>
   <g id="patch_3">
    <path d="M 90 320.4 
L 90 43.2 
" style="fill: none; stroke: #000000; stroke-width: 0.8; stroke-linejoin: miter; stroke-linecap: square"/>
   </g>
   <g id="patch_4">
    <path d="M 648 320.4 
L 648 43.2 
" style="fill: none; stroke: #000000; stroke-width: 0.8; stroke-linejoin: miter; stroke-linecap: square"/>
   </g>
   <g id="patch_5">
    <path d="M 90 320.4 
L 648 320.4 
" style="fill: none; stroke: #000000; stroke-width: 0.8; stroke-linejoin: miter; stroke-linecap: square"/>
   </g>
   <g id="patch_6">
    <path d="M 90 43.2 
L 648 43.2 
" style="fill: none; stroke: #000000; stroke-width: 0.8; stroke-linejoin: miter; stroke-linecap: square"/>
   </g>
  </g>
 </g>
 <defs>
  <clipPath id="pbfe6ea14fd">
   <rect x="90" y="43.2" width="558" height="277.2"/>
  </clipPath>
 </defs>
</svg>
