<?xml version="1.0" encoding="utf-8" standalone="no"?>
<!DOCTYPE svg PUBLIC "-//W3C//DTD SVG 1.1//EN"
  "http://www.w3.org/Graphics/SVG/1.1/DTD/svg11.dtd">
<svg xmlns:xlink="http://www.w3.org/1999/xlink" width="1440pt" height="432pt" viewBox="0 0 1440 432" xmlns="http://www.w3.org/2000/svg" version="1.1">
 <metadata>
  <rdf:RDF xmlns:dc="http://purl.org/dc/elements/1.1/" xmlns:cc="http://creativecommons.org/ns#" xmlns:rdf="http://www.w3.org/1999/02/22-rdf-syntax-ns#">
   <cc:Work>
    <dc:type rdf:resource="http://purl.org/dc/dcmitype/StillImage"/>
    <dc:date>2024-04-09T20:52:07.749651</dc:date>
    <dc:format>image/svg+xml</dc:format>
    <dc:creator>
     <cc:Agent>
      <dc:title>Matplotlib v3.8.3, https://matplotlib.org/</dc:title>
     </cc:Agent>
    </dc:creator>
   </cc:Work>
  </rdf:RDF>
 </metadata>
 <defs>
  <style type="text/css">*{stroke-linejoin: round; stroke-linecap: butt}</style>
 </defs>
 <g id="figure_1">
  <g id="patch_1">
   <path d="M 0 432 
L 1440 432 
L 1440 0 
L 0 0 
z
" style="fill: #ffffff"/>
  </g>
  <g id="axes_1">
   <g id="patch_2">
    <path d="M 180 384.48 
L 1296 384.48 
L 1296 51.84 
L 180 51.84 
z
" style="fill: #ffffff"/>
   </g>
   <g id="PathCollection_1"/>
   <g id="PathCollection_2"/>
   <g id="PathCollection_3"/>
   <g id="PathCollection_4"/>
   <g id="PathCollection_5"/>
   <g id="PathCollection_6"/>
   <g id="PathCollection_7"/>
   <g id="PathCollection_8"/>
   <g id="PathCollection_9"/>
   <g id="PathCollection_10"/>
   <g id="PathCollection_11"/>
   <g id="matplotlib.axis_1">
    <g id="xtick_1">
     <g id="line2d_1">
      <defs>
       <path id="m2cd8f83b94" d="M 0 0 
L 0 3.5 
" style="stroke: #000000; stroke-width: 0.8"/>
      </defs>
      <g>
       <use xlink:href="#m2cd8f83b94" x="332.181818" y="384.48" style="stroke: #000000; stroke-width: 0.8"/>
      </g>
     </g>
     <g id="text_1">
      <!-- −0.04 -->
      <g transform="translate(316.859162 399.078438) scale(0.1 -0.1)">
       <defs>
        <path id="DejaVuSans-2212" d="M 678 2272 
L 4684 2272 
L 4684 1741 
L 678 1741 
L 678 2272 
z
" transform="scale(0.015625)"/>
        <path id="DejaVuSans-30" d="M 2034 4250 
Q 1547 4250 1301 3770 
Q 1056 3291 1056 2328 
Q 1056 1369 1301 889 
Q 1547 409 2034 409 
Q 2525 409 2770 889 
Q 3016 1369 3016 2328 
Q 3016 3291 2770 3770 
Q 2525 4250 2034 4250 
z
M 2034 4750 
Q 2819 4750 3233 4129 
Q 3647 3509 3647 2328 
Q 3647 1150 3233 529 
Q 2819 -91 2034 -91 
Q 1250 -91 836 529 
Q 422 1150 422 2328 
Q 422 3509 836 4129 
Q 1250 4750 2034 4750 
z
" transform="scale(0.015625)"/>
        <path id="DejaVuSans-2e" d="M 684 794 
L 1344 794 
L 1344 0 
L 684 0 
L 684 794 
z
" transform="scale(0.015625)"/>
        <path id="DejaVuSans-34" d="M 2419 4116 
L 825 1625 
L 2419 1625 
L 2419 4116 
z
M 2253 4666 
L 3047 4666 
L 3047 1625 
L 3713 1625 
L 3713 1100 
L 3047 1100 
L 3047 0 
L 2419 0 
L 2419 1100 
L 313 1100 
L 313 1709 
L 2253 4666 
z
" transform="scale(0.015625)"/>
       </defs>
       <use xlink:href="#DejaVuSans-2212"/>
       <use xlink:href="#DejaVuSans-30" x="83.789062"/>
       <use xlink:href="#DejaVuSans-2e" x="147.412109"/>
       <use xlink:href="#DejaVuSans-30" x="179.199219"/>
       <use xlink:href="#DejaVuSans-34" x="242.822266"/>
      </g>
     </g>
    </g>
    <g id="xtick_2">
     <g id="line2d_2">
      <g>
       <use xlink:href="#m2cd8f83b94" x="535.090909" y="384.48" style="stroke: #000000; stroke-width: 0.8"/>
      </g>
     </g>
     <g id="text_2">
      <!-- −0.02 -->
      <g transform="translate(519.768253 399.078438) scale(0.1 -0.1)">
       <defs>
        <path id="DejaVuSans-32" d="M 1228 531 
L 3431 531 
L 3431 0 
L 469 0 
L 469 531 
Q 828 903 1448 1529 
Q 2069 2156 2228 2338 
Q 2531 2678 2651 2914 
Q 2772 3150 2772 3378 
Q 2772 3750 2511 3984 
Q 2250 4219 1831 4219 
Q 1534 4219 1204 4116 
Q 875 4013 500 3803 
L 500 4441 
Q 881 4594 1212 4672 
Q 1544 4750 1819 4750 
Q 2544 4750 2975 4387 
Q 3406 4025 3406 3419 
Q 3406 3131 3298 2873 
Q 3191 2616 2906 2266 
Q 2828 2175 2409 1742 
Q 1991 1309 1228 531 
z
" transform="scale(0.015625)"/>
       </defs>
       <use xlink:href="#DejaVuSans-2212"/>
       <use xlink:href="#DejaVuSans-30" x="83.789062"/>
       <use xlink:href="#DejaVuSans-2e" x="147.412109"/>
       <use xlink:href="#DejaVuSans-30" x="179.199219"/>
       <use xlink:href="#DejaVuSans-32" x="242.822266"/>
      </g>
     </g>
    </g>
    <g id="xtick_3">
     <g id="line2d_3">
      <g>
       <use xlink:href="#m2cd8f83b94" x="738" y="384.48" style="stroke: #000000; stroke-width: 0.8"/>
      </g>
     </g>
     <g id="text_3">
      <!-- 0.00 -->
      <g transform="translate(726.867188 399.078438) scale(0.1 -0.1)">
       <use xlink:href="#DejaVuSans-30"/>
       <use xlink:href="#DejaVuSans-2e" x="63.623047"/>
       <use xlink:href="#DejaVuSans-30" x="95.410156"/>
       <use xlink:href="#DejaVuSans-30" x="159.033203"/>
      </g>
     </g>
    </g>
    <g id="xtick_4">
     <g id="line2d_4">
      <g>
       <use xlink:href="#m2cd8f83b94" x="940.909091" y="384.48" style="stroke: #000000; stroke-width: 0.8"/>
      </g>
     </g>
     <g id="text_4">
      <!-- 0.02 -->
      <g transform="translate(929.776278 399.078438) scale(0.1 -0.1)">
       <use xlink:href="#DejaVuSans-30"/>
       <use xlink:href="#DejaVuSans-2e" x="63.623047"/>
       <use xlink:href="#DejaVuSans-30" x="95.410156"/>
       <use xlink:href="#DejaVuSans-32" x="159.033203"/>
      </g>
     </g>
    </g>
    <g id="xtick_5">
     <g id="line2d_5">
      <g>
       <use xlink:href="#m2cd8f83b94" x="1143.818182" y="384.48" style="stroke: #000000; stroke-width: 0.8"/>
      </g>
     </g>
     <g id="text_5">
      <!-- 0.04 -->
      <g transform="translate(1132.685369 399.078438) scale(0.1 -0.1)">
       <use xlink:href="#DejaVuSans-30"/>
       <use xlink:href="#DejaVuSans-2e" x="63.623047"/>
       <use xlink:href="#DejaVuSans-30" x="95.410156"/>
       <use xlink:href="#DejaVuSans-34" x="159.033203"/>
      </g>
     </g>
    </g>
   </g>
   <g id="matplotlib.axis_2">
    <g id="ytick_1">
     <g id="line2d_6">
      <defs>
       <path id="m3d235695c7" d="M 0 0 
L -3.5 0 
" style="stroke: #000000; stroke-width: 0.8"/>
      </defs>
      <g>
       <use xlink:href="#m3d235695c7" x="180" y="339.12" style="stroke: #000000; stroke-width: 0.8"/>
      </g>
     </g>
     <g id="text_6">
      <!-- −0.04 -->
      <g transform="translate(142.354688 342.919219) scale(0.1 -0.1)">
       <use xlink:href="#DejaVuSans-2212"/>
       <use xlink:href="#DejaVuSans-30" x="83.789062"/>
       <use xlink:href="#DejaVuSans-2e" x="147.412109"/>
       <use xlink:href="#DejaVuSans-30" x="179.199219"/>
       <use xlink:href="#DejaVuSans-34" x="242.822266"/>
      </g>
     </g>
    </g>
    <g id="ytick_2">
     <g id="line2d_7">
      <g>
       <use xlink:href="#m3d235695c7" x="180" y="278.64" style="stroke: #000000; stroke-width: 0.8"/>
      </g>
     </g>
     <g id="text_7">
      <!-- −0.02 -->
      <g transform="translate(142.354688 282.439219) scale(0.1 -0.1)">
       <use xlink:href="#DejaVuSans-2212"/>
       <use xlink:href="#DejaVuSans-30" x="83.789062"/>
       <use xlink:href="#DejaVuSans-2e" x="147.412109"/>
       <use xlink:href="#DejaVuSans-30" x="179.199219"/>
       <use xlink:href="#DejaVuSans-32" x="242.822266"/>
      </g>
     </g>
    </g>
    <g id="ytick_3">
     <g id="line2d_8">
      <g>
       <use xlink:href="#m3d235695c7" x="180" y="218.16" style="stroke: #000000; stroke-width: 0.8"/>
      </g>
     </g>
     <g id="text_8">
      <!-- 0.00 -->
      <g transform="translate(150.734375 221.959219) scale(0.1 -0.1)">
       <use xlink:href="#DejaVuSans-30"/>
       <use xlink:href="#DejaVuSans-2e" x="63.623047"/>
       <use xlink:href="#DejaVuSans-30" x="95.410156"/>
       <use xlink:href="#DejaVuSans-30" x="159.033203"/>
      </g>
     </g>
    </g>
    <g id="ytick_4">
     <g id="line2d_9">
      <g>
       <use xlink:href="#m3d235695c7" x="180" y="157.68" style="stroke: #000000; stroke-width: 0.8"/>
      </g>
     </g>
     <g id="text_9">
      <!-- 0.02 -->
      <g transform="translate(150.734375 161.479219) scale(0.1 -0.1)">
       <use xlink:href="#DejaVuSans-30"/>
       <use xlink:href="#DejaVuSans-2e" x="63.623047"/>
       <use xlink:href="#DejaVuSans-30" x="95.410156"/>
       <use xlink:href="#DejaVuSans-32" x="159.033203"/>
      </g>
     </g>
    </g>
    <g id="ytick_5">
     <g id="line2d_10">
      <g>
       <use xlink:href="#m3d235695c7" x="180" y="97.2" style="stroke: #000000; stroke-width: 0.8"/>
      </g>
     </g>
     <g id="text_10">
      <!-- 0.04 -->
      <g transform="translate(150.734375 100.999219) scale(0.1 -0.1)">
       <use xlink:href="#DejaVuSans-30"/>
       <use xlink:href="#DejaVuSans-2e" x="63.623047"/>
       <use xlink:href="#DejaVuSans-30" x="95.410156"/>
       <use xlink:href="#DejaVuSans-34" x="159.033203"/>
      </g>
     </g>
    </g>
   </g>
   <g id="patch_3">
    <path d="M 180 384.48 
L 180 51.84 
" style="fill: none; stroke: #000000; stroke-width: 0.8; stroke-linejoin: miter; stroke-linecap: square"/>
   </g>
   <g id="patch_4">
    <path d="M 1296 384.48 
L 1296 51.84 
" style="fill: none; stroke: #000000; stroke-width: 0.8; stroke-linejoin: miter; stroke-linecap: square"/>
   </g>
   <g id="patch_5">
    <path d="M 180 384.48 
L 1296 384.48 
" style="fill: none; stroke: #000000; stroke-width: 0.8; stroke-linejoin: miter; stroke-linecap: square"/>
   </g>
   <g id="patch_6">
    <path d="M 180 51.84 
L 1296 51.84 
" style="fill: none; stroke: #000000; stroke-width: 0.8; stroke-linejoin: miter; stroke-linecap: square"/>
   </g>
   <g id="text_11">
    <!-- PCA using the two first PC's -->
    <g transform="translate(655.264688 45.84) scale(0.12 -0.12)">
     <defs>
      <path id="DejaVuSans-50" d="M 1259 4147 
L 1259 2394 
L 2053 2394 
Q 2494 2394 2734 2622 
Q 2975 2850 2975 3272 
Q 2975 3691 2734 3919 
Q 2494 4147 2053 4147 
L 1259 4147 
z
M 628 4666 
L 2053 4666 
Q 2838 4666 3239 4311 
Q 3641 3956 3641 3272 
Q 3641 2581 3239 2228 
Q 2838 1875 2053 1875 
L 1259 1875 
L 1259 0 
L 628 0 
L 628 4666 
z
" transform="scale(0.015625)"/>
      <path id="DejaVuSans-43" d="M 4122 4306 
L 4122 3641 
Q 3803 3938 3442 4084 
Q 3081 4231 2675 4231 
Q 1875 4231 1450 3742 
Q 1025 3253 1025 2328 
Q 1025 1406 1450 917 
Q 1875 428 2675 428 
Q 3081 428 3442 575 
Q 3803 722 4122 1019 
L 4122 359 
Q 3791 134 3420 21 
Q 3050 -91 2638 -91 
Q 1578 -91 968 557 
Q 359 1206 359 2328 
Q 359 3453 968 4101 
Q 1578 4750 2638 4750 
Q 3056 4750 3426 4639 
Q 3797 4528 4122 4306 
z
" transform="scale(0.015625)"/>
      <path id="DejaVuSans-41" d="M 2188 4044 
L 1331 1722 
L 3047 1722 
L 2188 4044 
z
M 1831 4666 
L 2547 4666 
L 4325 0 
L 3669 0 
L 3244 1197 
L 1141 1197 
L 716 0 
L 50 0 
L 1831 4666 
z
" transform="scale(0.015625)"/>
      <path id="DejaVuSans-20" transform="scale(0.015625)"/>
      <path id="DejaVuSans-75" d="M 544 1381 
L 544 3500 
L 1119 3500 
L 1119 1403 
Q 1119 906 1312 657 
Q 1506 409 1894 409 
Q 2359 409 2629 706 
Q 2900 1003 2900 1516 
L 2900 3500 
L 3475 3500 
L 3475 0 
L 2900 0 
L 2900 538 
Q 2691 219 2414 64 
Q 2138 -91 1772 -91 
Q 1169 -91 856 284 
Q 544 659 544 1381 
z
M 1991 3584 
L 1991 3584 
z
" transform="scale(0.015625)"/>
      <path id="DejaVuSans-73" d="M 2834 3397 
L 2834 2853 
Q 2591 2978 2328 3040 
Q 2066 3103 1784 3103 
Q 1356 3103 1142 2972 
Q 928 2841 928 2578 
Q 928 2378 1081 2264 
Q 1234 2150 1697 2047 
L 1894 2003 
Q 2506 1872 2764 1633 
Q 3022 1394 3022 966 
Q 3022 478 2636 193 
Q 2250 -91 1575 -91 
Q 1294 -91 989 -36 
Q 684 19 347 128 
L 347 722 
Q 666 556 975 473 
Q 1284 391 1588 391 
Q 1994 391 2212 530 
Q 2431 669 2431 922 
Q 2431 1156 2273 1281 
Q 2116 1406 1581 1522 
L 1381 1569 
Q 847 1681 609 1914 
Q 372 2147 372 2553 
Q 372 3047 722 3315 
Q 1072 3584 1716 3584 
Q 2034 3584 2315 3537 
Q 2597 3491 2834 3397 
z
" transform="scale(0.015625)"/>
      <path id="DejaVuSans-69" d="M 603 3500 
L 1178 3500 
L 1178 0 
L 603 0 
L 603 3500 
z
M 603 4863 
L 1178 4863 
L 1178 4134 
L 603 4134 
L 603 4863 
z
" transform="scale(0.015625)"/>
      <path id="DejaVuSans-6e" d="M 3513 2113 
L 3513 0 
L 2938 0 
L 2938 2094 
Q 2938 2591 2744 2837 
Q 2550 3084 2163 3084 
Q 1697 3084 1428 2787 
Q 1159 2491 1159 1978 
L 1159 0 
L 581 0 
L 581 3500 
L 1159 3500 
L 1159 2956 
Q 1366 3272 1645 3428 
Q 1925 3584 2291 3584 
Q 2894 3584 3203 3211 
Q 3513 2838 3513 2113 
z
" transform="scale(0.015625)"/>
      <path id="DejaVuSans-67" d="M 2906 1791 
Q 2906 2416 2648 2759 
Q 2391 3103 1925 3103 
Q 1463 3103 1205 2759 
Q 947 2416 947 1791 
Q 947 1169 1205 825 
Q 1463 481 1925 481 
Q 2391 481 2648 825 
Q 2906 1169 2906 1791 
z
M 3481 434 
Q 3481 -459 3084 -895 
Q 2688 -1331 1869 -1331 
Q 1566 -1331 1297 -1286 
Q 1028 -1241 775 -1147 
L 775 -588 
Q 1028 -725 1275 -790 
Q 1522 -856 1778 -856 
Q 2344 -856 2625 -561 
Q 2906 -266 2906 331 
L 2906 616 
Q 2728 306 2450 153 
Q 2172 0 1784 0 
Q 1141 0 747 490 
Q 353 981 353 1791 
Q 353 2603 747 3093 
Q 1141 3584 1784 3584 
Q 2172 3584 2450 3431 
Q 2728 3278 2906 2969 
L 2906 3500 
L 3481 3500 
L 3481 434 
z
" transform="scale(0.015625)"/>
      <path id="DejaVuSans-74" d="M 1172 4494 
L 1172 3500 
L 2356 3500 
L 2356 3053 
L 1172 3053 
L 1172 1153 
Q 1172 725 1289 603 
Q 1406 481 1766 481 
L 2356 481 
L 2356 0 
L 1766 0 
Q 1100 0 847 248 
Q 594 497 594 1153 
L 594 3053 
L 172 3053 
L 172 3500 
L 594 3500 
L 594 4494 
L 1172 4494 
z
" transform="scale(0.015625)"/>
      <path id="DejaVuSans-68" d="M 3513 2113 
L 3513 0 
L 2938 0 
L 2938 2094 
Q 2938 2591 2744 2837 
Q 2550 3084 2163 3084 
Q 1697 3084 1428 2787 
Q 1159 2491 1159 1978 
L 1159 0 
L 581 0 
L 581 4863 
L 1159 4863 
L 1159 2956 
Q 1366 3272 1645 3428 
Q 1925 3584 2291 3584 
Q 2894 3584 3203 3211 
Q 3513 2838 3513 2113 
z
" transform="scale(0.015625)"/>
      <path id="DejaVuSans-65" d="M 3597 1894 
L 3597 1613 
L 953 1613 
Q 991 1019 1311 708 
Q 1631 397 2203 397 
Q 2534 397 2845 478 
Q 3156 559 3463 722 
L 3463 178 
Q 3153 47 2828 -22 
Q 2503 -91 2169 -91 
Q 1331 -91 842 396 
Q 353 884 353 1716 
Q 353 2575 817 3079 
Q 1281 3584 2069 3584 
Q 2775 3584 3186 3129 
Q 3597 2675 3597 1894 
z
M 3022 2063 
Q 3016 2534 2758 2815 
Q 2500 3097 2075 3097 
Q 1594 3097 1305 2825 
Q 1016 2553 972 2059 
L 3022 2063 
z
" transform="scale(0.015625)"/>
      <path id="DejaVuSans-77" d="M 269 3500 
L 844 3500 
L 1563 769 
L 2278 3500 
L 2956 3500 
L 3675 769 
L 4391 3500 
L 4966 3500 
L 4050 0 
L 3372 0 
L 2619 2869 
L 1863 0 
L 1184 0 
L 269 3500 
z
" transform="scale(0.015625)"/>
      <path id="DejaVuSans-6f" d="M 1959 3097 
Q 1497 3097 1228 2736 
Q 959 2375 959 1747 
Q 959 1119 1226 758 
Q 1494 397 1959 397 
Q 2419 397 2687 759 
Q 2956 1122 2956 1747 
Q 2956 2369 2687 2733 
Q 2419 3097 1959 3097 
z
M 1959 3584 
Q 2709 3584 3137 3096 
Q 3566 2609 3566 1747 
Q 3566 888 3137 398 
Q 2709 -91 1959 -91 
Q 1206 -91 779 398 
Q 353 888 353 1747 
Q 353 2609 779 3096 
Q 1206 3584 1959 3584 
z
" transform="scale(0.015625)"/>
      <path id="DejaVuSans-66" d="M 2375 4863 
L 2375 4384 
L 1825 4384 
Q 1516 4384 1395 4259 
Q 1275 4134 1275 3809 
L 1275 3500 
L 2222 3500 
L 2222 3053 
L 1275 3053 
L 1275 0 
L 697 0 
L 697 3053 
L 147 3053 
L 147 3500 
L 697 3500 
L 697 3744 
Q 697 4328 969 4595 
Q 1241 4863 1831 4863 
L 2375 4863 
z
" transform="scale(0.015625)"/>
      <path id="DejaVuSans-72" d="M 2631 2963 
Q 2534 3019 2420 3045 
Q 2306 3072 2169 3072 
Q 1681 3072 1420 2755 
Q 1159 2438 1159 1844 
L 1159 0 
L 581 0 
L 581 3500 
L 1159 3500 
L 1159 2956 
Q 1341 3275 1631 3429 
Q 1922 3584 2338 3584 
Q 2397 3584 2469 3576 
Q 2541 3569 2628 3553 
L 2631 2963 
z
" transform="scale(0.015625)"/>
      <path id="DejaVuSans-27" d="M 1147 4666 
L 1147 2931 
L 616 2931 
L 616 4666 
L 1147 4666 
z
" transform="scale(0.015625)"/>
     </defs>
     <use xlink:href="#DejaVuSans-50"/>
     <use xlink:href="#DejaVuSans-43" x="60.302734"/>
     <use xlink:href="#DejaVuSans-41" x="130.126953"/>
     <use xlink:href="#DejaVuSans-20" x="198.535156"/>
     <use xlink:href="#DejaVuSans-75" x="230.322266"/>
     <use xlink:href="#DejaVuSans-73" x="293.701172"/>
     <use xlink:href="#DejaVuSans-69" x="345.800781"/>
     <use xlink:href="#DejaVuSans-6e" x="373.583984"/>
     <use xlink:href="#DejaVuSans-67" x="436.962891"/>
     <use xlink:href="#DejaVuSans-20" x="500.439453"/>
     <use xlink:href="#DejaVuSans-74" x="532.226562"/>
     <use xlink:href="#DejaVuSans-68" x="571.435547"/>
     <use xlink:href="#DejaVuSans-65" x="634.814453"/>
     <use xlink:href="#DejaVuSans-20" x="696.337891"/>
     <use xlink:href="#DejaVuSans-74" x="728.125"/>
     <use xlink:href="#DejaVuSans-77" x="767.333984"/>
     <use xlink:href="#DejaVuSans-6f" x="849.121094"/>
     <use xlink:href="#DejaVuSans-20" x="910.302734"/>
     <use xlink:href="#DejaVuSans-66" x="942.089844"/>
     <use xlink:href="#DejaVuSans-69" x="977.294922"/>
     <use xlink:href="#DejaVuSans-72" x="1005.078125"/>
     <use xlink:href="#DejaVuSans-73" x="1046.191406"/>
     <use xlink:href="#DejaVuSans-74" x="1098.291016"/>
     <use xlink:href="#DejaVuSans-20" x="1137.5"/>
     <use xlink:href="#DejaVuSans-50" x="1169.287109"/>
     <use xlink:href="#DejaVuSans-43" x="1229.589844"/>
     <use xlink:href="#DejaVuSans-27" x="1299.414062"/>
     <use xlink:href="#DejaVuSans-73" x="1326.904297"/>
    </g>
   </g>
   <g id="legend_1">
    <g id="patch_7">
     <path d="M 1085.498437 221.299375 
L 1289 221.299375 
Q 1291 221.299375 1291 219.299375 
L 1291 58.84 
Q 1291 56.84 1289 56.84 
L 1085.498437 56.84 
Q 1083.498437 56.84 1083.498437 58.84 
L 1083.498437 219.299375 
Q 1083.498437 221.299375 1085.498437 221.299375 
z
" style="fill: #ffffff; opacity: 0.8; stroke: #cccccc; stroke-linejoin: miter"/>
    </g>
    <g id="PathCollection_12">
     <defs>
      <path id="ma18499064e" d="M 0 3 
C 0.795609 3 1.55874 2.683901 2.12132 2.12132 
C 2.683901 1.55874 3 0.795609 3 0 
C 3 -0.795609 2.683901 -1.55874 2.12132 -2.12132 
C 1.55874 -2.683901 0.795609 -3 0 -3 
C -0.795609 -3 -1.55874 -2.683901 -2.12132 -2.12132 
C -2.683901 -1.55874 -3 -0.795609 -3 0 
C -3 0.795609 -2.683901 1.55874 -2.12132 2.12132 
C -1.55874 2.683901 -0.795609 3 0 3 
z
" style="stroke: #1f77b4"/>
     </defs>
     <g>
      <use xlink:href="#ma18499064e" x="1097.498437" y="65.813437" style="fill: #1f77b4; stroke: #1f77b4"/>
     </g>
    </g>
    <g id="text_12">
     <!-- Benzenoids -->
     <g transform="translate(1115.498437 68.438437) scale(0.1 -0.1)">
      <defs>
       <path id="DejaVuSans-42" d="M 1259 2228 
L 1259 519 
L 2272 519 
Q 2781 519 3026 730 
Q 3272 941 3272 1375 
Q 3272 1813 3026 2020 
Q 2781 2228 2272 2228 
L 1259 2228 
z
M 1259 4147 
L 1259 2741 
L 2194 2741 
Q 2656 2741 2882 2914 
Q 3109 3088 3109 3444 
Q 3109 3797 2882 3972 
Q 2656 4147 2194 4147 
L 1259 4147 
z
M 628 4666 
L 2241 4666 
Q 2963 4666 3353 4366 
Q 3744 4066 3744 3513 
Q 3744 3084 3544 2831 
Q 3344 2578 2956 2516 
Q 3422 2416 3680 2098 
Q 3938 1781 3938 1306 
Q 3938 681 3513 340 
Q 3088 0 2303 0 
L 628 0 
L 628 4666 
z
" transform="scale(0.015625)"/>
       <path id="DejaVuSans-7a" d="M 353 3500 
L 3084 3500 
L 3084 2975 
L 922 459 
L 3084 459 
L 3084 0 
L 275 0 
L 275 525 
L 2438 3041 
L 353 3041 
L 353 3500 
z
" transform="scale(0.015625)"/>
       <path id="DejaVuSans-64" d="M 2906 2969 
L 2906 4863 
L 3481 4863 
L 3481 0 
L 2906 0 
L 2906 525 
Q 2725 213 2448 61 
Q 2172 -91 1784 -91 
Q 1150 -91 751 415 
Q 353 922 353 1747 
Q 353 2572 751 3078 
Q 1150 3584 1784 3584 
Q 2172 3584 2448 3432 
Q 2725 3281 2906 2969 
z
M 947 1747 
Q 947 1113 1208 752 
Q 1469 391 1925 391 
Q 2381 391 2643 752 
Q 2906 1113 2906 1747 
Q 2906 2381 2643 2742 
Q 2381 3103 1925 3103 
Q 1469 3103 1208 2742 
Q 947 2381 947 1747 
z
" transform="scale(0.015625)"/>
      </defs>
      <use xlink:href="#DejaVuSans-42"/>
      <use xlink:href="#DejaVuSans-65" x="68.603516"/>
      <use xlink:href="#DejaVuSans-6e" x="130.126953"/>
      <use xlink:href="#DejaVuSans-7a" x="193.505859"/>
      <use xlink:href="#DejaVuSans-65" x="245.996094"/>
      <use xlink:href="#DejaVuSans-6e" x="307.519531"/>
      <use xlink:href="#DejaVuSans-6f" x="370.898438"/>
      <use xlink:href="#DejaVuSans-69" x="432.080078"/>
      <use xlink:href="#DejaVuSans-64" x="459.863281"/>
      <use xlink:href="#DejaVuSans-73" x="523.339844"/>
     </g>
    </g>
    <g id="PathCollection_13">
     <defs>
      <path id="m86f4944542" d="M 0 3 
C 0.795609 3 1.55874 2.683901 2.12132 2.12132 
C 2.683901 1.55874 3 0.795609 3 0 
C 3 -0.795609 2.683901 -1.55874 2.12132 -2.12132 
C 1.55874 -2.683901 0.795609 -3 0 -3 
C -0.795609 -3 -1.55874 -2.683901 -2.12132 -2.12132 
C -2.683901 -1.55874 -3 -0.795609 -3 0 
C -3 0.795609 -2.683901 1.55874 -2.12132 2.12132 
C -1.55874 2.683901 -0.795609 3 0 3 
z
" style="stroke: #ff7f0e"/>
     </defs>
     <g>
      <use xlink:href="#m86f4944542" x="1097.498437" y="80.491562" style="fill: #ff7f0e; stroke: #ff7f0e"/>
     </g>
    </g>
    <g id="text_13">
     <!-- Hydrocarbons -->
     <g transform="translate(1115.498437 83.116562) scale(0.1 -0.1)">
      <defs>
       <path id="DejaVuSans-48" d="M 628 4666 
L 1259 4666 
L 1259 2753 
L 3553 2753 
L 3553 4666 
L 4184 4666 
L 4184 0 
L 3553 0 
L 3553 2222 
L 1259 2222 
L 1259 0 
L 628 0 
L 628 4666 
z
" transform="scale(0.015625)"/>
       <path id="DejaVuSans-79" d="M 2059 -325 
Q 1816 -950 1584 -1140 
Q 1353 -1331 966 -1331 
L 506 -1331 
L 506 -850 
L 844 -850 
Q 1081 -850 1212 -737 
Q 1344 -625 1503 -206 
L 1606 56 
L 191 3500 
L 800 3500 
L 1894 763 
L 2988 3500 
L 3597 3500 
L 2059 -325 
z
" transform="scale(0.015625)"/>
       <path id="DejaVuSans-63" d="M 3122 3366 
L 3122 2828 
Q 2878 2963 2633 3030 
Q 2388 3097 2138 3097 
Q 1578 3097 1268 2742 
Q 959 2388 959 1747 
Q 959 1106 1268 751 
Q 1578 397 2138 397 
Q 2388 397 2633 464 
Q 2878 531 3122 666 
L 3122 134 
Q 2881 22 2623 -34 
Q 2366 -91 2075 -91 
Q 1284 -91 818 406 
Q 353 903 353 1747 
Q 353 2603 823 3093 
Q 1294 3584 2113 3584 
Q 2378 3584 2631 3529 
Q 2884 3475 3122 3366 
z
" transform="scale(0.015625)"/>
       <path id="DejaVuSans-61" d="M 2194 1759 
Q 1497 1759 1228 1600 
Q 959 1441 959 1056 
Q 959 750 1161 570 
Q 1363 391 1709 391 
Q 2188 391 2477 730 
Q 2766 1069 2766 1631 
L 2766 1759 
L 2194 1759 
z
M 3341 1997 
L 3341 0 
L 2766 0 
L 2766 531 
Q 2569 213 2275 61 
Q 1981 -91 1556 -91 
Q 1019 -91 701 211 
Q 384 513 384 1019 
Q 384 1609 779 1909 
Q 1175 2209 1959 2209 
L 2766 2209 
L 2766 2266 
Q 2766 2663 2505 2880 
Q 2244 3097 1772 3097 
Q 1472 3097 1187 3025 
Q 903 2953 641 2809 
L 641 3341 
Q 956 3463 1253 3523 
Q 1550 3584 1831 3584 
Q 2591 3584 2966 3190 
Q 3341 2797 3341 1997 
z
" transform="scale(0.015625)"/>
       <path id="DejaVuSans-62" d="M 3116 1747 
Q 3116 2381 2855 2742 
Q 2594 3103 2138 3103 
Q 1681 3103 1420 2742 
Q 1159 2381 1159 1747 
Q 1159 1113 1420 752 
Q 1681 391 2138 391 
Q 2594 391 2855 752 
Q 3116 1113 3116 1747 
z
M 1159 2969 
Q 1341 3281 1617 3432 
Q 1894 3584 2278 3584 
Q 2916 3584 3314 3078 
Q 3713 2572 3713 1747 
Q 3713 922 3314 415 
Q 2916 -91 2278 -91 
Q 1894 -91 1617 61 
Q 1341 213 1159 525 
L 1159 0 
L 581 0 
L 581 4863 
L 1159 4863 
L 1159 2969 
z
" transform="scale(0.015625)"/>
      </defs>
      <use xlink:href="#DejaVuSans-48"/>
      <use xlink:href="#DejaVuSans-79" x="75.195312"/>
      <use xlink:href="#DejaVuSans-64" x="134.375"/>
      <use xlink:href="#DejaVuSans-72" x="197.851562"/>
      <use xlink:href="#DejaVuSans-6f" x="236.714844"/>
      <use xlink:href="#DejaVuSans-63" x="297.896484"/>
      <use xlink:href="#DejaVuSans-61" x="352.876953"/>
      <use xlink:href="#DejaVuSans-72" x="414.15625"/>
      <use xlink:href="#DejaVuSans-62" x="455.269531"/>
      <use xlink:href="#DejaVuSans-6f" x="518.746094"/>
      <use xlink:href="#DejaVuSans-6e" x="579.927734"/>
      <use xlink:href="#DejaVuSans-73" x="643.306641"/>
     </g>
    </g>
    <g id="PathCollection_14">
     <defs>
      <path id="m0dd84df1d2" d="M 0 3 
C 0.795609 3 1.55874 2.683901 2.12132 2.12132 
C 2.683901 1.55874 3 0.795609 3 0 
C 3 -0.795609 2.683901 -1.55874 2.12132 -2.12132 
C 1.55874 -2.683901 0.795609 -3 0 -3 
C -0.795609 -3 -1.55874 -2.683901 -2.12132 -2.12132 
C -2.683901 -1.55874 -3 -0.795609 -3 0 
C -3 0.795609 -2.683901 1.55874 -2.12132 2.12132 
C -1.55874 2.683901 -0.795609 3 0 3 
z
" style="stroke: #2ca02c"/>
     </defs>
     <g>
      <use xlink:href="#m0dd84df1d2" x="1097.498437" y="95.169688" style="fill: #2ca02c; stroke: #2ca02c"/>
     </g>
    </g>
    <g id="text_14">
     <!-- Lipids and lipid-like molecules -->
     <g transform="translate(1115.498437 97.794688) scale(0.1 -0.1)">
      <defs>
       <path id="DejaVuSans-4c" d="M 628 4666 
L 1259 4666 
L 1259 531 
L 3531 531 
L 3531 0 
L 628 0 
L 628 4666 
z
" transform="scale(0.015625)"/>
       <path id="DejaVuSans-70" d="M 1159 525 
L 1159 -1331 
L 581 -1331 
L 581 3500 
L 1159 3500 
L 1159 2969 
Q 1341 3281 1617 3432 
Q 1894 3584 2278 3584 
Q 2916 3584 3314 3078 
Q 3713 2572 3713 1747 
Q 3713 922 3314 415 
Q 2916 -91 2278 -91 
Q 1894 -91 1617 61 
Q 1341 213 1159 525 
z
M 3116 1747 
Q 3116 2381 2855 2742 
Q 2594 3103 2138 3103 
Q 1681 3103 1420 2742 
Q 1159 2381 1159 1747 
Q 1159 1113 1420 752 
Q 1681 391 2138 391 
Q 2594 391 2855 752 
Q 3116 1113 3116 1747 
z
" transform="scale(0.015625)"/>
       <path id="DejaVuSans-6c" d="M 603 4863 
L 1178 4863 
L 1178 0 
L 603 0 
L 603 4863 
z
" transform="scale(0.015625)"/>
       <path id="DejaVuSans-2d" d="M 313 2009 
L 1997 2009 
L 1997 1497 
L 313 1497 
L 313 2009 
z
" transform="scale(0.015625)"/>
       <path id="DejaVuSans-6b" d="M 581 4863 
L 1159 4863 
L 1159 1991 
L 2875 3500 
L 3609 3500 
L 1753 1863 
L 3688 0 
L 2938 0 
L 1159 1709 
L 1159 0 
L 581 0 
L 581 4863 
z
" transform="scale(0.015625)"/>
       <path id="DejaVuSans-6d" d="M 3328 2828 
Q 3544 3216 3844 3400 
Q 4144 3584 4550 3584 
Q 5097 3584 5394 3201 
Q 5691 2819 5691 2113 
L 5691 0 
L 5113 0 
L 5113 2094 
Q 5113 2597 4934 2840 
Q 4756 3084 4391 3084 
Q 3944 3084 3684 2787 
Q 3425 2491 3425 1978 
L 3425 0 
L 2847 0 
L 2847 2094 
Q 2847 2600 2669 2842 
Q 2491 3084 2119 3084 
Q 1678 3084 1418 2786 
Q 1159 2488 1159 1978 
L 1159 0 
L 581 0 
L 581 3500 
L 1159 3500 
L 1159 2956 
Q 1356 3278 1631 3431 
Q 1906 3584 2284 3584 
Q 2666 3584 2933 3390 
Q 3200 3197 3328 2828 
z
" transform="scale(0.015625)"/>
      </defs>
      <use xlink:href="#DejaVuSans-4c"/>
      <use xlink:href="#DejaVuSans-69" x="55.712891"/>
      <use xlink:href="#DejaVuSans-70" x="83.496094"/>
      <use xlink:href="#DejaVuSans-69" x="146.972656"/>
      <use xlink:href="#DejaVuSans-64" x="174.755859"/>
      <use xlink:href="#DejaVuSans-73" x="238.232422"/>
      <use xlink:href="#DejaVuSans-20" x="290.332031"/>
      <use xlink:href="#DejaVuSans-61" x="322.119141"/>
      <use xlink:href="#DejaVuSans-6e" x="383.398438"/>
      <use xlink:href="#DejaVuSans-64" x="446.777344"/>
      <use xlink:href="#DejaVuSans-20" x="510.253906"/>
      <use xlink:href="#DejaVuSans-6c" x="542.041016"/>
      <use xlink:href="#DejaVuSans-69" x="569.824219"/>
      <use xlink:href="#DejaVuSans-70" x="597.607422"/>
      <use xlink:href="#DejaVuSans-69" x="661.083984"/>
      <use xlink:href="#DejaVuSans-64" x="688.867188"/>
      <use xlink:href="#DejaVuSans-2d" x="752.34375"/>
      <use xlink:href="#DejaVuSans-6c" x="788.427734"/>
      <use xlink:href="#DejaVuSans-69" x="816.210938"/>
      <use xlink:href="#DejaVuSans-6b" x="843.994141"/>
      <use xlink:href="#DejaVuSans-65" x="898.279297"/>
      <use xlink:href="#DejaVuSans-20" x="959.802734"/>
      <use xlink:href="#DejaVuSans-6d" x="991.589844"/>
      <use xlink:href="#DejaVuSans-6f" x="1089.001953"/>
      <use xlink:href="#DejaVuSans-6c" x="1150.183594"/>
      <use xlink:href="#DejaVuSans-65" x="1177.966797"/>
      <use xlink:href="#DejaVuSans-63" x="1239.490234"/>
      <use xlink:href="#DejaVuSans-75" x="1294.470703"/>
      <use xlink:href="#DejaVuSans-6c" x="1357.849609"/>
      <use xlink:href="#DejaVuSans-65" x="1385.632812"/>
      <use xlink:href="#DejaVuSans-73" x="1447.15625"/>
     </g>
    </g>
    <g id="PathCollection_15">
     <defs>
      <path id="mbe5b85077f" d="M 0 3 
C 0.795609 3 1.55874 2.683901 2.12132 2.12132 
C 2.683901 1.55874 3 0.795609 3 0 
C 3 -0.795609 2.683901 -1.55874 2.12132 -2.12132 
C 1.55874 -2.683901 0.795609 -3 0 -3 
C -0.795609 -3 -1.55874 -2.683901 -2.12132 -2.12132 
C -2.683901 -1.55874 -3 -0.795609 -3 0 
C -3 0.795609 -2.683901 1.55874 -2.12132 2.12132 
C -1.55874 2.683901 -0.795609 3 0 3 
z
" style="stroke: #d62728"/>
     </defs>
     <g>
      <use xlink:href="#mbe5b85077f" x="1097.498437" y="109.847812" style="fill: #d62728; stroke: #d62728"/>
     </g>
    </g>
    <g id="text_15">
     <!-- Organic acids and derivatives -->
     <g transform="translate(1115.498437 112.472812) scale(0.1 -0.1)">
      <defs>
       <path id="DejaVuSans-4f" d="M 2522 4238 
Q 1834 4238 1429 3725 
Q 1025 3213 1025 2328 
Q 1025 1447 1429 934 
Q 1834 422 2522 422 
Q 3209 422 3611 934 
Q 4013 1447 4013 2328 
Q 4013 3213 3611 3725 
Q 3209 4238 2522 4238 
z
M 2522 4750 
Q 3503 4750 4090 4092 
Q 4678 3434 4678 2328 
Q 4678 1225 4090 567 
Q 3503 -91 2522 -91 
Q 1538 -91 948 565 
Q 359 1222 359 2328 
Q 359 3434 948 4092 
Q 1538 4750 2522 4750 
z
" transform="scale(0.015625)"/>
       <path id="DejaVuSans-76" d="M 191 3500 
L 800 3500 
L 1894 563 
L 2988 3500 
L 3597 3500 
L 2284 0 
L 1503 0 
L 191 3500 
z
" transform="scale(0.015625)"/>
      </defs>
      <use xlink:href="#DejaVuSans-4f"/>
      <use xlink:href="#DejaVuSans-72" x="78.710938"/>
      <use xlink:href="#DejaVuSans-67" x="118.074219"/>
      <use xlink:href="#DejaVuSans-61" x="181.550781"/>
      <use xlink:href="#DejaVuSans-6e" x="242.830078"/>
      <use xlink:href="#DejaVuSans-69" x="306.208984"/>
      <use xlink:href="#DejaVuSans-63" x="333.992188"/>
      <use xlink:href="#DejaVuSans-20" x="388.972656"/>
      <use xlink:href="#DejaVuSans-61" x="420.759766"/>
      <use xlink:href="#DejaVuSans-63" x="482.039062"/>
      <use xlink:href="#DejaVuSans-69" x="537.019531"/>
      <use xlink:href="#DejaVuSans-64" x="564.802734"/>
      <use xlink:href="#DejaVuSans-73" x="628.279297"/>
      <use xlink:href="#DejaVuSans-20" x="680.378906"/>
      <use xlink:href="#DejaVuSans-61" x="712.166016"/>
      <use xlink:href="#DejaVuSans-6e" x="773.445312"/>
      <use xlink:href="#DejaVuSans-64" x="836.824219"/>
      <use xlink:href="#DejaVuSans-20" x="900.300781"/>
      <use xlink:href="#DejaVuSans-64" x="932.087891"/>
      <use xlink:href="#DejaVuSans-65" x="995.564453"/>
      <use xlink:href="#DejaVuSans-72" x="1057.087891"/>
      <use xlink:href="#DejaVuSans-69" x="1098.201172"/>
      <use xlink:href="#DejaVuSans-76" x="1125.984375"/>
      <use xlink:href="#DejaVuSans-61" x="1185.164062"/>
      <use xlink:href="#DejaVuSans-74" x="1246.443359"/>
      <use xlink:href="#DejaVuSans-69" x="1285.652344"/>
      <use xlink:href="#DejaVuSans-76" x="1313.435547"/>
      <use xlink:href="#DejaVuSans-65" x="1372.615234"/>
      <use xlink:href="#DejaVuSans-73" x="1434.138672"/>
     </g>
    </g>
    <g id="PathCollection_16">
     <defs>
      <path id="med728d2c7c" d="M 0 3 
C 0.795609 3 1.55874 2.683901 2.12132 2.12132 
C 2.683901 1.55874 3 0.795609 3 0 
C 3 -0.795609 2.683901 -1.55874 2.12132 -2.12132 
C 1.55874 -2.683901 0.795609 -3 0 -3 
C -0.795609 -3 -1.55874 -2.683901 -2.12132 -2.12132 
C -2.683901 -1.55874 -3 -0.795609 -3 0 
C -3 0.795609 -2.683901 1.55874 -2.12132 2.12132 
C -1.55874 2.683901 -0.795609 3 0 3 
z
" style="stroke: #9467bd"/>
     </defs>
     <g>
      <use xlink:href="#med728d2c7c" x="1097.498437" y="124.525937" style="fill: #9467bd; stroke: #9467bd"/>
     </g>
    </g>
    <g id="text_16">
     <!-- Organic nitrogen compounds -->
     <g transform="translate(1115.498437 127.150937) scale(0.1 -0.1)">
      <use xlink:href="#DejaVuSans-4f"/>
      <use xlink:href="#DejaVuSans-72" x="78.710938"/>
      <use xlink:href="#DejaVuSans-67" x="118.074219"/>
      <use xlink:href="#DejaVuSans-61" x="181.550781"/>
      <use xlink:href="#DejaVuSans-6e" x="242.830078"/>
      <use xlink:href="#DejaVuSans-69" x="306.208984"/>
      <use xlink:href="#DejaVuSans-63" x="333.992188"/>
      <use xlink:href="#DejaVuSans-20" x="388.972656"/>
      <use xlink:href="#DejaVuSans-6e" x="420.759766"/>
      <use xlink:href="#DejaVuSans-69" x="484.138672"/>
      <use xlink:href="#DejaVuSans-74" x="511.921875"/>
      <use xlink:href="#DejaVuSans-72" x="551.130859"/>
      <use xlink:href="#DejaVuSans-6f" x="589.994141"/>
      <use xlink:href="#DejaVuSans-67" x="651.175781"/>
      <use xlink:href="#DejaVuSans-65" x="714.652344"/>
      <use xlink:href="#DejaVuSans-6e" x="776.175781"/>
      <use xlink:href="#DejaVuSans-20" x="839.554688"/>
      <use xlink:href="#DejaVuSans-63" x="871.341797"/>
      <use xlink:href="#DejaVuSans-6f" x="926.322266"/>
      <use xlink:href="#DejaVuSans-6d" x="987.503906"/>
      <use xlink:href="#DejaVuSans-70" x="1084.916016"/>
      <use xlink:href="#DejaVuSans-6f" x="1148.392578"/>
      <use xlink:href="#DejaVuSans-75" x="1209.574219"/>
      <use xlink:href="#DejaVuSans-6e" x="1272.953125"/>
      <use xlink:href="#DejaVuSans-64" x="1336.332031"/>
      <use xlink:href="#DejaVuSans-73" x="1399.808594"/>
     </g>
    </g>
    <g id="PathCollection_17">
     <defs>
      <path id="m4d8b578da5" d="M 0 3 
C 0.795609 3 1.55874 2.683901 2.12132 2.12132 
C 2.683901 1.55874 3 0.795609 3 0 
C 3 -0.795609 2.683901 -1.55874 2.12132 -2.12132 
C 1.55874 -2.683901 0.795609 -3 0 -3 
C -0.795609 -3 -1.55874 -2.683901 -2.12132 -2.12132 
C -2.683901 -1.55874 -3 -0.795609 -3 0 
C -3 0.795609 -2.683901 1.55874 -2.12132 2.12132 
C -1.55874 2.683901 -0.795609 3 0 3 
z
" style="stroke: #8c564b"/>
     </defs>
     <g>
      <use xlink:href="#m4d8b578da5" x="1097.498437" y="139.204062" style="fill: #8c564b; stroke: #8c564b"/>
     </g>
    </g>
    <g id="text_17">
     <!-- Organic oxygen compounds -->
     <g transform="translate(1115.498437 141.829062) scale(0.1 -0.1)">
      <defs>
       <path id="DejaVuSans-78" d="M 3513 3500 
L 2247 1797 
L 3578 0 
L 2900 0 
L 1881 1375 
L 863 0 
L 184 0 
L 1544 1831 
L 300 3500 
L 978 3500 
L 1906 2253 
L 2834 3500 
L 3513 3500 
z
" transform="scale(0.015625)"/>
      </defs>
      <use xlink:href="#DejaVuSans-4f"/>
      <use xlink:href="#DejaVuSans-72" x="78.710938"/>
      <use xlink:href="#DejaVuSans-67" x="118.074219"/>
      <use xlink:href="#DejaVuSans-61" x="181.550781"/>
      <use xlink:href="#DejaVuSans-6e" x="242.830078"/>
      <use xlink:href="#DejaVuSans-69" x="306.208984"/>
      <use xlink:href="#DejaVuSans-63" x="333.992188"/>
      <use xlink:href="#DejaVuSans-20" x="388.972656"/>
      <use xlink:href="#DejaVuSans-6f" x="420.759766"/>
      <use xlink:href="#DejaVuSans-78" x="478.816406"/>
      <use xlink:href="#DejaVuSans-79" x="537.996094"/>
      <use xlink:href="#DejaVuSans-67" x="597.175781"/>
      <use xlink:href="#DejaVuSans-65" x="660.652344"/>
      <use xlink:href="#DejaVuSans-6e" x="722.175781"/>
      <use xlink:href="#DejaVuSans-20" x="785.554688"/>
      <use xlink:href="#DejaVuSans-63" x="817.341797"/>
      <use xlink:href="#DejaVuSans-6f" x="872.322266"/>
      <use xlink:href="#DejaVuSans-6d" x="933.503906"/>
      <use xlink:href="#DejaVuSans-70" x="1030.916016"/>
      <use xlink:href="#DejaVuSans-6f" x="1094.392578"/>
      <use xlink:href="#DejaVuSans-75" x="1155.574219"/>
      <use xlink:href="#DejaVuSans-6e" x="1218.953125"/>
      <use xlink:href="#DejaVuSans-64" x="1282.332031"/>
      <use xlink:href="#DejaVuSans-73" x="1345.808594"/>
     </g>
    </g>
    <g id="PathCollection_18">
     <defs>
      <path id="m836bb0abb0" d="M 0 3 
C 0.795609 3 1.55874 2.683901 2.12132 2.12132 
C 2.683901 1.55874 3 0.795609 3 0 
C 3 -0.795609 2.683901 -1.55874 2.12132 -2.12132 
C 1.55874 -2.683901 0.795609 -3 0 -3 
C -0.795609 -3 -1.55874 -2.683901 -2.12132 -2.12132 
C -2.683901 -1.55874 -3 -0.795609 -3 0 
C -3 0.795609 -2.683901 1.55874 -2.12132 2.12132 
C -1.55874 2.683901 -0.795609 3 0 3 
z
" style="stroke: #e377c2"/>
     </defs>
     <g>
      <use xlink:href="#m836bb0abb0" x="1097.498437" y="153.882187" style="fill: #e377c2; stroke: #e377c2"/>
     </g>
    </g>
    <g id="text_18">
     <!-- Organohalogen compounds -->
     <g transform="translate(1115.498437 156.507187) scale(0.1 -0.1)">
      <use xlink:href="#DejaVuSans-4f"/>
      <use xlink:href="#DejaVuSans-72" x="78.710938"/>
      <use xlink:href="#DejaVuSans-67" x="118.074219"/>
      <use xlink:href="#DejaVuSans-61" x="181.550781"/>
      <use xlink:href="#DejaVuSans-6e" x="242.830078"/>
      <use xlink:href="#DejaVuSans-6f" x="306.208984"/>
      <use xlink:href="#DejaVuSans-68" x="367.390625"/>
      <use xlink:href="#DejaVuSans-61" x="430.769531"/>
      <use xlink:href="#DejaVuSans-6c" x="492.048828"/>
      <use xlink:href="#DejaVuSans-6f" x="519.832031"/>
      <use xlink:href="#DejaVuSans-67" x="581.013672"/>
      <use xlink:href="#DejaVuSans-65" x="644.490234"/>
      <use xlink:href="#DejaVuSans-6e" x="706.013672"/>
      <use xlink:href="#DejaVuSans-20" x="769.392578"/>
      <use xlink:href="#DejaVuSans-63" x="801.179688"/>
      <use xlink:href="#DejaVuSans-6f" x="856.160156"/>
      <use xlink:href="#DejaVuSans-6d" x="917.341797"/>
      <use xlink:href="#DejaVuSans-70" x="1014.753906"/>
      <use xlink:href="#DejaVuSans-6f" x="1078.230469"/>
      <use xlink:href="#DejaVuSans-75" x="1139.412109"/>
      <use xlink:href="#DejaVuSans-6e" x="1202.791016"/>
      <use xlink:href="#DejaVuSans-64" x="1266.169922"/>
      <use xlink:href="#DejaVuSans-73" x="1329.646484"/>
     </g>
    </g>
    <g id="PathCollection_19">
     <defs>
      <path id="m73a3b0fbb9" d="M 0 3 
C 0.795609 3 1.55874 2.683901 2.12132 2.12132 
C 2.683901 1.55874 3 0.795609 3 0 
C 3 -0.795609 2.683901 -1.55874 2.12132 -2.12132 
C 1.55874 -2.683901 0.795609 -3 0 -3 
C -0.795609 -3 -1.55874 -2.683901 -2.12132 -2.12132 
C -2.683901 -1.55874 -3 -0.795609 -3 0 
C -3 0.795609 -2.683901 1.55874 -2.12132 2.12132 
C -1.55874 2.683901 -0.795609 3 0 3 
z
" style="stroke: #7f7f7f"/>
     </defs>
     <g>
      <use xlink:href="#m73a3b0fbb9" x="1097.498437" y="168.560312" style="fill: #7f7f7f; stroke: #7f7f7f"/>
     </g>
    </g>
    <g id="text_19">
     <!-- Organoheterocyclic compounds -->
     <g transform="translate(1115.498437 171.185312) scale(0.1 -0.1)">
      <use xlink:href="#DejaVuSans-4f"/>
      <use xlink:href="#DejaVuSans-72" x="78.710938"/>
      <use xlink:href="#DejaVuSans-67" x="118.074219"/>
      <use xlink:href="#DejaVuSans-61" x="181.550781"/>
      <use xlink:href="#DejaVuSans-6e" x="242.830078"/>
      <use xlink:href="#DejaVuSans-6f" x="306.208984"/>
      <use xlink:href="#DejaVuSans-68" x="367.390625"/>
      <use xlink:href="#DejaVuSans-65" x="430.769531"/>
      <use xlink:href="#DejaVuSans-74" x="492.292969"/>
      <use xlink:href="#DejaVuSans-65" x="531.501953"/>
      <use xlink:href="#DejaVuSans-72" x="593.025391"/>
      <use xlink:href="#DejaVuSans-6f" x="631.888672"/>
      <use xlink:href="#DejaVuSans-63" x="693.070312"/>
      <use xlink:href="#DejaVuSans-79" x="748.050781"/>
      <use xlink:href="#DejaVuSans-63" x="807.230469"/>
      <use xlink:href="#DejaVuSans-6c" x="862.210938"/>
      <use xlink:href="#DejaVuSans-69" x="889.994141"/>
      <use xlink:href="#DejaVuSans-63" x="917.777344"/>
      <use xlink:href="#DejaVuSans-20" x="972.757812"/>
      <use xlink:href="#DejaVuSans-63" x="1004.544922"/>
      <use xlink:href="#DejaVuSans-6f" x="1059.525391"/>
      <use xlink:href="#DejaVuSans-6d" x="1120.707031"/>
      <use xlink:href="#DejaVuSans-70" x="1218.119141"/>
      <use xlink:href="#DejaVuSans-6f" x="1281.595703"/>
      <use xlink:href="#DejaVuSans-75" x="1342.777344"/>
      <use xlink:href="#DejaVuSans-6e" x="1406.15625"/>
      <use xlink:href="#DejaVuSans-64" x="1469.535156"/>
      <use xlink:href="#DejaVuSans-73" x="1533.011719"/>
     </g>
    </g>
    <g id="PathCollection_20">
     <defs>
      <path id="m66f799a5d0" d="M 0 3 
C 0.795609 3 1.55874 2.683901 2.12132 2.12132 
C 2.683901 1.55874 3 0.795609 3 0 
C 3 -0.795609 2.683901 -1.55874 2.12132 -2.12132 
C 1.55874 -2.683901 0.795609 -3 0 -3 
C -0.795609 -3 -1.55874 -2.683901 -2.12132 -2.12132 
C -2.683901 -1.55874 -3 -0.795609 -3 0 
C -3 0.795609 -2.683901 1.55874 -2.12132 2.12132 
C -1.55874 2.683901 -0.795609 3 0 3 
z
" style="stroke: #bcbd22"/>
     </defs>
     <g>
      <use xlink:href="#m66f799a5d0" x="1097.498437" y="183.238437" style="fill: #bcbd22; stroke: #bcbd22"/>
     </g>
    </g>
    <g id="text_20">
     <!-- Organophosphorus compounds -->
     <g transform="translate(1115.498437 185.863437) scale(0.1 -0.1)">
      <use xlink:href="#DejaVuSans-4f"/>
      <use xlink:href="#DejaVuSans-72" x="78.710938"/>
      <use xlink:href="#DejaVuSans-67" x="118.074219"/>
      <use xlink:href="#DejaVuSans-61" x="181.550781"/>
      <use xlink:href="#DejaVuSans-6e" x="242.830078"/>
      <use xlink:href="#DejaVuSans-6f" x="306.208984"/>
      <use xlink:href="#DejaVuSans-70" x="367.390625"/>
      <use xlink:href="#DejaVuSans-68" x="430.867188"/>
      <use xlink:href="#DejaVuSans-6f" x="494.246094"/>
      <use xlink:href="#DejaVuSans-73" x="555.427734"/>
      <use xlink:href="#DejaVuSans-70" x="607.527344"/>
      <use xlink:href="#DejaVuSans-68" x="671.003906"/>
      <use xlink:href="#DejaVuSans-6f" x="734.382812"/>
      <use xlink:href="#DejaVuSans-72" x="795.564453"/>
      <use xlink:href="#DejaVuSans-75" x="836.677734"/>
      <use xlink:href="#DejaVuSans-73" x="900.056641"/>
      <use xlink:href="#DejaVuSans-20" x="952.15625"/>
      <use xlink:href="#DejaVuSans-63" x="983.943359"/>
      <use xlink:href="#DejaVuSans-6f" x="1038.923828"/>
      <use xlink:href="#DejaVuSans-6d" x="1100.105469"/>
      <use xlink:href="#DejaVuSans-70" x="1197.517578"/>
      <use xlink:href="#DejaVuSans-6f" x="1260.994141"/>
      <use xlink:href="#DejaVuSans-75" x="1322.175781"/>
      <use xlink:href="#DejaVuSans-6e" x="1385.554688"/>
      <use xlink:href="#DejaVuSans-64" x="1448.933594"/>
      <use xlink:href="#DejaVuSans-73" x="1512.410156"/>
     </g>
    </g>
    <g id="PathCollection_21">
     <defs>
      <path id="m0935d4317e" d="M 0 3 
C 0.795609 3 1.55874 2.683901 2.12132 2.12132 
C 2.683901 1.55874 3 0.795609 3 0 
C 3 -0.795609 2.683901 -1.55874 2.12132 -2.12132 
C 1.55874 -2.683901 0.795609 -3 0 -3 
C -0.795609 -3 -1.55874 -2.683901 -2.12132 -2.12132 
C -2.683901 -1.55874 -3 -0.795609 -3 0 
C -3 0.795609 -2.683901 1.55874 -2.12132 2.12132 
C -1.55874 2.683901 -0.795609 3 0 3 
z
" style="stroke: #17becf"/>
     </defs>
     <g>
      <use xlink:href="#m0935d4317e" x="1097.498437" y="197.916562" style="fill: #17becf; stroke: #17becf"/>
     </g>
    </g>
    <g id="text_21">
     <!-- Organosulfur compounds -->
     <g transform="translate(1115.498437 200.541562) scale(0.1 -0.1)">
      <use xlink:href="#DejaVuSans-4f"/>
      <use xlink:href="#DejaVuSans-72" x="78.710938"/>
      <use xlink:href="#DejaVuSans-67" x="118.074219"/>
      <use xlink:href="#DejaVuSans-61" x="181.550781"/>
      <use xlink:href="#DejaVuSans-6e" x="242.830078"/>
      <use xlink:href="#DejaVuSans-6f" x="306.208984"/>
      <use xlink:href="#DejaVuSans-73" x="367.390625"/>
      <use xlink:href="#DejaVuSans-75" x="419.490234"/>
      <use xlink:href="#DejaVuSans-6c" x="482.869141"/>
      <use xlink:href="#DejaVuSans-66" x="510.652344"/>
      <use xlink:href="#DejaVuSans-75" x="545.857422"/>
      <use xlink:href="#DejaVuSans-72" x="609.236328"/>
      <use xlink:href="#DejaVuSans-20" x="650.349609"/>
      <use xlink:href="#DejaVuSans-63" x="682.136719"/>
      <use xlink:href="#DejaVuSans-6f" x="737.117188"/>
      <use xlink:href="#DejaVuSans-6d" x="798.298828"/>
      <use xlink:href="#DejaVuSans-70" x="895.710938"/>
      <use xlink:href="#DejaVuSans-6f" x="959.1875"/>
      <use xlink:href="#DejaVuSans-75" x="1020.369141"/>
      <use xlink:href="#DejaVuSans-6e" x="1083.748047"/>
      <use xlink:href="#DejaVuSans-64" x="1147.126953"/>
      <use xlink:href="#DejaVuSans-73" x="1210.603516"/>
     </g>
    </g>
    <g id="PathCollection_22">
     <g>
      <use xlink:href="#ma18499064e" x="1097.498437" y="212.594687" style="fill: #1f77b4; stroke: #1f77b4"/>
     </g>
    </g>
    <g id="text_22">
     <!-- Phenylpropanoids and polyketides -->
     <g transform="translate(1115.498437 215.219687) scale(0.1 -0.1)">
      <use xlink:href="#DejaVuSans-50"/>
      <use xlink:href="#DejaVuSans-68" x="60.302734"/>
      <use xlink:href="#DejaVuSans-65" x="123.681641"/>
      <use xlink:href="#DejaVuSans-6e" x="185.205078"/>
      <use xlink:href="#DejaVuSans-79" x="248.583984"/>
      <use xlink:href="#DejaVuSans-6c" x="307.763672"/>
      <use xlink:href="#DejaVuSans-70" x="335.546875"/>
      <use xlink:href="#DejaVuSans-72" x="399.023438"/>
      <use xlink:href="#DejaVuSans-6f" x="437.886719"/>
      <use xlink:href="#DejaVuSans-70" x="499.068359"/>
      <use xlink:href="#DejaVuSans-61" x="562.544922"/>
      <use xlink:href="#DejaVuSans-6e" x="623.824219"/>
      <use xlink:href="#DejaVuSans-6f" x="687.203125"/>
      <use xlink:href="#DejaVuSans-69" x="748.384766"/>
      <use xlink:href="#DejaVuSans-64" x="776.167969"/>
      <use xlink:href="#DejaVuSans-73" x="839.644531"/>
      <use xlink:href="#DejaVuSans-20" x="891.744141"/>
      <use xlink:href="#DejaVuSans-61" x="923.53125"/>
      <use xlink:href="#DejaVuSans-6e" x="984.810547"/>
      <use xlink:href="#DejaVuSans-64" x="1048.189453"/>
      <use xlink:href="#DejaVuSans-20" x="1111.666016"/>
      <use xlink:href="#DejaVuSans-70" x="1143.453125"/>
      <use xlink:href="#DejaVuSans-6f" x="1206.929688"/>
      <use xlink:href="#DejaVuSans-6c" x="1268.111328"/>
      <use xlink:href="#DejaVuSans-79" x="1295.894531"/>
      <use xlink:href="#DejaVuSans-6b" x="1355.074219"/>
      <use xlink:href="#DejaVuSans-65" x="1409.359375"/>
      <use xlink:href="#DejaVuSans-74" x="1470.882812"/>
      <use xlink:href="#DejaVuSans-69" x="1510.091797"/>
      <use xlink:href="#DejaVuSans-64" x="1537.875"/>
      <use xlink:href="#DejaVuSans-65" x="1601.351562"/>
      <use xlink:href="#DejaVuSans-73" x="1662.875"/>
     </g>
    </g>
   </g>
  </g>
 </g>
</svg>
