<?xml version="1.0" encoding="utf-8" standalone="no"?>
<!DOCTYPE svg PUBLIC "-//W3C//DTD SVG 1.1//EN"
  "http://www.w3.org/Graphics/SVG/1.1/DTD/svg11.dtd">
<svg xmlns:xlink="http://www.w3.org/1999/xlink" width="1440pt" height="1440pt" viewBox="0 0 1440 1440" xmlns="http://www.w3.org/2000/svg" version="1.1">
 <metadata>
  <rdf:RDF xmlns:dc="http://purl.org/dc/elements/1.1/" xmlns:cc="http://creativecommons.org/ns#" xmlns:rdf="http://www.w3.org/1999/02/22-rdf-syntax-ns#">
   <cc:Work>
    <dc:type rdf:resource="http://purl.org/dc/dcmitype/StillImage"/>
    <dc:date>2024-05-18T13:36:38.038815</dc:date>
    <dc:format>image/svg+xml</dc:format>
    <dc:creator>
     <cc:Agent>
      <dc:title>Matplotlib v3.8.3, https://matplotlib.org/</dc:title>
     </cc:Agent>
    </dc:creator>
   </cc:Work>
  </rdf:RDF>
 </metadata>
 <defs>
  <style type="text/css">*{stroke-linejoin: round; stroke-linecap: butt}</style>
 </defs>
 <g id="figure_1">
  <g id="patch_1">
   <path d="M 0 1440 
L 1440 1440 
L 1440 0 
L 0 0 
z
" style="fill: #ffffff"/>
  </g>
  <g id="axes_1">
   <g id="patch_2">
    <path d="M 116.82 641.68175 
L 716.54607 641.68175 
L 716.54607 48.48 
L 116.82 48.48 
z
" style="fill: #eaeaf2"/>
   </g>
   <g id="matplotlib.axis_1">
    <g id="xtick_1">
     <g id="line2d_1">
      <path d="M 157.013666 641.68175 
L 157.013666 48.48 
" clip-path="url(#pcc2d03c519)" style="fill: none; stroke: #ffffff; stroke-linecap: round"/>
     </g>
     <g id="text_1">
      <!-- 100 -->
      <g style="fill: #262626" transform="translate(140.330853 665.497375) scale(0.2 -0.2)">
       <defs>
        <path id="ArialMT-31" d="M 2384 0 
L 1822 0 
L 1822 3584 
Q 1619 3391 1289 3197 
Q 959 3003 697 2906 
L 697 3450 
Q 1169 3672 1522 3987 
Q 1875 4303 2022 4600 
L 2384 4600 
L 2384 0 
z
" transform="scale(0.015625)"/>
        <path id="ArialMT-30" d="M 266 2259 
Q 266 3072 433 3567 
Q 600 4063 929 4331 
Q 1259 4600 1759 4600 
Q 2128 4600 2406 4451 
Q 2684 4303 2865 4023 
Q 3047 3744 3150 3342 
Q 3253 2941 3253 2259 
Q 3253 1453 3087 958 
Q 2922 463 2592 192 
Q 2263 -78 1759 -78 
Q 1097 -78 719 397 
Q 266 969 266 2259 
z
M 844 2259 
Q 844 1131 1108 757 
Q 1372 384 1759 384 
Q 2147 384 2411 759 
Q 2675 1134 2675 2259 
Q 2675 3391 2411 3762 
Q 2147 4134 1753 4134 
Q 1366 4134 1134 3806 
Q 844 3388 844 2259 
z
" transform="scale(0.015625)"/>
       </defs>
       <use xlink:href="#ArialMT-31"/>
       <use xlink:href="#ArialMT-30" x="55.615234"/>
       <use xlink:href="#ArialMT-30" x="111.230469"/>
      </g>
     </g>
    </g>
    <g id="xtick_2">
     <g id="line2d_2">
      <path d="M 244.107199 641.68175 
L 244.107199 48.48 
" clip-path="url(#pcc2d03c519)" style="fill: none; stroke: #ffffff; stroke-linecap: round"/>
     </g>
     <g id="text_2">
      <!-- 200 -->
      <g style="fill: #262626" transform="translate(227.424386 665.497375) scale(0.2 -0.2)">
       <defs>
        <path id="ArialMT-32" d="M 3222 541 
L 3222 0 
L 194 0 
Q 188 203 259 391 
Q 375 700 629 1000 
Q 884 1300 1366 1694 
Q 2113 2306 2375 2664 
Q 2638 3022 2638 3341 
Q 2638 3675 2398 3904 
Q 2159 4134 1775 4134 
Q 1369 4134 1125 3890 
Q 881 3647 878 3216 
L 300 3275 
Q 359 3922 746 4261 
Q 1134 4600 1788 4600 
Q 2447 4600 2831 4234 
Q 3216 3869 3216 3328 
Q 3216 3053 3103 2787 
Q 2991 2522 2730 2228 
Q 2469 1934 1863 1422 
Q 1356 997 1212 845 
Q 1069 694 975 541 
L 3222 541 
z
" transform="scale(0.015625)"/>
       </defs>
       <use xlink:href="#ArialMT-32"/>
       <use xlink:href="#ArialMT-30" x="55.615234"/>
       <use xlink:href="#ArialMT-30" x="111.230469"/>
      </g>
     </g>
    </g>
    <g id="xtick_3">
     <g id="line2d_3">
      <path d="M 331.200732 641.68175 
L 331.200732 48.48 
" clip-path="url(#pcc2d03c519)" style="fill: none; stroke: #ffffff; stroke-linecap: round"/>
     </g>
     <g id="text_3">
      <!-- 300 -->
      <g style="fill: #262626" transform="translate(314.51792 665.497375) scale(0.2 -0.2)">
       <defs>
        <path id="ArialMT-33" d="M 269 1209 
L 831 1284 
Q 928 806 1161 595 
Q 1394 384 1728 384 
Q 2125 384 2398 659 
Q 2672 934 2672 1341 
Q 2672 1728 2419 1979 
Q 2166 2231 1775 2231 
Q 1616 2231 1378 2169 
L 1441 2663 
Q 1497 2656 1531 2656 
Q 1891 2656 2178 2843 
Q 2466 3031 2466 3422 
Q 2466 3731 2256 3934 
Q 2047 4138 1716 4138 
Q 1388 4138 1169 3931 
Q 950 3725 888 3313 
L 325 3413 
Q 428 3978 793 4289 
Q 1159 4600 1703 4600 
Q 2078 4600 2393 4439 
Q 2709 4278 2876 4000 
Q 3044 3722 3044 3409 
Q 3044 3113 2884 2869 
Q 2725 2625 2413 2481 
Q 2819 2388 3044 2092 
Q 3269 1797 3269 1353 
Q 3269 753 2831 336 
Q 2394 -81 1725 -81 
Q 1122 -81 723 278 
Q 325 638 269 1209 
z
" transform="scale(0.015625)"/>
       </defs>
       <use xlink:href="#ArialMT-33"/>
       <use xlink:href="#ArialMT-30" x="55.615234"/>
       <use xlink:href="#ArialMT-30" x="111.230469"/>
      </g>
     </g>
    </g>
    <g id="xtick_4">
     <g id="line2d_4">
      <path d="M 418.294265 641.68175 
L 418.294265 48.48 
" clip-path="url(#pcc2d03c519)" style="fill: none; stroke: #ffffff; stroke-linecap: round"/>
     </g>
     <g id="text_4">
      <!-- 400 -->
      <g style="fill: #262626" transform="translate(401.611453 665.497375) scale(0.2 -0.2)">
       <defs>
        <path id="ArialMT-34" d="M 2069 0 
L 2069 1097 
L 81 1097 
L 81 1613 
L 2172 4581 
L 2631 4581 
L 2631 1613 
L 3250 1613 
L 3250 1097 
L 2631 1097 
L 2631 0 
L 2069 0 
z
M 2069 1613 
L 2069 3678 
L 634 1613 
L 2069 1613 
z
" transform="scale(0.015625)"/>
       </defs>
       <use xlink:href="#ArialMT-34"/>
       <use xlink:href="#ArialMT-30" x="55.615234"/>
       <use xlink:href="#ArialMT-30" x="111.230469"/>
      </g>
     </g>
    </g>
    <g id="xtick_5">
     <g id="line2d_5">
      <path d="M 505.387799 641.68175 
L 505.387799 48.48 
" clip-path="url(#pcc2d03c519)" style="fill: none; stroke: #ffffff; stroke-linecap: round"/>
     </g>
     <g id="text_5">
      <!-- 500 -->
      <g style="fill: #262626" transform="translate(488.704986 665.497375) scale(0.2 -0.2)">
       <defs>
        <path id="ArialMT-35" d="M 266 1200 
L 856 1250 
Q 922 819 1161 601 
Q 1400 384 1738 384 
Q 2144 384 2425 690 
Q 2706 997 2706 1503 
Q 2706 1984 2436 2262 
Q 2166 2541 1728 2541 
Q 1456 2541 1237 2417 
Q 1019 2294 894 2097 
L 366 2166 
L 809 4519 
L 3088 4519 
L 3088 3981 
L 1259 3981 
L 1013 2750 
Q 1425 3038 1878 3038 
Q 2478 3038 2890 2622 
Q 3303 2206 3303 1553 
Q 3303 931 2941 478 
Q 2500 -78 1738 -78 
Q 1113 -78 717 272 
Q 322 622 266 1200 
z
" transform="scale(0.015625)"/>
       </defs>
       <use xlink:href="#ArialMT-35"/>
       <use xlink:href="#ArialMT-30" x="55.615234"/>
       <use xlink:href="#ArialMT-30" x="111.230469"/>
      </g>
     </g>
    </g>
    <g id="xtick_6">
     <g id="line2d_6">
      <path d="M 592.481332 641.68175 
L 592.481332 48.48 
" clip-path="url(#pcc2d03c519)" style="fill: none; stroke: #ffffff; stroke-linecap: round"/>
     </g>
     <g id="text_6">
      <!-- 600 -->
      <g style="fill: #262626" transform="translate(575.798519 665.497375) scale(0.2 -0.2)">
       <defs>
        <path id="ArialMT-36" d="M 3184 3459 
L 2625 3416 
Q 2550 3747 2413 3897 
Q 2184 4138 1850 4138 
Q 1581 4138 1378 3988 
Q 1113 3794 959 3422 
Q 806 3050 800 2363 
Q 1003 2672 1297 2822 
Q 1591 2972 1913 2972 
Q 2475 2972 2870 2558 
Q 3266 2144 3266 1488 
Q 3266 1056 3080 686 
Q 2894 316 2569 119 
Q 2244 -78 1831 -78 
Q 1128 -78 684 439 
Q 241 956 241 2144 
Q 241 3472 731 4075 
Q 1159 4600 1884 4600 
Q 2425 4600 2770 4297 
Q 3116 3994 3184 3459 
z
M 888 1484 
Q 888 1194 1011 928 
Q 1134 663 1356 523 
Q 1578 384 1822 384 
Q 2178 384 2434 671 
Q 2691 959 2691 1453 
Q 2691 1928 2437 2201 
Q 2184 2475 1800 2475 
Q 1419 2475 1153 2201 
Q 888 1928 888 1484 
z
" transform="scale(0.015625)"/>
       </defs>
       <use xlink:href="#ArialMT-36"/>
       <use xlink:href="#ArialMT-30" x="55.615234"/>
       <use xlink:href="#ArialMT-30" x="111.230469"/>
      </g>
     </g>
    </g>
    <g id="xtick_7">
     <g id="line2d_7">
      <path d="M 679.574865 641.68175 
L 679.574865 48.48 
" clip-path="url(#pcc2d03c519)" style="fill: none; stroke: #ffffff; stroke-linecap: round"/>
     </g>
     <g id="text_7">
      <!-- 700 -->
      <g style="fill: #262626" transform="translate(662.892053 665.497375) scale(0.2 -0.2)">
       <defs>
        <path id="ArialMT-37" d="M 303 3981 
L 303 4522 
L 3269 4522 
L 3269 4084 
Q 2831 3619 2401 2847 
Q 1972 2075 1738 1259 
Q 1569 684 1522 0 
L 944 0 
Q 953 541 1156 1306 
Q 1359 2072 1739 2783 
Q 2119 3494 2547 3981 
L 303 3981 
z
" transform="scale(0.015625)"/>
       </defs>
       <use xlink:href="#ArialMT-37"/>
       <use xlink:href="#ArialMT-30" x="55.615234"/>
       <use xlink:href="#ArialMT-30" x="111.230469"/>
      </g>
     </g>
    </g>
    <g id="text_8">
     <!-- $T_m [K]$ -->
     <g style="fill: #262626" transform="translate(382.183035 691.753625) scale(0.25 -0.25)">
      <defs>
       <path id="DejaVuSans-Oblique-54" d="M 378 4666 
L 4325 4666 
L 4225 4134 
L 2559 4134 
L 1759 0 
L 1125 0 
L 1925 4134 
L 275 4134 
L 378 4666 
z
" transform="scale(0.015625)"/>
       <path id="DejaVuSans-Oblique-6d" d="M 5747 2113 
L 5338 0 
L 4763 0 
L 5166 2094 
Q 5191 2228 5203 2325 
Q 5216 2422 5216 2491 
Q 5216 2772 5059 2928 
Q 4903 3084 4622 3084 
Q 4203 3084 3875 2770 
Q 3547 2456 3450 1953 
L 3066 0 
L 2491 0 
L 2900 2094 
Q 2925 2209 2937 2307 
Q 2950 2406 2950 2484 
Q 2950 2769 2794 2926 
Q 2638 3084 2363 3084 
Q 1938 3084 1609 2770 
Q 1281 2456 1184 1953 
L 800 0 
L 225 0 
L 909 3500 
L 1484 3500 
L 1375 2956 
Q 1609 3263 1923 3423 
Q 2238 3584 2597 3584 
Q 2978 3584 3223 3384 
Q 3469 3184 3519 2828 
Q 3781 3197 4126 3390 
Q 4472 3584 4856 3584 
Q 5306 3584 5551 3325 
Q 5797 3066 5797 2591 
Q 5797 2488 5784 2364 
Q 5772 2241 5747 2113 
z
" transform="scale(0.015625)"/>
       <path id="DejaVuSans-5b" d="M 550 4863 
L 1875 4863 
L 1875 4416 
L 1125 4416 
L 1125 -397 
L 1875 -397 
L 1875 -844 
L 550 -844 
L 550 4863 
z
" transform="scale(0.015625)"/>
       <path id="DejaVuSans-Oblique-4b" d="M 1081 4666 
L 1716 4666 
L 1331 2700 
L 3781 4666 
L 4622 4666 
L 1850 2438 
L 3878 0 
L 3109 0 
L 1247 2272 
L 806 0 
L 172 0 
L 1081 4666 
z
" transform="scale(0.015625)"/>
       <path id="DejaVuSans-5d" d="M 1947 4863 
L 1947 -844 
L 622 -844 
L 622 -397 
L 1369 -397 
L 1369 4416 
L 622 4416 
L 622 4863 
L 1947 4863 
z
" transform="scale(0.015625)"/>
      </defs>
      <use xlink:href="#DejaVuSans-Oblique-54" transform="translate(0 0.015625)"/>
      <use xlink:href="#DejaVuSans-Oblique-6d" transform="translate(61.083984 -16.390625) scale(0.7)"/>
      <use xlink:href="#DejaVuSans-5b" transform="translate(132.006836 0.015625)"/>
      <use xlink:href="#DejaVuSans-Oblique-4b" transform="translate(171.020508 0.015625)"/>
      <use xlink:href="#DejaVuSans-5d" transform="translate(236.59668 0.015625)"/>
     </g>
    </g>
   </g>
   <g id="matplotlib.axis_2">
    <g id="ytick_1">
     <g id="line2d_8">
      <path d="M 116.82 641.68175 
L 716.54607 641.68175 
" clip-path="url(#pcc2d03c519)" style="fill: none; stroke: #ffffff; stroke-linecap: round"/>
     </g>
     <g id="text_9">
      <!-- 0 -->
      <g style="fill: #262626" transform="translate(96.198125 648.839563) scale(0.2 -0.2)">
       <use xlink:href="#ArialMT-30"/>
      </g>
     </g>
    </g>
    <g id="ytick_2">
     <g id="line2d_9">
      <path d="M 116.82 553.682677 
L 716.54607 553.682677 
" clip-path="url(#pcc2d03c519)" style="fill: none; stroke: #ffffff; stroke-linecap: round"/>
     </g>
     <g id="text_10">
      <!-- 50 -->
      <g style="fill: #262626" transform="translate(85.07625 560.84049) scale(0.2 -0.2)">
       <use xlink:href="#ArialMT-35"/>
       <use xlink:href="#ArialMT-30" x="55.615234"/>
      </g>
     </g>
    </g>
    <g id="ytick_3">
     <g id="line2d_10">
      <path d="M 116.82 465.683604 
L 716.54607 465.683604 
" clip-path="url(#pcc2d03c519)" style="fill: none; stroke: #ffffff; stroke-linecap: round"/>
     </g>
     <g id="text_11">
      <!-- 100 -->
      <g style="fill: #262626" transform="translate(73.954375 472.841417) scale(0.2 -0.2)">
       <use xlink:href="#ArialMT-31"/>
       <use xlink:href="#ArialMT-30" x="55.615234"/>
       <use xlink:href="#ArialMT-30" x="111.230469"/>
      </g>
     </g>
    </g>
    <g id="ytick_4">
     <g id="line2d_11">
      <path d="M 116.82 377.684531 
L 716.54607 377.684531 
" clip-path="url(#pcc2d03c519)" style="fill: none; stroke: #ffffff; stroke-linecap: round"/>
     </g>
     <g id="text_12">
      <!-- 150 -->
      <g style="fill: #262626" transform="translate(73.954375 384.842344) scale(0.2 -0.2)">
       <use xlink:href="#ArialMT-31"/>
       <use xlink:href="#ArialMT-35" x="55.615234"/>
       <use xlink:href="#ArialMT-30" x="111.230469"/>
      </g>
     </g>
    </g>
    <g id="ytick_5">
     <g id="line2d_12">
      <path d="M 116.82 289.685459 
L 716.54607 289.685459 
" clip-path="url(#pcc2d03c519)" style="fill: none; stroke: #ffffff; stroke-linecap: round"/>
     </g>
     <g id="text_13">
      <!-- 200 -->
      <g style="fill: #262626" transform="translate(73.954375 296.843271) scale(0.2 -0.2)">
       <use xlink:href="#ArialMT-32"/>
       <use xlink:href="#ArialMT-30" x="55.615234"/>
       <use xlink:href="#ArialMT-30" x="111.230469"/>
      </g>
     </g>
    </g>
    <g id="ytick_6">
     <g id="line2d_13">
      <path d="M 116.82 201.686386 
L 716.54607 201.686386 
" clip-path="url(#pcc2d03c519)" style="fill: none; stroke: #ffffff; stroke-linecap: round"/>
     </g>
     <g id="text_14">
      <!-- 250 -->
      <g style="fill: #262626" transform="translate(73.954375 208.844198) scale(0.2 -0.2)">
       <use xlink:href="#ArialMT-32"/>
       <use xlink:href="#ArialMT-35" x="55.615234"/>
       <use xlink:href="#ArialMT-30" x="111.230469"/>
      </g>
     </g>
    </g>
    <g id="ytick_7">
     <g id="line2d_14">
      <path d="M 116.82 113.687313 
L 716.54607 113.687313 
" clip-path="url(#pcc2d03c519)" style="fill: none; stroke: #ffffff; stroke-linecap: round"/>
     </g>
     <g id="text_15">
      <!-- 300 -->
      <g style="fill: #262626" transform="translate(73.954375 120.845125) scale(0.2 -0.2)">
       <use xlink:href="#ArialMT-33"/>
       <use xlink:href="#ArialMT-30" x="55.615234"/>
       <use xlink:href="#ArialMT-30" x="111.230469"/>
      </g>
     </g>
    </g>
    <g id="text_16">
     <!-- Count -->
     <g style="fill: #262626" transform="translate(64.985625 378.434391) rotate(-90) scale(0.25 -0.25)">
      <defs>
       <path id="ArialMT-43" d="M 3763 1606 
L 4369 1453 
Q 4178 706 3683 314 
Q 3188 -78 2472 -78 
Q 1731 -78 1267 223 
Q 803 525 561 1097 
Q 319 1669 319 2325 
Q 319 3041 592 3573 
Q 866 4106 1370 4382 
Q 1875 4659 2481 4659 
Q 3169 4659 3637 4309 
Q 4106 3959 4291 3325 
L 3694 3184 
Q 3534 3684 3231 3912 
Q 2928 4141 2469 4141 
Q 1941 4141 1586 3887 
Q 1231 3634 1087 3207 
Q 944 2781 944 2328 
Q 944 1744 1114 1308 
Q 1284 872 1643 656 
Q 2003 441 2422 441 
Q 2931 441 3284 734 
Q 3638 1028 3763 1606 
z
" transform="scale(0.015625)"/>
       <path id="ArialMT-6f" d="M 213 1659 
Q 213 2581 725 3025 
Q 1153 3394 1769 3394 
Q 2453 3394 2887 2945 
Q 3322 2497 3322 1706 
Q 3322 1066 3130 698 
Q 2938 331 2570 128 
Q 2203 -75 1769 -75 
Q 1072 -75 642 372 
Q 213 819 213 1659 
z
M 791 1659 
Q 791 1022 1069 705 
Q 1347 388 1769 388 
Q 2188 388 2466 706 
Q 2744 1025 2744 1678 
Q 2744 2294 2464 2611 
Q 2184 2928 1769 2928 
Q 1347 2928 1069 2612 
Q 791 2297 791 1659 
z
" transform="scale(0.015625)"/>
       <path id="ArialMT-75" d="M 2597 0 
L 2597 488 
Q 2209 -75 1544 -75 
Q 1250 -75 995 37 
Q 741 150 617 320 
Q 494 491 444 738 
Q 409 903 409 1263 
L 409 3319 
L 972 3319 
L 972 1478 
Q 972 1038 1006 884 
Q 1059 663 1231 536 
Q 1403 409 1656 409 
Q 1909 409 2131 539 
Q 2353 669 2445 892 
Q 2538 1116 2538 1541 
L 2538 3319 
L 3100 3319 
L 3100 0 
L 2597 0 
z
" transform="scale(0.015625)"/>
       <path id="ArialMT-6e" d="M 422 0 
L 422 3319 
L 928 3319 
L 928 2847 
Q 1294 3394 1984 3394 
Q 2284 3394 2536 3286 
Q 2788 3178 2913 3003 
Q 3038 2828 3088 2588 
Q 3119 2431 3119 2041 
L 3119 0 
L 2556 0 
L 2556 2019 
Q 2556 2363 2490 2533 
Q 2425 2703 2258 2804 
Q 2091 2906 1866 2906 
Q 1506 2906 1245 2678 
Q 984 2450 984 1813 
L 984 0 
L 422 0 
z
" transform="scale(0.015625)"/>
       <path id="ArialMT-74" d="M 1650 503 
L 1731 6 
Q 1494 -44 1306 -44 
Q 1000 -44 831 53 
Q 663 150 594 308 
Q 525 466 525 972 
L 525 2881 
L 113 2881 
L 113 3319 
L 525 3319 
L 525 4141 
L 1084 4478 
L 1084 3319 
L 1650 3319 
L 1650 2881 
L 1084 2881 
L 1084 941 
Q 1084 700 1114 631 
Q 1144 563 1211 522 
Q 1278 481 1403 481 
Q 1497 481 1650 503 
z
" transform="scale(0.015625)"/>
      </defs>
      <use xlink:href="#ArialMT-43"/>
      <use xlink:href="#ArialMT-6f" x="72.216797"/>
      <use xlink:href="#ArialMT-75" x="127.832031"/>
      <use xlink:href="#ArialMT-6e" x="183.447266"/>
      <use xlink:href="#ArialMT-74" x="239.0625"/>
     </g>
    </g>
   </g>
   <g id="patch_3">
    <path d="M 144.080276 641.68175 
L 162.253793 641.68175 
L 162.253793 627.601898 
L 144.080276 627.601898 
z
" clip-path="url(#pcc2d03c519)" style="fill: #0000ff; stroke: #ffffff; stroke-linejoin: miter"/>
   </g>
   <g id="patch_4">
    <path d="M 162.253793 641.68175 
L 180.42731 641.68175 
L 180.42731 618.801991 
L 162.253793 618.801991 
z
" clip-path="url(#pcc2d03c519)" style="fill: #0000ff; stroke: #ffffff; stroke-linejoin: miter"/>
   </g>
   <g id="patch_5">
    <path d="M 180.42731 641.68175 
L 198.600828 641.68175 
L 198.600828 541.362807 
L 180.42731 541.362807 
z
" clip-path="url(#pcc2d03c519)" style="fill: #0000ff; stroke: #ffffff; stroke-linejoin: miter"/>
   </g>
   <g id="patch_6">
    <path d="M 198.600828 641.68175 
L 216.774345 641.68175 
L 216.774345 499.123252 
L 198.600828 499.123252 
z
" clip-path="url(#pcc2d03c519)" style="fill: #0000ff; stroke: #ffffff; stroke-linejoin: miter"/>
   </g>
   <g id="patch_7">
    <path d="M 216.774345 641.68175 
L 234.947862 641.68175 
L 234.947862 453.363734 
L 216.774345 453.363734 
z
" clip-path="url(#pcc2d03c519)" style="fill: #0000ff; stroke: #ffffff; stroke-linejoin: miter"/>
   </g>
   <g id="patch_8">
    <path d="M 234.947862 641.68175 
L 253.12138 641.68175 
L 253.12138 478.003475 
L 234.947862 478.003475 
z
" clip-path="url(#pcc2d03c519)" style="fill: #0000ff; stroke: #ffffff; stroke-linejoin: miter"/>
   </g>
   <g id="patch_9">
    <path d="M 253.12138 641.68175 
L 271.294897 641.68175 
L 271.294897 488.563363 
L 253.12138 488.563363 
z
" clip-path="url(#pcc2d03c519)" style="fill: #0000ff; stroke: #ffffff; stroke-linejoin: miter"/>
   </g>
   <g id="patch_10">
    <path d="M 271.294897 641.68175 
L 289.468414 641.68175 
L 289.468414 442.803845 
L 271.294897 442.803845 
z
" clip-path="url(#pcc2d03c519)" style="fill: #0000ff; stroke: #ffffff; stroke-linejoin: miter"/>
   </g>
   <g id="patch_11">
    <path d="M 289.468414 641.68175 
L 307.641931 641.68175 
L 307.641931 411.124179 
L 289.468414 411.124179 
z
" clip-path="url(#pcc2d03c519)" style="fill: #0000ff; stroke: #ffffff; stroke-linejoin: miter"/>
   </g>
   <g id="patch_12">
    <path d="M 307.641931 641.68175 
L 325.815449 641.68175 
L 325.815449 272.085644 
L 307.641931 272.085644 
z
" clip-path="url(#pcc2d03c519)" style="fill: #0000ff; stroke: #ffffff; stroke-linejoin: miter"/>
   </g>
   <g id="patch_13">
    <path d="M 325.815449 641.68175 
L 343.988966 641.68175 
L 343.988966 180.566608 
L 325.815449 180.566608 
z
" clip-path="url(#pcc2d03c519)" style="fill: #0000ff; stroke: #ffffff; stroke-linejoin: miter"/>
   </g>
   <g id="patch_14">
    <path d="M 343.988966 641.68175 
L 362.162483 641.68175 
L 362.162483 76.727702 
L 343.988966 76.727702 
z
" clip-path="url(#pcc2d03c519)" style="fill: #0000ff; stroke: #ffffff; stroke-linejoin: miter"/>
   </g>
   <g id="patch_15">
    <path d="M 362.162483 641.68175 
L 380.336 641.68175 
L 380.336 120.727239 
L 362.162483 120.727239 
z
" clip-path="url(#pcc2d03c519)" style="fill: #0000ff; stroke: #ffffff; stroke-linejoin: miter"/>
   </g>
   <g id="patch_16">
    <path d="M 380.336 641.68175 
L 398.509518 641.68175 
L 398.509518 233.366052 
L 380.336 233.366052 
z
" clip-path="url(#pcc2d03c519)" style="fill: #0000ff; stroke: #ffffff; stroke-linejoin: miter"/>
   </g>
   <g id="patch_17">
    <path d="M 398.509518 641.68175 
L 416.683035 641.68175 
L 416.683035 310.805236 
L 398.509518 310.805236 
z
" clip-path="url(#pcc2d03c519)" style="fill: #0000ff; stroke: #ffffff; stroke-linejoin: miter"/>
   </g>
   <g id="patch_18">
    <path d="M 416.683035 641.68175 
L 434.856552 641.68175 
L 434.856552 344.244884 
L 416.683035 344.244884 
z
" clip-path="url(#pcc2d03c519)" style="fill: #0000ff; stroke: #ffffff; stroke-linejoin: miter"/>
   </g>
   <g id="patch_19">
    <path d="M 434.856552 641.68175 
L 453.030069 641.68175 
L 453.030069 273.845626 
L 434.856552 273.845626 
z
" clip-path="url(#pcc2d03c519)" style="fill: #0000ff; stroke: #ffffff; stroke-linejoin: miter"/>
   </g>
   <g id="patch_20">
    <path d="M 453.030069 641.68175 
L 471.203587 641.68175 
L 471.203587 393.524365 
L 453.030069 393.524365 
z
" clip-path="url(#pcc2d03c519)" style="fill: #0000ff; stroke: #ffffff; stroke-linejoin: miter"/>
   </g>
   <g id="patch_21">
    <path d="M 471.203587 641.68175 
L 489.377104 641.68175 
L 489.377104 481.523437 
L 471.203587 481.523437 
z
" clip-path="url(#pcc2d03c519)" style="fill: #0000ff; stroke: #ffffff; stroke-linejoin: miter"/>
   </g>
   <g id="patch_22">
    <path d="M 489.377104 641.68175 
L 507.550621 641.68175 
L 507.550621 522.003011 
L 489.377104 522.003011 
z
" clip-path="url(#pcc2d03c519)" style="fill: #0000ff; stroke: #ffffff; stroke-linejoin: miter"/>
   </g>
   <g id="patch_23">
    <path d="M 507.550621 641.68175 
L 525.724139 641.68175 
L 525.724139 548.402733 
L 507.550621 548.402733 
z
" clip-path="url(#pcc2d03c519)" style="fill: #0000ff; stroke: #ffffff; stroke-linejoin: miter"/>
   </g>
   <g id="patch_24">
    <path d="M 525.724139 641.68175 
L 543.897656 641.68175 
L 543.897656 595.922232 
L 525.724139 595.922232 
z
" clip-path="url(#pcc2d03c519)" style="fill: #0000ff; stroke: #ffffff; stroke-linejoin: miter"/>
   </g>
   <g id="patch_25">
    <path d="M 543.897656 641.68175 
L 562.071173 641.68175 
L 562.071173 608.242102 
L 543.897656 608.242102 
z
" clip-path="url(#pcc2d03c519)" style="fill: #0000ff; stroke: #ffffff; stroke-linejoin: miter"/>
   </g>
   <g id="patch_26">
    <path d="M 562.071173 641.68175 
L 580.24469 641.68175 
L 580.24469 632.881843 
L 562.071173 632.881843 
z
" clip-path="url(#pcc2d03c519)" style="fill: #0000ff; stroke: #ffffff; stroke-linejoin: miter"/>
   </g>
   <g id="patch_27">
    <path d="M 580.24469 641.68175 
L 598.418208 641.68175 
L 598.418208 632.881843 
L 580.24469 632.881843 
z
" clip-path="url(#pcc2d03c519)" style="fill: #0000ff; stroke: #ffffff; stroke-linejoin: miter"/>
   </g>
   <g id="patch_28">
    <path d="M 598.418208 641.68175 
L 616.591725 641.68175 
L 616.591725 638.161787 
L 598.418208 638.161787 
z
" clip-path="url(#pcc2d03c519)" style="fill: #0000ff; stroke: #ffffff; stroke-linejoin: miter"/>
   </g>
   <g id="patch_29">
    <path d="M 616.591725 641.68175 
L 634.765242 641.68175 
L 634.765242 639.921769 
L 616.591725 639.921769 
z
" clip-path="url(#pcc2d03c519)" style="fill: #0000ff; stroke: #ffffff; stroke-linejoin: miter"/>
   </g>
   <g id="patch_30">
    <path d="M 634.765242 641.68175 
L 652.938759 641.68175 
L 652.938759 641.68175 
L 634.765242 641.68175 
z
" clip-path="url(#pcc2d03c519)" style="fill: #0000ff; stroke: #ffffff; stroke-linejoin: miter"/>
   </g>
   <g id="patch_31">
    <path d="M 652.938759 641.68175 
L 671.112277 641.68175 
L 671.112277 641.68175 
L 652.938759 641.68175 
z
" clip-path="url(#pcc2d03c519)" style="fill: #0000ff; stroke: #ffffff; stroke-linejoin: miter"/>
   </g>
   <g id="patch_32">
    <path d="M 671.112277 641.68175 
L 689.285794 641.68175 
L 689.285794 639.921769 
L 671.112277 639.921769 
z
" clip-path="url(#pcc2d03c519)" style="fill: #0000ff; stroke: #ffffff; stroke-linejoin: miter"/>
   </g>
   <g id="patch_33">
    <path d="M 116.82 641.68175 
L 116.82 48.48 
" style="fill: none; stroke: #ffffff; stroke-width: 1.25; stroke-linejoin: miter; stroke-linecap: square"/>
   </g>
   <g id="patch_34">
    <path d="M 716.54607 641.68175 
L 716.54607 48.48 
" style="fill: none; stroke: #ffffff; stroke-width: 1.25; stroke-linejoin: miter; stroke-linecap: square"/>
   </g>
   <g id="patch_35">
    <path d="M 116.82 641.68175 
L 716.54607 641.68175 
" style="fill: none; stroke: #ffffff; stroke-width: 1.25; stroke-linejoin: miter; stroke-linecap: square"/>
   </g>
   <g id="patch_36">
    <path d="M 116.82 48.48 
L 716.54607 48.48 
" style="fill: none; stroke: #ffffff; stroke-width: 1.25; stroke-linejoin: miter; stroke-linecap: square"/>
   </g>
   <g id="text_17">
    <!-- Melting-Point -->
    <g style="fill: #262626" transform="translate(343.737722 42.48) scale(0.25 -0.25)">
     <defs>
      <path id="ArialMT-4d" d="M 475 0 
L 475 4581 
L 1388 4581 
L 2472 1338 
Q 2622 884 2691 659 
Q 2769 909 2934 1394 
L 4031 4581 
L 4847 4581 
L 4847 0 
L 4263 0 
L 4263 3834 
L 2931 0 
L 2384 0 
L 1059 3900 
L 1059 0 
L 475 0 
z
" transform="scale(0.015625)"/>
      <path id="ArialMT-65" d="M 2694 1069 
L 3275 997 
Q 3138 488 2766 206 
Q 2394 -75 1816 -75 
Q 1088 -75 661 373 
Q 234 822 234 1631 
Q 234 2469 665 2931 
Q 1097 3394 1784 3394 
Q 2450 3394 2872 2941 
Q 3294 2488 3294 1666 
Q 3294 1616 3291 1516 
L 816 1516 
Q 847 969 1125 678 
Q 1403 388 1819 388 
Q 2128 388 2347 550 
Q 2566 713 2694 1069 
z
M 847 1978 
L 2700 1978 
Q 2663 2397 2488 2606 
Q 2219 2931 1791 2931 
Q 1403 2931 1139 2672 
Q 875 2413 847 1978 
z
" transform="scale(0.015625)"/>
      <path id="ArialMT-6c" d="M 409 0 
L 409 4581 
L 972 4581 
L 972 0 
L 409 0 
z
" transform="scale(0.015625)"/>
      <path id="ArialMT-69" d="M 425 3934 
L 425 4581 
L 988 4581 
L 988 3934 
L 425 3934 
z
M 425 0 
L 425 3319 
L 988 3319 
L 988 0 
L 425 0 
z
" transform="scale(0.015625)"/>
      <path id="ArialMT-67" d="M 319 -275 
L 866 -356 
Q 900 -609 1056 -725 
Q 1266 -881 1628 -881 
Q 2019 -881 2231 -725 
Q 2444 -569 2519 -288 
Q 2563 -116 2559 434 
Q 2191 0 1641 0 
Q 956 0 581 494 
Q 206 988 206 1678 
Q 206 2153 378 2554 
Q 550 2956 876 3175 
Q 1203 3394 1644 3394 
Q 2231 3394 2613 2919 
L 2613 3319 
L 3131 3319 
L 3131 450 
Q 3131 -325 2973 -648 
Q 2816 -972 2473 -1159 
Q 2131 -1347 1631 -1347 
Q 1038 -1347 672 -1080 
Q 306 -813 319 -275 
z
M 784 1719 
Q 784 1066 1043 766 
Q 1303 466 1694 466 
Q 2081 466 2343 764 
Q 2606 1063 2606 1700 
Q 2606 2309 2336 2618 
Q 2066 2928 1684 2928 
Q 1309 2928 1046 2623 
Q 784 2319 784 1719 
z
" transform="scale(0.015625)"/>
      <path id="ArialMT-2d" d="M 203 1375 
L 203 1941 
L 1931 1941 
L 1931 1375 
L 203 1375 
z
" transform="scale(0.015625)"/>
      <path id="ArialMT-50" d="M 494 0 
L 494 4581 
L 2222 4581 
Q 2678 4581 2919 4538 
Q 3256 4481 3484 4323 
Q 3713 4166 3852 3881 
Q 3991 3597 3991 3256 
Q 3991 2672 3619 2267 
Q 3247 1863 2275 1863 
L 1100 1863 
L 1100 0 
L 494 0 
z
M 1100 2403 
L 2284 2403 
Q 2872 2403 3119 2622 
Q 3366 2841 3366 3238 
Q 3366 3525 3220 3729 
Q 3075 3934 2838 4000 
Q 2684 4041 2272 4041 
L 1100 4041 
L 1100 2403 
z
" transform="scale(0.015625)"/>
     </defs>
     <use xlink:href="#ArialMT-4d"/>
     <use xlink:href="#ArialMT-65" x="83.300781"/>
     <use xlink:href="#ArialMT-6c" x="138.916016"/>
     <use xlink:href="#ArialMT-74" x="161.132812"/>
     <use xlink:href="#ArialMT-69" x="188.916016"/>
     <use xlink:href="#ArialMT-6e" x="211.132812"/>
     <use xlink:href="#ArialMT-67" x="266.748047"/>
     <use xlink:href="#ArialMT-2d" x="322.363281"/>
     <use xlink:href="#ArialMT-50" x="355.664062"/>
     <use xlink:href="#ArialMT-6f" x="422.363281"/>
     <use xlink:href="#ArialMT-69" x="477.978516"/>
     <use xlink:href="#ArialMT-6e" x="500.195312"/>
     <use xlink:href="#ArialMT-74" x="555.810547"/>
    </g>
   </g>
  </g>
  <g id="axes_2">
   <g id="patch_37">
    <path d="M 816.51393 641.68175 
L 1416.24 641.68175 
L 1416.24 48.48 
L 816.51393 48.48 
z
" style="fill: #eaeaf2"/>
   </g>
   <g id="matplotlib.axis_3">
    <g id="xtick_8">
     <g id="line2d_15">
      <path d="M 853.431631 641.68175 
L 853.431631 48.48 
" clip-path="url(#p19db1c39a2)" style="fill: none; stroke: #ffffff; stroke-linecap: round"/>
     </g>
     <g id="text_18">
      <!-- −4 -->
      <g style="fill: #262626" transform="translate(842.030068 665.497375) scale(0.2 -0.2)">
       <defs>
        <path id="ArialMT-2212" d="M 3381 1997 
L 356 1997 
L 356 2522 
L 3381 2522 
L 3381 1997 
z
" transform="scale(0.015625)"/>
       </defs>
       <use xlink:href="#ArialMT-2212"/>
       <use xlink:href="#ArialMT-34" x="58.398438"/>
      </g>
     </g>
    </g>
    <g id="xtick_9">
     <g id="line2d_16">
      <path d="M 941.2264 641.68175 
L 941.2264 48.48 
" clip-path="url(#p19db1c39a2)" style="fill: none; stroke: #ffffff; stroke-linecap: round"/>
     </g>
     <g id="text_19">
      <!-- −2 -->
      <g style="fill: #262626" transform="translate(929.824838 665.497375) scale(0.2 -0.2)">
       <use xlink:href="#ArialMT-2212"/>
       <use xlink:href="#ArialMT-32" x="58.398438"/>
      </g>
     </g>
    </g>
    <g id="xtick_10">
     <g id="line2d_17">
      <path d="M 1029.021169 641.68175 
L 1029.021169 48.48 
" clip-path="url(#p19db1c39a2)" style="fill: none; stroke: #ffffff; stroke-linecap: round"/>
     </g>
     <g id="text_20">
      <!-- 0 -->
      <g style="fill: #262626" transform="translate(1023.460232 665.497375) scale(0.2 -0.2)">
       <use xlink:href="#ArialMT-30"/>
      </g>
     </g>
    </g>
    <g id="xtick_11">
     <g id="line2d_18">
      <path d="M 1116.815939 641.68175 
L 1116.815939 48.48 
" clip-path="url(#p19db1c39a2)" style="fill: none; stroke: #ffffff; stroke-linecap: round"/>
     </g>
     <g id="text_21">
      <!-- 2 -->
      <g style="fill: #262626" transform="translate(1111.255001 665.497375) scale(0.2 -0.2)">
       <use xlink:href="#ArialMT-32"/>
      </g>
     </g>
    </g>
    <g id="xtick_12">
     <g id="line2d_19">
      <path d="M 1204.610708 641.68175 
L 1204.610708 48.48 
" clip-path="url(#p19db1c39a2)" style="fill: none; stroke: #ffffff; stroke-linecap: round"/>
     </g>
     <g id="text_22">
      <!-- 4 -->
      <g style="fill: #262626" transform="translate(1199.049771 665.497375) scale(0.2 -0.2)">
       <use xlink:href="#ArialMT-34"/>
      </g>
     </g>
    </g>
    <g id="xtick_13">
     <g id="line2d_20">
      <path d="M 1292.405478 641.68175 
L 1292.405478 48.48 
" clip-path="url(#p19db1c39a2)" style="fill: none; stroke: #ffffff; stroke-linecap: round"/>
     </g>
     <g id="text_23">
      <!-- 6 -->
      <g style="fill: #262626" transform="translate(1286.84454 665.497375) scale(0.2 -0.2)">
       <use xlink:href="#ArialMT-36"/>
      </g>
     </g>
    </g>
    <g id="xtick_14">
     <g id="line2d_21">
      <path d="M 1380.200247 641.68175 
L 1380.200247 48.48 
" clip-path="url(#p19db1c39a2)" style="fill: none; stroke: #ffffff; stroke-linecap: round"/>
     </g>
     <g id="text_24">
      <!-- 8 -->
      <g style="fill: #262626" transform="translate(1374.63931 665.497375) scale(0.2 -0.2)">
       <defs>
        <path id="ArialMT-38" d="M 1131 2484 
Q 781 2613 612 2850 
Q 444 3088 444 3419 
Q 444 3919 803 4259 
Q 1163 4600 1759 4600 
Q 2359 4600 2725 4251 
Q 3091 3903 3091 3403 
Q 3091 3084 2923 2848 
Q 2756 2613 2416 2484 
Q 2838 2347 3058 2040 
Q 3278 1734 3278 1309 
Q 3278 722 2862 322 
Q 2447 -78 1769 -78 
Q 1091 -78 675 323 
Q 259 725 259 1325 
Q 259 1772 486 2073 
Q 713 2375 1131 2484 
z
M 1019 3438 
Q 1019 3113 1228 2906 
Q 1438 2700 1772 2700 
Q 2097 2700 2305 2904 
Q 2513 3109 2513 3406 
Q 2513 3716 2298 3927 
Q 2084 4138 1766 4138 
Q 1444 4138 1231 3931 
Q 1019 3725 1019 3438 
z
M 838 1322 
Q 838 1081 952 856 
Q 1066 631 1291 507 
Q 1516 384 1775 384 
Q 2178 384 2440 643 
Q 2703 903 2703 1303 
Q 2703 1709 2433 1975 
Q 2163 2241 1756 2241 
Q 1359 2241 1098 1978 
Q 838 1716 838 1322 
z
" transform="scale(0.015625)"/>
       </defs>
       <use xlink:href="#ArialMT-38"/>
      </g>
     </g>
    </g>
    <g id="text_25">
     <!-- $\log K_{ow}$, ratio -->
     <g style="fill: #262626" transform="translate(1042.876965 692.472375) scale(0.25 -0.25)">
      <defs>
       <path id="DejaVuSans-6c" d="M 603 4863 
L 1178 4863 
L 1178 0 
L 603 0 
L 603 4863 
z
" transform="scale(0.015625)"/>
       <path id="DejaVuSans-6f" d="M 1959 3097 
Q 1497 3097 1228 2736 
Q 959 2375 959 1747 
Q 959 1119 1226 758 
Q 1494 397 1959 397 
Q 2419 397 2687 759 
Q 2956 1122 2956 1747 
Q 2956 2369 2687 2733 
Q 2419 3097 1959 3097 
z
M 1959 3584 
Q 2709 3584 3137 3096 
Q 3566 2609 3566 1747 
Q 3566 888 3137 398 
Q 2709 -91 1959 -91 
Q 1206 -91 779 398 
Q 353 888 353 1747 
Q 353 2609 779 3096 
Q 1206 3584 1959 3584 
z
" transform="scale(0.015625)"/>
       <path id="DejaVuSans-67" d="M 2906 1791 
Q 2906 2416 2648 2759 
Q 2391 3103 1925 3103 
Q 1463 3103 1205 2759 
Q 947 2416 947 1791 
Q 947 1169 1205 825 
Q 1463 481 1925 481 
Q 2391 481 2648 825 
Q 2906 1169 2906 1791 
z
M 3481 434 
Q 3481 -459 3084 -895 
Q 2688 -1331 1869 -1331 
Q 1566 -1331 1297 -1286 
Q 1028 -1241 775 -1147 
L 775 -588 
Q 1028 -725 1275 -790 
Q 1522 -856 1778 -856 
Q 2344 -856 2625 -561 
Q 2906 -266 2906 331 
L 2906 616 
Q 2728 306 2450 153 
Q 2172 0 1784 0 
Q 1141 0 747 490 
Q 353 981 353 1791 
Q 353 2603 747 3093 
Q 1141 3584 1784 3584 
Q 2172 3584 2450 3431 
Q 2728 3278 2906 2969 
L 2906 3500 
L 3481 3500 
L 3481 434 
z
" transform="scale(0.015625)"/>
       <path id="DejaVuSans-Oblique-6f" d="M 1625 -91 
Q 1009 -91 651 289 
Q 294 669 294 1325 
Q 294 1706 417 2101 
Q 541 2497 738 2766 
Q 1047 3184 1428 3384 
Q 1809 3584 2291 3584 
Q 2888 3584 3255 3212 
Q 3622 2841 3622 2241 
Q 3622 1825 3500 1412 
Q 3378 1000 3181 728 
Q 2875 309 2494 109 
Q 2113 -91 1625 -91 
z
M 891 1344 
Q 891 869 1089 633 
Q 1288 397 1691 397 
Q 2269 397 2648 901 
Q 3028 1406 3028 2181 
Q 3028 2634 2825 2865 
Q 2622 3097 2228 3097 
Q 1903 3097 1650 2945 
Q 1397 2794 1197 2484 
Q 1050 2253 970 1956 
Q 891 1659 891 1344 
z
" transform="scale(0.015625)"/>
       <path id="DejaVuSans-Oblique-77" d="M 544 3500 
L 1113 3500 
L 1259 684 
L 2566 3500 
L 3231 3500 
L 3425 684 
L 4666 3500 
L 5241 3500 
L 3641 0 
L 2969 0 
L 2797 2900 
L 1459 0 
L 781 0 
L 544 3500 
z
" transform="scale(0.015625)"/>
       <path id="ArialMT-2c" d="M 569 0 
L 569 641 
L 1209 641 
L 1209 0 
Q 1209 -353 1084 -570 
Q 959 -788 688 -906 
L 531 -666 
Q 709 -588 793 -436 
Q 878 -284 888 0 
L 569 0 
z
" transform="scale(0.015625)"/>
       <path id="ArialMT-20" transform="scale(0.015625)"/>
       <path id="ArialMT-72" d="M 416 0 
L 416 3319 
L 922 3319 
L 922 2816 
Q 1116 3169 1280 3281 
Q 1444 3394 1641 3394 
Q 1925 3394 2219 3213 
L 2025 2691 
Q 1819 2813 1613 2813 
Q 1428 2813 1281 2702 
Q 1134 2591 1072 2394 
Q 978 2094 978 1738 
L 978 0 
L 416 0 
z
" transform="scale(0.015625)"/>
       <path id="ArialMT-61" d="M 2588 409 
Q 2275 144 1986 34 
Q 1697 -75 1366 -75 
Q 819 -75 525 192 
Q 231 459 231 875 
Q 231 1119 342 1320 
Q 453 1522 633 1644 
Q 813 1766 1038 1828 
Q 1203 1872 1538 1913 
Q 2219 1994 2541 2106 
Q 2544 2222 2544 2253 
Q 2544 2597 2384 2738 
Q 2169 2928 1744 2928 
Q 1347 2928 1158 2789 
Q 969 2650 878 2297 
L 328 2372 
Q 403 2725 575 2942 
Q 747 3159 1072 3276 
Q 1397 3394 1825 3394 
Q 2250 3394 2515 3294 
Q 2781 3194 2906 3042 
Q 3031 2891 3081 2659 
Q 3109 2516 3109 2141 
L 3109 1391 
Q 3109 606 3145 398 
Q 3181 191 3288 0 
L 2700 0 
Q 2613 175 2588 409 
z
M 2541 1666 
Q 2234 1541 1622 1453 
Q 1275 1403 1131 1340 
Q 988 1278 909 1158 
Q 831 1038 831 891 
Q 831 666 1001 516 
Q 1172 366 1500 366 
Q 1825 366 2078 508 
Q 2331 650 2450 897 
Q 2541 1088 2541 1459 
L 2541 1666 
z
" transform="scale(0.015625)"/>
      </defs>
      <use xlink:href="#DejaVuSans-6c" transform="translate(0 0.015625)"/>
      <use xlink:href="#DejaVuSans-6f" transform="translate(27.783203 0.015625)"/>
      <use xlink:href="#DejaVuSans-67" transform="translate(88.964844 0.015625)"/>
      <use xlink:href="#DejaVuSans-Oblique-4b" transform="translate(168.677083 0.015625)"/>
      <use xlink:href="#DejaVuSans-Oblique-6f" transform="translate(234.253254 -16.390625) scale(0.7)"/>
      <use xlink:href="#DejaVuSans-Oblique-77" transform="translate(277.080403 -16.390625) scale(0.7)"/>
      <use xlink:href="#ArialMT-2c" transform="translate(337.065754 0.015625)"/>
      <use xlink:href="#ArialMT-20" transform="translate(364.848958 0.015625)"/>
      <use xlink:href="#ArialMT-72" transform="translate(392.632161 0.015625)"/>
      <use xlink:href="#ArialMT-61" transform="translate(425.932942 0.015625)"/>
      <use xlink:href="#ArialMT-74" transform="translate(481.548176 0.015625)"/>
      <use xlink:href="#ArialMT-69" transform="translate(509.331379 0.015625)"/>
      <use xlink:href="#ArialMT-6f" transform="translate(531.548176 0.015625)"/>
     </g>
    </g>
   </g>
   <g id="matplotlib.axis_4">
    <g id="ytick_8">
     <g id="line2d_22">
      <path d="M 816.51393 641.68175 
L 1416.24 641.68175 
" clip-path="url(#p19db1c39a2)" style="fill: none; stroke: #ffffff; stroke-linecap: round"/>
     </g>
     <g id="text_26">
      <!-- 0 -->
      <g style="fill: #262626" transform="translate(795.892055 648.839563) scale(0.2 -0.2)">
       <use xlink:href="#ArialMT-30"/>
      </g>
     </g>
    </g>
    <g id="ytick_9">
     <g id="line2d_23">
      <path d="M 816.51393 531.768511 
L 1416.24 531.768511 
" clip-path="url(#p19db1c39a2)" style="fill: none; stroke: #ffffff; stroke-linecap: round"/>
     </g>
     <g id="text_27">
      <!-- 100 -->
      <g style="fill: #262626" transform="translate(773.648305 538.926324) scale(0.2 -0.2)">
       <use xlink:href="#ArialMT-31"/>
       <use xlink:href="#ArialMT-30" x="55.615234"/>
       <use xlink:href="#ArialMT-30" x="111.230469"/>
      </g>
     </g>
    </g>
    <g id="ytick_10">
     <g id="line2d_24">
      <path d="M 816.51393 421.855272 
L 1416.24 421.855272 
" clip-path="url(#p19db1c39a2)" style="fill: none; stroke: #ffffff; stroke-linecap: round"/>
     </g>
     <g id="text_28">
      <!-- 200 -->
      <g style="fill: #262626" transform="translate(773.648305 429.013085) scale(0.2 -0.2)">
       <use xlink:href="#ArialMT-32"/>
       <use xlink:href="#ArialMT-30" x="55.615234"/>
       <use xlink:href="#ArialMT-30" x="111.230469"/>
      </g>
     </g>
    </g>
    <g id="ytick_11">
     <g id="line2d_25">
      <path d="M 816.51393 311.942033 
L 1416.24 311.942033 
" clip-path="url(#p19db1c39a2)" style="fill: none; stroke: #ffffff; stroke-linecap: round"/>
     </g>
     <g id="text_29">
      <!-- 300 -->
      <g style="fill: #262626" transform="translate(773.648305 319.099846) scale(0.2 -0.2)">
       <use xlink:href="#ArialMT-33"/>
       <use xlink:href="#ArialMT-30" x="55.615234"/>
       <use xlink:href="#ArialMT-30" x="111.230469"/>
      </g>
     </g>
    </g>
    <g id="ytick_12">
     <g id="line2d_26">
      <path d="M 816.51393 202.028795 
L 1416.24 202.028795 
" clip-path="url(#p19db1c39a2)" style="fill: none; stroke: #ffffff; stroke-linecap: round"/>
     </g>
     <g id="text_30">
      <!-- 400 -->
      <g style="fill: #262626" transform="translate(773.648305 209.186607) scale(0.2 -0.2)">
       <use xlink:href="#ArialMT-34"/>
       <use xlink:href="#ArialMT-30" x="55.615234"/>
       <use xlink:href="#ArialMT-30" x="111.230469"/>
      </g>
     </g>
    </g>
    <g id="ytick_13">
     <g id="line2d_27">
      <path d="M 816.51393 92.115556 
L 1416.24 92.115556 
" clip-path="url(#p19db1c39a2)" style="fill: none; stroke: #ffffff; stroke-linecap: round"/>
     </g>
     <g id="text_31">
      <!-- 500 -->
      <g style="fill: #262626" transform="translate(773.648305 99.273368) scale(0.2 -0.2)">
       <use xlink:href="#ArialMT-35"/>
       <use xlink:href="#ArialMT-30" x="55.615234"/>
       <use xlink:href="#ArialMT-30" x="111.230469"/>
      </g>
     </g>
    </g>
    <g id="text_32">
     <!-- Count -->
     <g style="fill: #262626" transform="translate(764.679555 378.434391) rotate(-90) scale(0.25 -0.25)">
      <use xlink:href="#ArialMT-43"/>
      <use xlink:href="#ArialMT-6f" x="72.216797"/>
      <use xlink:href="#ArialMT-75" x="127.832031"/>
      <use xlink:href="#ArialMT-6e" x="183.447266"/>
      <use xlink:href="#ArialMT-74" x="239.0625"/>
     </g>
    </g>
   </g>
   <g id="patch_38">
    <path d="M 843.774206 641.68175 
L 861.947723 641.68175 
L 861.947723 637.28522 
L 843.774206 637.28522 
z
" clip-path="url(#p19db1c39a2)" style="fill: #ff0000; stroke: #ffffff; stroke-linejoin: miter"/>
   </g>
   <g id="patch_39">
    <path d="M 861.947723 641.68175 
L 880.121241 641.68175 
L 880.121241 639.483485 
L 861.947723 639.483485 
z
" clip-path="url(#p19db1c39a2)" style="fill: #ff0000; stroke: #ffffff; stroke-linejoin: miter"/>
   </g>
   <g id="patch_40">
    <path d="M 880.121241 641.68175 
L 898.294758 641.68175 
L 898.294758 606.509514 
L 880.121241 606.509514 
z
" clip-path="url(#p19db1c39a2)" style="fill: #ff0000; stroke: #ffffff; stroke-linejoin: miter"/>
   </g>
   <g id="patch_41">
    <path d="M 898.294758 641.68175 
L 916.468275 641.68175 
L 916.468275 582.328601 
L 898.294758 582.328601 
z
" clip-path="url(#p19db1c39a2)" style="fill: #ff0000; stroke: #ffffff; stroke-linejoin: miter"/>
   </g>
   <g id="patch_42">
    <path d="M 916.468275 641.68175 
L 934.641792 641.68175 
L 934.641792 569.139012 
L 916.468275 569.139012 
z
" clip-path="url(#p19db1c39a2)" style="fill: #ff0000; stroke: #ffffff; stroke-linejoin: miter"/>
   </g>
   <g id="patch_43">
    <path d="M 934.641792 641.68175 
L 952.81531 641.68175 
L 952.81531 527.371982 
L 934.641792 527.371982 
z
" clip-path="url(#p19db1c39a2)" style="fill: #ff0000; stroke: #ffffff; stroke-linejoin: miter"/>
   </g>
   <g id="patch_44">
    <path d="M 952.81531 641.68175 
L 970.988827 641.68175 
L 970.988827 397.67436 
L 952.81531 397.67436 
z
" clip-path="url(#p19db1c39a2)" style="fill: #ff0000; stroke: #ffffff; stroke-linejoin: miter"/>
   </g>
   <g id="patch_45">
    <path d="M 970.988827 641.68175 
L 989.162344 641.68175 
L 989.162344 481.208421 
L 970.988827 481.208421 
z
" clip-path="url(#p19db1c39a2)" style="fill: #ff0000; stroke: #ffffff; stroke-linejoin: miter"/>
   </g>
   <g id="patch_46">
    <path d="M 989.162344 641.68175 
L 1007.335861 641.68175 
L 1007.335861 441.639655 
L 989.162344 441.639655 
z
" clip-path="url(#p19db1c39a2)" style="fill: #ff0000; stroke: #ffffff; stroke-linejoin: miter"/>
   </g>
   <g id="patch_47">
    <path d="M 1007.335861 641.68175 
L 1025.509379 641.68175 
L 1025.509379 249.291487 
L 1007.335861 249.291487 
z
" clip-path="url(#p19db1c39a2)" style="fill: #ff0000; stroke: #ffffff; stroke-linejoin: miter"/>
   </g>
   <g id="patch_48">
    <path d="M 1025.509379 641.68175 
L 1043.682896 641.68175 
L 1043.682896 222.91231 
L 1025.509379 222.91231 
z
" clip-path="url(#p19db1c39a2)" style="fill: #ff0000; stroke: #ffffff; stroke-linejoin: miter"/>
   </g>
   <g id="patch_49">
    <path d="M 1043.682896 641.68175 
L 1061.856413 641.68175 
L 1061.856413 216.317516 
L 1043.682896 216.317516 
z
" clip-path="url(#p19db1c39a2)" style="fill: #ff0000; stroke: #ffffff; stroke-linejoin: miter"/>
   </g>
   <g id="patch_50">
    <path d="M 1061.856413 641.68175 
L 1080.029931 641.68175 
L 1080.029931 178.947014 
L 1061.856413 178.947014 
z
" clip-path="url(#p19db1c39a2)" style="fill: #ff0000; stroke: #ffffff; stroke-linejoin: miter"/>
   </g>
   <g id="patch_51">
    <path d="M 1080.029931 641.68175 
L 1098.203448 641.68175 
L 1098.203448 128.386925 
L 1080.029931 128.386925 
z
" clip-path="url(#p19db1c39a2)" style="fill: #ff0000; stroke: #ffffff; stroke-linejoin: miter"/>
   </g>
   <g id="patch_52">
    <path d="M 1098.203448 641.68175 
L 1116.376965 641.68175 
L 1116.376965 132.783454 
L 1098.203448 132.783454 
z
" clip-path="url(#p19db1c39a2)" style="fill: #ff0000; stroke: #ffffff; stroke-linejoin: miter"/>
   </g>
   <g id="patch_53">
    <path d="M 1116.376965 641.68175 
L 1134.550482 641.68175 
L 1134.550482 76.727702 
L 1116.376965 76.727702 
z
" clip-path="url(#p19db1c39a2)" style="fill: #ff0000; stroke: #ffffff; stroke-linejoin: miter"/>
   </g>
   <g id="patch_54">
    <path d="M 1134.550482 641.68175 
L 1152.724 641.68175 
L 1152.724 231.705369 
L 1134.550482 231.705369 
z
" clip-path="url(#p19db1c39a2)" style="fill: #ff0000; stroke: #ffffff; stroke-linejoin: miter"/>
   </g>
   <g id="patch_55">
    <path d="M 1152.724 641.68175 
L 1170.897517 641.68175 
L 1170.897517 227.30884 
L 1152.724 227.30884 
z
" clip-path="url(#p19db1c39a2)" style="fill: #ff0000; stroke: #ffffff; stroke-linejoin: miter"/>
   </g>
   <g id="patch_56">
    <path d="M 1170.897517 641.68175 
L 1189.071034 641.68175 
L 1189.071034 275.670665 
L 1170.897517 275.670665 
z
" clip-path="url(#p19db1c39a2)" style="fill: #ff0000; stroke: #ffffff; stroke-linejoin: miter"/>
   </g>
   <g id="patch_57">
    <path d="M 1189.071034 641.68175 
L 1207.244551 641.68175 
L 1207.244551 471.31623 
L 1189.071034 471.31623 
z
" clip-path="url(#p19db1c39a2)" style="fill: #ff0000; stroke: #ffffff; stroke-linejoin: miter"/>
   </g>
   <g id="patch_58">
    <path d="M 1207.244551 641.68175 
L 1225.418069 641.68175 
L 1225.418069 471.31623 
L 1207.244551 471.31623 
z
" clip-path="url(#p19db1c39a2)" style="fill: #ff0000; stroke: #ffffff; stroke-linejoin: miter"/>
   </g>
   <g id="patch_59">
    <path d="M 1225.418069 641.68175 
L 1243.591586 641.68175 
L 1243.591586 522.975452 
L 1225.418069 522.975452 
z
" clip-path="url(#p19db1c39a2)" style="fill: #ff0000; stroke: #ffffff; stroke-linejoin: miter"/>
   </g>
   <g id="patch_60">
    <path d="M 1243.591586 641.68175 
L 1261.765103 641.68175 
L 1261.765103 561.445086 
L 1243.591586 561.445086 
z
" clip-path="url(#p19db1c39a2)" style="fill: #ff0000; stroke: #ffffff; stroke-linejoin: miter"/>
   </g>
   <g id="patch_61">
    <path d="M 1261.765103 641.68175 
L 1279.93862 641.68175 
L 1279.93862 535.065908 
L 1261.765103 535.065908 
z
" clip-path="url(#p19db1c39a2)" style="fill: #ff0000; stroke: #ffffff; stroke-linejoin: miter"/>
   </g>
   <g id="patch_62">
    <path d="M 1279.93862 641.68175 
L 1298.112138 641.68175 
L 1298.112138 627.393029 
L 1279.93862 627.393029 
z
" clip-path="url(#p19db1c39a2)" style="fill: #ff0000; stroke: #ffffff; stroke-linejoin: miter"/>
   </g>
   <g id="patch_63">
    <path d="M 1298.112138 641.68175 
L 1316.285655 641.68175 
L 1316.285655 622.996499 
L 1298.112138 622.996499 
z
" clip-path="url(#p19db1c39a2)" style="fill: #ff0000; stroke: #ffffff; stroke-linejoin: miter"/>
   </g>
   <g id="patch_64">
    <path d="M 1316.285655 641.68175 
L 1334.459172 641.68175 
L 1334.459172 636.186088 
L 1316.285655 636.186088 
z
" clip-path="url(#p19db1c39a2)" style="fill: #ff0000; stroke: #ffffff; stroke-linejoin: miter"/>
   </g>
   <g id="patch_65">
    <path d="M 1334.459172 641.68175 
L 1352.63269 641.68175 
L 1352.63269 632.888691 
L 1334.459172 632.888691 
z
" clip-path="url(#p19db1c39a2)" style="fill: #ff0000; stroke: #ffffff; stroke-linejoin: miter"/>
   </g>
   <g id="patch_66">
    <path d="M 1352.63269 641.68175 
L 1370.806207 641.68175 
L 1370.806207 636.186088 
L 1352.63269 636.186088 
z
" clip-path="url(#p19db1c39a2)" style="fill: #ff0000; stroke: #ffffff; stroke-linejoin: miter"/>
   </g>
   <g id="patch_67">
    <path d="M 1370.806207 641.68175 
L 1388.979724 641.68175 
L 1388.979724 636.186088 
L 1370.806207 636.186088 
z
" clip-path="url(#p19db1c39a2)" style="fill: #ff0000; stroke: #ffffff; stroke-linejoin: miter"/>
   </g>
   <g id="patch_68">
    <path d="M 816.51393 641.68175 
L 816.51393 48.48 
" style="fill: none; stroke: #ffffff; stroke-width: 1.25; stroke-linejoin: miter; stroke-linecap: square"/>
   </g>
   <g id="patch_69">
    <path d="M 1416.24 641.68175 
L 1416.24 48.48 
" style="fill: none; stroke: #ffffff; stroke-width: 1.25; stroke-linejoin: miter; stroke-linecap: square"/>
   </g>
   <g id="patch_70">
    <path d="M 816.51393 641.68175 
L 1416.24 641.68175 
" style="fill: none; stroke: #ffffff; stroke-width: 1.25; stroke-linejoin: miter; stroke-linecap: square"/>
   </g>
   <g id="patch_71">
    <path d="M 816.51393 48.48 
L 1416.24 48.48 
" style="fill: none; stroke: #ffffff; stroke-width: 1.25; stroke-linejoin: miter; stroke-linecap: square"/>
   </g>
   <g id="text_33">
    <!-- Log-P -->
    <g style="fill: #262626" transform="translate(1083.023449 42.48) scale(0.25 -0.25)">
     <defs>
      <path id="ArialMT-4c" d="M 469 0 
L 469 4581 
L 1075 4581 
L 1075 541 
L 3331 541 
L 3331 0 
L 469 0 
z
" transform="scale(0.015625)"/>
     </defs>
     <use xlink:href="#ArialMT-4c"/>
     <use xlink:href="#ArialMT-6f" x="55.615234"/>
     <use xlink:href="#ArialMT-67" x="111.230469"/>
     <use xlink:href="#ArialMT-2d" x="166.845703"/>
     <use xlink:href="#ArialMT-50" x="200.146484"/>
    </g>
   </g>
  </g>
  <g id="axes_3">
   <g id="patch_72">
    <path d="M 116.82 1342.9435 
L 716.54607 1342.9435 
L 716.54607 749.74175 
L 116.82 749.74175 
z
" style="fill: #eaeaf2"/>
   </g>
   <g id="matplotlib.axis_5">
    <g id="xtick_15">
     <g id="line2d_28">
      <path d="M 136.089478 1342.9435 
L 136.089478 749.74175 
" clip-path="url(#p3cde770c66)" style="fill: none; stroke: #ffffff; stroke-linecap: round"/>
     </g>
     <g id="text_34">
      <!-- 0 -->
      <g style="fill: #262626" transform="translate(130.528541 1366.759125) scale(0.2 -0.2)">
       <use xlink:href="#ArialMT-30"/>
      </g>
     </g>
    </g>
    <g id="xtick_16">
     <g id="line2d_29">
      <path d="M 218.050482 1342.9435 
L 218.050482 749.74175 
" clip-path="url(#p3cde770c66)" style="fill: none; stroke: #ffffff; stroke-linecap: round"/>
     </g>
     <g id="text_35">
      <!-- 500 -->
      <g style="fill: #262626" transform="translate(201.36767 1366.759125) scale(0.2 -0.2)">
       <use xlink:href="#ArialMT-35"/>
       <use xlink:href="#ArialMT-30" x="55.615234"/>
       <use xlink:href="#ArialMT-30" x="111.230469"/>
      </g>
     </g>
    </g>
    <g id="xtick_17">
     <g id="line2d_30">
      <path d="M 300.011486 1342.9435 
L 300.011486 749.74175 
" clip-path="url(#p3cde770c66)" style="fill: none; stroke: #ffffff; stroke-linecap: round"/>
     </g>
     <g id="text_36">
      <!-- 1000 -->
      <g style="fill: #262626" transform="translate(277.767736 1366.759125) scale(0.2 -0.2)">
       <use xlink:href="#ArialMT-31"/>
       <use xlink:href="#ArialMT-30" x="55.615234"/>
       <use xlink:href="#ArialMT-30" x="111.230469"/>
       <use xlink:href="#ArialMT-30" x="166.845703"/>
      </g>
     </g>
    </g>
    <g id="xtick_18">
     <g id="line2d_31">
      <path d="M 381.97249 1342.9435 
L 381.97249 749.74175 
" clip-path="url(#p3cde770c66)" style="fill: none; stroke: #ffffff; stroke-linecap: round"/>
     </g>
     <g id="text_37">
      <!-- 1500 -->
      <g style="fill: #262626" transform="translate(359.72874 1366.759125) scale(0.2 -0.2)">
       <use xlink:href="#ArialMT-31"/>
       <use xlink:href="#ArialMT-35" x="55.615234"/>
       <use xlink:href="#ArialMT-30" x="111.230469"/>
       <use xlink:href="#ArialMT-30" x="166.845703"/>
      </g>
     </g>
    </g>
    <g id="xtick_19">
     <g id="line2d_32">
      <path d="M 463.933494 1342.9435 
L 463.933494 749.74175 
" clip-path="url(#p3cde770c66)" style="fill: none; stroke: #ffffff; stroke-linecap: round"/>
     </g>
     <g id="text_38">
      <!-- 2000 -->
      <g style="fill: #262626" transform="translate(441.689744 1366.759125) scale(0.2 -0.2)">
       <use xlink:href="#ArialMT-32"/>
       <use xlink:href="#ArialMT-30" x="55.615234"/>
       <use xlink:href="#ArialMT-30" x="111.230469"/>
       <use xlink:href="#ArialMT-30" x="166.845703"/>
      </g>
     </g>
    </g>
    <g id="xtick_20">
     <g id="line2d_33">
      <path d="M 545.894497 1342.9435 
L 545.894497 749.74175 
" clip-path="url(#p3cde770c66)" style="fill: none; stroke: #ffffff; stroke-linecap: round"/>
     </g>
     <g id="text_39">
      <!-- 2500 -->
      <g style="fill: #262626" transform="translate(523.650747 1366.759125) scale(0.2 -0.2)">
       <use xlink:href="#ArialMT-32"/>
       <use xlink:href="#ArialMT-35" x="55.615234"/>
       <use xlink:href="#ArialMT-30" x="111.230469"/>
       <use xlink:href="#ArialMT-30" x="166.845703"/>
      </g>
     </g>
    </g>
    <g id="xtick_21">
     <g id="line2d_34">
      <path d="M 627.855501 1342.9435 
L 627.855501 749.74175 
" clip-path="url(#p3cde770c66)" style="fill: none; stroke: #ffffff; stroke-linecap: round"/>
     </g>
     <g id="text_40">
      <!-- 3000 -->
      <g style="fill: #262626" transform="translate(605.611751 1366.759125) scale(0.2 -0.2)">
       <use xlink:href="#ArialMT-33"/>
       <use xlink:href="#ArialMT-30" x="55.615234"/>
       <use xlink:href="#ArialMT-30" x="111.230469"/>
       <use xlink:href="#ArialMT-30" x="166.845703"/>
      </g>
     </g>
    </g>
    <g id="xtick_22">
     <g id="line2d_35">
      <path d="M 709.816505 1342.9435 
L 709.816505 749.74175 
" clip-path="url(#p3cde770c66)" style="fill: none; stroke: #ffffff; stroke-linecap: round"/>
     </g>
     <g id="text_41">
      <!-- 3500 -->
      <g style="fill: #262626" transform="translate(687.572755 1366.759125) scale(0.2 -0.2)">
       <use xlink:href="#ArialMT-33"/>
       <use xlink:href="#ArialMT-35" x="55.615234"/>
       <use xlink:href="#ArialMT-30" x="111.230469"/>
       <use xlink:href="#ArialMT-30" x="166.845703"/>
      </g>
     </g>
    </g>
    <g id="text_42">
     <!-- $c_v \; [\frac{\text{cal}}{\text{mol} K}]$ -->
     <g style="fill: #262626" transform="translate(367.433035 1399.234125) scale(0.25 -0.25)">
      <defs>
       <path id="DejaVuSans-Oblique-63" d="M 3431 3366 
L 3316 2797 
Q 3109 2947 2876 3022 
Q 2644 3097 2394 3097 
Q 2119 3097 1870 3000 
Q 1622 2903 1453 2725 
Q 1184 2453 1037 2087 
Q 891 1722 891 1331 
Q 891 859 1127 628 
Q 1363 397 1844 397 
Q 2081 397 2348 469 
Q 2616 541 2906 684 
L 2797 116 
Q 2547 13 2283 -39 
Q 2019 -91 1741 -91 
Q 1044 -91 669 257 
Q 294 606 294 1253 
Q 294 1797 489 2255 
Q 684 2713 1069 3078 
Q 1331 3328 1684 3456 
Q 2038 3584 2456 3584 
Q 2700 3584 2940 3529 
Q 3181 3475 3431 3366 
z
" transform="scale(0.015625)"/>
       <path id="DejaVuSans-Oblique-76" d="M 459 3500 
L 1069 3500 
L 1581 525 
L 3256 3500 
L 3866 3500 
L 1875 0 
L 1100 0 
L 459 3500 
z
" transform="scale(0.015625)"/>
       <path id="DejaVuSans-63" d="M 3122 3366 
L 3122 2828 
Q 2878 2963 2633 3030 
Q 2388 3097 2138 3097 
Q 1578 3097 1268 2742 
Q 959 2388 959 1747 
Q 959 1106 1268 751 
Q 1578 397 2138 397 
Q 2388 397 2633 464 
Q 2878 531 3122 666 
L 3122 134 
Q 2881 22 2623 -34 
Q 2366 -91 2075 -91 
Q 1284 -91 818 406 
Q 353 903 353 1747 
Q 353 2603 823 3093 
Q 1294 3584 2113 3584 
Q 2378 3584 2631 3529 
Q 2884 3475 3122 3366 
z
" transform="scale(0.015625)"/>
       <path id="DejaVuSans-61" d="M 2194 1759 
Q 1497 1759 1228 1600 
Q 959 1441 959 1056 
Q 959 750 1161 570 
Q 1363 391 1709 391 
Q 2188 391 2477 730 
Q 2766 1069 2766 1631 
L 2766 1759 
L 2194 1759 
z
M 3341 1997 
L 3341 0 
L 2766 0 
L 2766 531 
Q 2569 213 2275 61 
Q 1981 -91 1556 -91 
Q 1019 -91 701 211 
Q 384 513 384 1019 
Q 384 1609 779 1909 
Q 1175 2209 1959 2209 
L 2766 2209 
L 2766 2266 
Q 2766 2663 2505 2880 
Q 2244 3097 1772 3097 
Q 1472 3097 1187 3025 
Q 903 2953 641 2809 
L 641 3341 
Q 956 3463 1253 3523 
Q 1550 3584 1831 3584 
Q 2591 3584 2966 3190 
Q 3341 2797 3341 1997 
z
" transform="scale(0.015625)"/>
       <path id="DejaVuSans-6d" d="M 3328 2828 
Q 3544 3216 3844 3400 
Q 4144 3584 4550 3584 
Q 5097 3584 5394 3201 
Q 5691 2819 5691 2113 
L 5691 0 
L 5113 0 
L 5113 2094 
Q 5113 2597 4934 2840 
Q 4756 3084 4391 3084 
Q 3944 3084 3684 2787 
Q 3425 2491 3425 1978 
L 3425 0 
L 2847 0 
L 2847 2094 
Q 2847 2600 2669 2842 
Q 2491 3084 2119 3084 
Q 1678 3084 1418 2786 
Q 1159 2488 1159 1978 
L 1159 0 
L 581 0 
L 581 3500 
L 1159 3500 
L 1159 2956 
Q 1356 3278 1631 3431 
Q 1906 3584 2284 3584 
Q 2666 3584 2933 3390 
Q 3200 3197 3328 2828 
z
" transform="scale(0.015625)"/>
      </defs>
      <use xlink:href="#DejaVuSans-Oblique-63" transform="translate(0 0.01875)"/>
      <use xlink:href="#DejaVuSans-Oblique-76" transform="translate(54.980469 -16.3875) scale(0.7)"/>
      <use xlink:href="#DejaVuSans-5b" transform="translate(126.199761 0.01875)"/>
      <use xlink:href="#DejaVuSans-63" transform="translate(203.213433 44.810938) scale(0.7)"/>
      <use xlink:href="#DejaVuSans-61" transform="translate(241.699761 44.810938) scale(0.7)"/>
      <use xlink:href="#DejaVuSans-6c" transform="translate(284.595269 44.810938) scale(0.7)"/>
      <use xlink:href="#DejaVuSans-6d" transform="translate(165.213433 -40.623437) scale(0.7)"/>
      <use xlink:href="#DejaVuSans-6f" transform="translate(233.401909 -40.623437) scale(0.7)"/>
      <use xlink:href="#DejaVuSans-6c" transform="translate(276.229058 -40.623437) scale(0.7)"/>
      <use xlink:href="#DejaVuSans-Oblique-4b" transform="translate(295.6773 -40.623437) scale(0.7)"/>
      <use xlink:href="#DejaVuSans-5d" transform="translate(354.08062 0.01875)"/>
      <path d="M 165.213433 18.815625 
L 165.213433 25.065625 
L 341.58062 25.065625 
L 341.58062 18.815625 
L 165.213433 18.815625 
z
"/>
     </g>
    </g>
   </g>
   <g id="matplotlib.axis_6">
    <g id="ytick_14">
     <g id="line2d_36">
      <path d="M 116.82 1342.9435 
L 716.54607 1342.9435 
" clip-path="url(#p3cde770c66)" style="fill: none; stroke: #ffffff; stroke-linecap: round"/>
     </g>
     <g id="text_43">
      <!-- 0 -->
      <g style="fill: #262626" transform="translate(96.198125 1350.101312) scale(0.2 -0.2)">
       <use xlink:href="#ArialMT-30"/>
      </g>
     </g>
    </g>
    <g id="ytick_15">
     <g id="line2d_37">
      <path d="M 116.82 1242.069657 
L 716.54607 1242.069657 
" clip-path="url(#p3cde770c66)" style="fill: none; stroke: #ffffff; stroke-linecap: round"/>
     </g>
     <g id="text_44">
      <!-- 5000 -->
      <g style="fill: #262626" transform="translate(62.8325 1249.227469) scale(0.2 -0.2)">
       <use xlink:href="#ArialMT-35"/>
       <use xlink:href="#ArialMT-30" x="55.615234"/>
       <use xlink:href="#ArialMT-30" x="111.230469"/>
       <use xlink:href="#ArialMT-30" x="166.845703"/>
      </g>
     </g>
    </g>
    <g id="ytick_16">
     <g id="line2d_38">
      <path d="M 116.82 1141.195813 
L 716.54607 1141.195813 
" clip-path="url(#p3cde770c66)" style="fill: none; stroke: #ffffff; stroke-linecap: round"/>
     </g>
     <g id="text_45">
      <!-- 10000 -->
      <g style="fill: #262626" transform="translate(51.710625 1148.353626) scale(0.2 -0.2)">
       <use xlink:href="#ArialMT-31"/>
       <use xlink:href="#ArialMT-30" x="55.615234"/>
       <use xlink:href="#ArialMT-30" x="111.230469"/>
       <use xlink:href="#ArialMT-30" x="166.845703"/>
       <use xlink:href="#ArialMT-30" x="222.460938"/>
      </g>
     </g>
    </g>
    <g id="ytick_17">
     <g id="line2d_39">
      <path d="M 116.82 1040.32197 
L 716.54607 1040.32197 
" clip-path="url(#p3cde770c66)" style="fill: none; stroke: #ffffff; stroke-linecap: round"/>
     </g>
     <g id="text_46">
      <!-- 15000 -->
      <g style="fill: #262626" transform="translate(51.710625 1047.479782) scale(0.2 -0.2)">
       <use xlink:href="#ArialMT-31"/>
       <use xlink:href="#ArialMT-35" x="55.615234"/>
       <use xlink:href="#ArialMT-30" x="111.230469"/>
       <use xlink:href="#ArialMT-30" x="166.845703"/>
       <use xlink:href="#ArialMT-30" x="222.460938"/>
      </g>
     </g>
    </g>
    <g id="ytick_18">
     <g id="line2d_40">
      <path d="M 116.82 939.448126 
L 716.54607 939.448126 
" clip-path="url(#p3cde770c66)" style="fill: none; stroke: #ffffff; stroke-linecap: round"/>
     </g>
     <g id="text_47">
      <!-- 20000 -->
      <g style="fill: #262626" transform="translate(51.710625 946.605939) scale(0.2 -0.2)">
       <use xlink:href="#ArialMT-32"/>
       <use xlink:href="#ArialMT-30" x="55.615234"/>
       <use xlink:href="#ArialMT-30" x="111.230469"/>
       <use xlink:href="#ArialMT-30" x="166.845703"/>
       <use xlink:href="#ArialMT-30" x="222.460938"/>
      </g>
     </g>
    </g>
    <g id="ytick_19">
     <g id="line2d_41">
      <path d="M 116.82 838.574283 
L 716.54607 838.574283 
" clip-path="url(#p3cde770c66)" style="fill: none; stroke: #ffffff; stroke-linecap: round"/>
     </g>
     <g id="text_48">
      <!-- 25000 -->
      <g style="fill: #262626" transform="translate(51.710625 845.732095) scale(0.2 -0.2)">
       <use xlink:href="#ArialMT-32"/>
       <use xlink:href="#ArialMT-35" x="55.615234"/>
       <use xlink:href="#ArialMT-30" x="111.230469"/>
       <use xlink:href="#ArialMT-30" x="166.845703"/>
       <use xlink:href="#ArialMT-30" x="222.460938"/>
      </g>
     </g>
    </g>
    <g id="text_49">
     <!-- Count -->
     <g style="fill: #262626" transform="translate(42.741875 1079.696141) rotate(-90) scale(0.25 -0.25)">
      <use xlink:href="#ArialMT-43"/>
      <use xlink:href="#ArialMT-6f" x="72.216797"/>
      <use xlink:href="#ArialMT-75" x="127.832031"/>
      <use xlink:href="#ArialMT-6e" x="183.447266"/>
      <use xlink:href="#ArialMT-74" x="239.0625"/>
     </g>
    </g>
   </g>
   <g id="patch_73">
    <path d="M 144.080276 1342.9435 
L 162.253793 1342.9435 
L 162.253793 1342.782102 
L 144.080276 1342.782102 
z
" clip-path="url(#p3cde770c66)" style="fill: #008000; stroke: #ffffff; stroke-linejoin: miter"/>
   </g>
   <g id="patch_74">
    <path d="M 162.253793 1342.9435 
L 180.42731 1342.9435 
L 180.42731 1342.378606 
L 162.253793 1342.378606 
z
" clip-path="url(#p3cde770c66)" style="fill: #008000; stroke: #ffffff; stroke-linejoin: miter"/>
   </g>
   <g id="patch_75">
    <path d="M 180.42731 1342.9435 
L 198.600827 1342.9435 
L 198.600827 1341.914587 
L 180.42731 1341.914587 
z
" clip-path="url(#p3cde770c66)" style="fill: #008000; stroke: #ffffff; stroke-linejoin: miter"/>
   </g>
   <g id="patch_76">
    <path d="M 198.600827 1342.9435 
L 216.774344 1342.9435 
L 216.774344 1338.5454 
L 198.600827 1338.5454 
z
" clip-path="url(#p3cde770c66)" style="fill: #008000; stroke: #ffffff; stroke-linejoin: miter"/>
   </g>
   <g id="patch_77">
    <path d="M 216.774344 1342.9435 
L 234.947866 1342.9435 
L 234.947866 1333.784155 
L 216.774344 1333.784155 
z
" clip-path="url(#p3cde770c66)" style="fill: #008000; stroke: #ffffff; stroke-linejoin: miter"/>
   </g>
   <g id="patch_78">
    <path d="M 234.947866 1342.9435 
L 253.121378 1342.9435 
L 253.121378 1310.119151 
L 234.947866 1310.119151 
z
" clip-path="url(#p3cde770c66)" style="fill: #008000; stroke: #ffffff; stroke-linejoin: miter"/>
   </g>
   <g id="patch_79">
    <path d="M 253.121378 1342.9435 
L 271.294899 1342.9435 
L 271.294899 1265.048718 
L 253.121378 1265.048718 
z
" clip-path="url(#p3cde770c66)" style="fill: #008000; stroke: #ffffff; stroke-linejoin: miter"/>
   </g>
   <g id="patch_80">
    <path d="M 271.294899 1342.9435 
L 289.468411 1342.9435 
L 289.468411 1124.753377 
L 271.294899 1124.753377 
z
" clip-path="url(#p3cde770c66)" style="fill: #008000; stroke: #ffffff; stroke-linejoin: miter"/>
   </g>
   <g id="patch_81">
    <path d="M 289.468411 1342.9435 
L 307.641923 1342.9435 
L 307.641923 908.278109 
L 289.468411 908.278109 
z
" clip-path="url(#p3cde770c66)" style="fill: #008000; stroke: #ffffff; stroke-linejoin: miter"/>
   </g>
   <g id="patch_82">
    <path d="M 307.641923 1342.9435 
L 325.815455 1342.9435 
L 325.815455 777.989452 
L 307.641923 777.989452 
z
" clip-path="url(#p3cde770c66)" style="fill: #008000; stroke: #ffffff; stroke-linejoin: miter"/>
   </g>
   <g id="patch_83">
    <path d="M 325.815455 1342.9435 
L 343.988967 1342.9435 
L 343.988967 873.073137 
L 325.815455 873.073137 
z
" clip-path="url(#p3cde770c66)" style="fill: #008000; stroke: #ffffff; stroke-linejoin: miter"/>
   </g>
   <g id="patch_84">
    <path d="M 343.988967 1342.9435 
L 362.162479 1342.9435 
L 362.162479 1048.714673 
L 343.988967 1048.714673 
z
" clip-path="url(#p3cde770c66)" style="fill: #008000; stroke: #ffffff; stroke-linejoin: miter"/>
   </g>
   <g id="patch_85">
    <path d="M 362.162479 1342.9435 
L 380.335991 1342.9435 
L 380.335991 1168.08878 
L 362.162479 1168.08878 
z
" clip-path="url(#p3cde770c66)" style="fill: #008000; stroke: #ffffff; stroke-linejoin: miter"/>
   </g>
   <g id="patch_86">
    <path d="M 380.335991 1342.9435 
L 398.509523 1342.9435 
L 398.509523 1238.539072 
L 380.335991 1238.539072 
z
" clip-path="url(#p3cde770c66)" style="fill: #008000; stroke: #ffffff; stroke-linejoin: miter"/>
   </g>
   <g id="patch_87">
    <path d="M 398.509523 1342.9435 
L 416.683035 1342.9435 
L 416.683035 1276.810608 
L 398.509523 1276.810608 
z
" clip-path="url(#p3cde770c66)" style="fill: #008000; stroke: #ffffff; stroke-linejoin: miter"/>
   </g>
   <g id="patch_88">
    <path d="M 416.683035 1342.9435 
L 434.856547 1342.9435 
L 434.856547 1296.823979 
L 416.683035 1296.823979 
z
" clip-path="url(#p3cde770c66)" style="fill: #008000; stroke: #ffffff; stroke-linejoin: miter"/>
   </g>
   <g id="patch_89">
    <path d="M 434.856547 1342.9435 
L 453.030079 1342.9435 
L 453.030079 1315.082144 
L 434.856547 1315.082144 
z
" clip-path="url(#p3cde770c66)" style="fill: #008000; stroke: #ffffff; stroke-linejoin: miter"/>
   </g>
   <g id="patch_90">
    <path d="M 453.030079 1342.9435 
L 471.203591 1342.9435 
L 471.203591 1323.817819 
L 453.030079 1323.817819 
z
" clip-path="url(#p3cde770c66)" style="fill: #008000; stroke: #ffffff; stroke-linejoin: miter"/>
   </g>
   <g id="patch_91">
    <path d="M 471.203591 1342.9435 
L 489.377103 1342.9435 
L 489.377103 1330.475493 
L 471.203591 1330.475493 
z
" clip-path="url(#p3cde770c66)" style="fill: #008000; stroke: #ffffff; stroke-linejoin: miter"/>
   </g>
   <g id="patch_92">
    <path d="M 489.377103 1342.9435 
L 507.550635 1342.9435 
L 507.550635 1334.712194 
L 489.377103 1334.712194 
z
" clip-path="url(#p3cde770c66)" style="fill: #008000; stroke: #ffffff; stroke-linejoin: miter"/>
   </g>
   <g id="patch_93">
    <path d="M 507.550635 1342.9435 
L 525.724127 1342.9435 
L 525.724127 1336.749846 
L 507.550635 1336.749846 
z
" clip-path="url(#p3cde770c66)" style="fill: #008000; stroke: #ffffff; stroke-linejoin: miter"/>
   </g>
   <g id="patch_94">
    <path d="M 525.724127 1342.9435 
L 543.897659 1342.9435 
L 543.897659 1338.989245 
L 525.724127 1338.989245 
z
" clip-path="url(#p3cde770c66)" style="fill: #008000; stroke: #ffffff; stroke-linejoin: miter"/>
   </g>
   <g id="patch_95">
    <path d="M 543.897659 1342.9435 
L 562.07119 1342.9435 
L 562.07119 1340.179557 
L 543.897659 1340.179557 
z
" clip-path="url(#p3cde770c66)" style="fill: #008000; stroke: #ffffff; stroke-linejoin: miter"/>
   </g>
   <g id="patch_96">
    <path d="M 562.07119 1342.9435 
L 580.244682 1342.9435 
L 580.244682 1341.16812 
L 562.07119 1341.16812 
z
" clip-path="url(#p3cde770c66)" style="fill: #008000; stroke: #ffffff; stroke-linejoin: miter"/>
   </g>
   <g id="patch_97">
    <path d="M 580.244682 1342.9435 
L 598.418214 1342.9435 
L 598.418214 1341.854062 
L 580.244682 1341.854062 
z
" clip-path="url(#p3cde770c66)" style="fill: #008000; stroke: #ffffff; stroke-linejoin: miter"/>
   </g>
   <g id="patch_98">
    <path d="M 598.418214 1342.9435 
L 616.591706 1342.9435 
L 616.591706 1342.297907 
L 598.418214 1342.297907 
z
" clip-path="url(#p3cde770c66)" style="fill: #008000; stroke: #ffffff; stroke-linejoin: miter"/>
   </g>
   <g id="patch_99">
    <path d="M 616.591706 1342.9435 
L 634.765238 1342.9435 
L 634.765238 1342.499655 
L 616.591706 1342.499655 
z
" clip-path="url(#p3cde770c66)" style="fill: #008000; stroke: #ffffff; stroke-linejoin: miter"/>
   </g>
   <g id="patch_100">
    <path d="M 634.765238 1342.9435 
L 652.93877 1342.9435 
L 652.93877 1342.741752 
L 634.765238 1342.741752 
z
" clip-path="url(#p3cde770c66)" style="fill: #008000; stroke: #ffffff; stroke-linejoin: miter"/>
   </g>
   <g id="patch_101">
    <path d="M 652.93877 1342.9435 
L 671.112262 1342.9435 
L 671.112262 1342.882976 
L 652.93877 1342.882976 
z
" clip-path="url(#p3cde770c66)" style="fill: #008000; stroke: #ffffff; stroke-linejoin: miter"/>
   </g>
   <g id="patch_102">
    <path d="M 671.112262 1342.9435 
L 689.285794 1342.9435 
L 689.285794 1342.90315 
L 671.112262 1342.90315 
z
" clip-path="url(#p3cde770c66)" style="fill: #008000; stroke: #ffffff; stroke-linejoin: miter"/>
   </g>
   <g id="patch_103">
    <path d="M 116.82 1342.9435 
L 116.82 749.74175 
" style="fill: none; stroke: #ffffff; stroke-width: 1.25; stroke-linejoin: miter; stroke-linecap: square"/>
   </g>
   <g id="patch_104">
    <path d="M 716.54607 1342.9435 
L 716.54607 749.74175 
" style="fill: none; stroke: #ffffff; stroke-width: 1.25; stroke-linejoin: miter; stroke-linecap: square"/>
   </g>
   <g id="patch_105">
    <path d="M 116.82 1342.9435 
L 716.54607 1342.9435 
" style="fill: none; stroke: #ffffff; stroke-width: 1.25; stroke-linejoin: miter; stroke-linecap: square"/>
   </g>
   <g id="patch_106">
    <path d="M 116.82 749.74175 
L 716.54607 749.74175 
" style="fill: none; stroke: #ffffff; stroke-width: 1.25; stroke-linejoin: miter; stroke-linecap: square"/>
   </g>
   <g id="text_50">
    <!-- Heat capacity (QM9) -->
    <g style="fill: #262626" transform="translate(302.071707 743.74175) scale(0.25 -0.25)">
     <defs>
      <path id="ArialMT-48" d="M 513 0 
L 513 4581 
L 1119 4581 
L 1119 2700 
L 3500 2700 
L 3500 4581 
L 4106 4581 
L 4106 0 
L 3500 0 
L 3500 2159 
L 1119 2159 
L 1119 0 
L 513 0 
z
" transform="scale(0.015625)"/>
      <path id="ArialMT-63" d="M 2588 1216 
L 3141 1144 
Q 3050 572 2676 248 
Q 2303 -75 1759 -75 
Q 1078 -75 664 370 
Q 250 816 250 1647 
Q 250 2184 428 2587 
Q 606 2991 970 3192 
Q 1334 3394 1763 3394 
Q 2303 3394 2647 3120 
Q 2991 2847 3088 2344 
L 2541 2259 
Q 2463 2594 2264 2762 
Q 2066 2931 1784 2931 
Q 1359 2931 1093 2626 
Q 828 2322 828 1663 
Q 828 994 1084 691 
Q 1341 388 1753 388 
Q 2084 388 2306 591 
Q 2528 794 2588 1216 
z
" transform="scale(0.015625)"/>
      <path id="ArialMT-70" d="M 422 -1272 
L 422 3319 
L 934 3319 
L 934 2888 
Q 1116 3141 1344 3267 
Q 1572 3394 1897 3394 
Q 2322 3394 2647 3175 
Q 2972 2956 3137 2557 
Q 3303 2159 3303 1684 
Q 3303 1175 3120 767 
Q 2938 359 2589 142 
Q 2241 -75 1856 -75 
Q 1575 -75 1351 44 
Q 1128 163 984 344 
L 984 -1272 
L 422 -1272 
z
M 931 1641 
Q 931 1000 1190 694 
Q 1450 388 1819 388 
Q 2194 388 2461 705 
Q 2728 1022 2728 1688 
Q 2728 2322 2467 2637 
Q 2206 2953 1844 2953 
Q 1484 2953 1207 2617 
Q 931 2281 931 1641 
z
" transform="scale(0.015625)"/>
      <path id="ArialMT-79" d="M 397 -1278 
L 334 -750 
Q 519 -800 656 -800 
Q 844 -800 956 -737 
Q 1069 -675 1141 -563 
Q 1194 -478 1313 -144 
Q 1328 -97 1363 -6 
L 103 3319 
L 709 3319 
L 1400 1397 
Q 1534 1031 1641 628 
Q 1738 1016 1872 1384 
L 2581 3319 
L 3144 3319 
L 1881 -56 
Q 1678 -603 1566 -809 
Q 1416 -1088 1222 -1217 
Q 1028 -1347 759 -1347 
Q 597 -1347 397 -1278 
z
" transform="scale(0.015625)"/>
      <path id="ArialMT-28" d="M 1497 -1347 
Q 1031 -759 709 28 
Q 388 816 388 1659 
Q 388 2403 628 3084 
Q 909 3875 1497 4659 
L 1900 4659 
Q 1522 4009 1400 3731 
Q 1209 3300 1100 2831 
Q 966 2247 966 1656 
Q 966 153 1900 -1347 
L 1497 -1347 
z
" transform="scale(0.015625)"/>
      <path id="ArialMT-51" d="M 3966 491 
Q 4388 200 4744 66 
L 4566 -356 
Q 4072 -178 3581 206 
Q 3072 -78 2456 -78 
Q 1834 -78 1328 222 
Q 822 522 548 1065 
Q 275 1609 275 2291 
Q 275 2969 550 3525 
Q 825 4081 1333 4372 
Q 1841 4663 2469 4663 
Q 3103 4663 3612 4361 
Q 4122 4059 4389 3517 
Q 4656 2975 4656 2294 
Q 4656 1728 4484 1276 
Q 4313 825 3966 491 
z
M 2631 1266 
Q 3156 1119 3497 828 
Q 4031 1316 4031 2294 
Q 4031 2850 3842 3265 
Q 3653 3681 3289 3911 
Q 2925 4141 2472 4141 
Q 1794 4141 1347 3677 
Q 900 3213 900 2291 
Q 900 1397 1342 919 
Q 1784 441 2472 441 
Q 2797 441 3084 563 
Q 2800 747 2484 825 
L 2631 1266 
z
" transform="scale(0.015625)"/>
      <path id="ArialMT-39" d="M 350 1059 
L 891 1109 
Q 959 728 1153 556 
Q 1347 384 1650 384 
Q 1909 384 2104 503 
Q 2300 622 2425 820 
Q 2550 1019 2634 1356 
Q 2719 1694 2719 2044 
Q 2719 2081 2716 2156 
Q 2547 1888 2255 1720 
Q 1963 1553 1622 1553 
Q 1053 1553 659 1965 
Q 266 2378 266 3053 
Q 266 3750 677 4175 
Q 1088 4600 1706 4600 
Q 2153 4600 2523 4359 
Q 2894 4119 3086 3673 
Q 3278 3228 3278 2384 
Q 3278 1506 3087 986 
Q 2897 466 2520 194 
Q 2144 -78 1638 -78 
Q 1100 -78 759 220 
Q 419 519 350 1059 
z
M 2653 3081 
Q 2653 3566 2395 3850 
Q 2138 4134 1775 4134 
Q 1400 4134 1122 3828 
Q 844 3522 844 3034 
Q 844 2597 1108 2323 
Q 1372 2050 1759 2050 
Q 2150 2050 2401 2323 
Q 2653 2597 2653 3081 
z
" transform="scale(0.015625)"/>
      <path id="ArialMT-29" d="M 791 -1347 
L 388 -1347 
Q 1322 153 1322 1656 
Q 1322 2244 1188 2822 
Q 1081 3291 891 3722 
Q 769 4003 388 4659 
L 791 4659 
Q 1378 3875 1659 3084 
Q 1900 2403 1900 1659 
Q 1900 816 1576 28 
Q 1253 -759 791 -1347 
z
" transform="scale(0.015625)"/>
     </defs>
     <use xlink:href="#ArialMT-48"/>
     <use xlink:href="#ArialMT-65" x="72.216797"/>
     <use xlink:href="#ArialMT-61" x="127.832031"/>
     <use xlink:href="#ArialMT-74" x="183.447266"/>
     <use xlink:href="#ArialMT-20" x="211.230469"/>
     <use xlink:href="#ArialMT-63" x="239.013672"/>
     <use xlink:href="#ArialMT-61" x="289.013672"/>
     <use xlink:href="#ArialMT-70" x="344.628906"/>
     <use xlink:href="#ArialMT-61" x="400.244141"/>
     <use xlink:href="#ArialMT-63" x="455.859375"/>
     <use xlink:href="#ArialMT-69" x="505.859375"/>
     <use xlink:href="#ArialMT-74" x="528.076172"/>
     <use xlink:href="#ArialMT-79" x="555.859375"/>
     <use xlink:href="#ArialMT-20" x="605.859375"/>
     <use xlink:href="#ArialMT-28" x="633.642578"/>
     <use xlink:href="#ArialMT-51" x="666.943359"/>
     <use xlink:href="#ArialMT-4d" x="744.726562"/>
     <use xlink:href="#ArialMT-39" x="828.027344"/>
     <use xlink:href="#ArialMT-29" x="883.642578"/>
    </g>
   </g>
  </g>
  <g id="axes_4">
   <g id="patch_107">
    <path d="M 816.51393 1342.9435 
L 1416.24 1342.9435 
L 1416.24 749.74175 
L 816.51393 749.74175 
z
" style="fill: #eaeaf2"/>
   </g>
   <g id="matplotlib.axis_7">
    <g id="xtick_23">
     <g id="line2d_42">
      <path d="M 852.640857 1342.9435 
L 852.640857 749.74175 
" clip-path="url(#pe1fdc7c2c6)" style="fill: none; stroke: #ffffff; stroke-linecap: round"/>
     </g>
     <g id="text_51">
      <!-- −25 -->
      <g style="fill: #262626" transform="translate(835.678357 1366.759125) scale(0.2 -0.2)">
       <use xlink:href="#ArialMT-2212"/>
       <use xlink:href="#ArialMT-32" x="58.398438"/>
       <use xlink:href="#ArialMT-35" x="114.013672"/>
      </g>
     </g>
    </g>
    <g id="xtick_24">
     <g id="line2d_43">
      <path d="M 946.967074 1342.9435 
L 946.967074 749.74175 
" clip-path="url(#pe1fdc7c2c6)" style="fill: none; stroke: #ffffff; stroke-linecap: round"/>
     </g>
     <g id="text_52">
      <!-- −20 -->
      <g style="fill: #262626" transform="translate(930.004574 1366.759125) scale(0.2 -0.2)">
       <use xlink:href="#ArialMT-2212"/>
       <use xlink:href="#ArialMT-32" x="58.398438"/>
       <use xlink:href="#ArialMT-30" x="114.013672"/>
      </g>
     </g>
    </g>
    <g id="xtick_25">
     <g id="line2d_44">
      <path d="M 1041.293291 1342.9435 
L 1041.293291 749.74175 
" clip-path="url(#pe1fdc7c2c6)" style="fill: none; stroke: #ffffff; stroke-linecap: round"/>
     </g>
     <g id="text_53">
      <!-- −15 -->
      <g style="fill: #262626" transform="translate(1024.330791 1366.759125) scale(0.2 -0.2)">
       <use xlink:href="#ArialMT-2212"/>
       <use xlink:href="#ArialMT-31" x="58.398438"/>
       <use xlink:href="#ArialMT-35" x="114.013672"/>
      </g>
     </g>
    </g>
    <g id="xtick_26">
     <g id="line2d_45">
      <path d="M 1135.619508 1342.9435 
L 1135.619508 749.74175 
" clip-path="url(#pe1fdc7c2c6)" style="fill: none; stroke: #ffffff; stroke-linecap: round"/>
     </g>
     <g id="text_54">
      <!-- −10 -->
      <g style="fill: #262626" transform="translate(1118.657008 1366.759125) scale(0.2 -0.2)">
       <use xlink:href="#ArialMT-2212"/>
       <use xlink:href="#ArialMT-31" x="58.398438"/>
       <use xlink:href="#ArialMT-30" x="114.013672"/>
      </g>
     </g>
    </g>
    <g id="xtick_27">
     <g id="line2d_46">
      <path d="M 1229.945725 1342.9435 
L 1229.945725 749.74175 
" clip-path="url(#pe1fdc7c2c6)" style="fill: none; stroke: #ffffff; stroke-linecap: round"/>
     </g>
     <g id="text_55">
      <!-- −5 -->
      <g style="fill: #262626" transform="translate(1218.544163 1366.759125) scale(0.2 -0.2)">
       <use xlink:href="#ArialMT-2212"/>
       <use xlink:href="#ArialMT-35" x="58.398438"/>
      </g>
     </g>
    </g>
    <g id="xtick_28">
     <g id="line2d_47">
      <path d="M 1324.271942 1342.9435 
L 1324.271942 749.74175 
" clip-path="url(#pe1fdc7c2c6)" style="fill: none; stroke: #ffffff; stroke-linecap: round"/>
     </g>
     <g id="text_56">
      <!-- 0 -->
      <g style="fill: #262626" transform="translate(1318.711005 1366.759125) scale(0.2 -0.2)">
       <use xlink:href="#ArialMT-30"/>
      </g>
     </g>
    </g>
    <g id="text_57">
     <!-- $H_{hyd} \; [\frac{kJ}{mol}]$ -->
     <g style="fill: #262626" transform="translate(1059.251965 1402.484125) scale(0.25 -0.25)">
      <defs>
       <path id="DejaVuSans-Oblique-48" d="M 1081 4666 
L 1716 4666 
L 1344 2753 
L 3634 2753 
L 4006 4666 
L 4641 4666 
L 3731 0 
L 3097 0 
L 3531 2222 
L 1241 2222 
L 806 0 
L 172 0 
L 1081 4666 
z
" transform="scale(0.015625)"/>
       <path id="DejaVuSans-Oblique-68" d="M 3566 2113 
L 3156 0 
L 2578 0 
L 2988 2091 
Q 3016 2238 3031 2350 
Q 3047 2463 3047 2528 
Q 3047 2791 2881 2937 
Q 2716 3084 2419 3084 
Q 1956 3084 1617 2771 
Q 1278 2459 1178 1941 
L 800 0 
L 225 0 
L 1172 4863 
L 1747 4863 
L 1375 2950 
Q 1594 3244 1934 3414 
Q 2275 3584 2650 3584 
Q 3113 3584 3367 3334 
Q 3622 3084 3622 2631 
Q 3622 2519 3608 2391 
Q 3594 2263 3566 2113 
z
" transform="scale(0.015625)"/>
       <path id="DejaVuSans-Oblique-79" d="M 1588 -325 
Q 1188 -997 936 -1164 
Q 684 -1331 294 -1331 
L -159 -1331 
L -63 -850 
L 269 -850 
Q 509 -850 678 -719 
Q 847 -588 1056 -206 
L 1234 128 
L 459 3500 
L 1069 3500 
L 1650 819 
L 3256 3500 
L 3859 3500 
L 1588 -325 
z
" transform="scale(0.015625)"/>
       <path id="DejaVuSans-Oblique-64" d="M 2675 525 
Q 2444 222 2128 65 
Q 1813 -91 1428 -91 
Q 903 -91 598 267 
Q 294 625 294 1247 
Q 294 1766 478 2236 
Q 663 2706 1013 3078 
Q 1244 3325 1534 3454 
Q 1825 3584 2144 3584 
Q 2481 3584 2739 3421 
Q 2997 3259 3138 2956 
L 3513 4863 
L 4091 4863 
L 3144 0 
L 2566 0 
L 2675 525 
z
M 891 1350 
Q 891 897 1095 644 
Q 1300 391 1663 391 
Q 1931 391 2161 520 
Q 2391 650 2566 903 
Q 2750 1166 2856 1509 
Q 2963 1853 2963 2188 
Q 2963 2622 2758 2865 
Q 2553 3109 2194 3109 
Q 1922 3109 1687 2981 
Q 1453 2853 1288 2613 
Q 1106 2353 998 2009 
Q 891 1666 891 1350 
z
" transform="scale(0.015625)"/>
       <path id="DejaVuSans-Oblique-6b" d="M 1172 4863 
L 1747 4863 
L 1197 2028 
L 3169 3500 
L 3916 3500 
L 1716 1825 
L 3322 0 
L 2625 0 
L 1131 1709 
L 800 0 
L 225 0 
L 1172 4863 
z
" transform="scale(0.015625)"/>
       <path id="DejaVuSans-Oblique-4a" d="M 1069 4666 
L 1703 4666 
L 856 325 
Q 691 -522 298 -901 
Q -94 -1281 -800 -1281 
L -1050 -1281 
L -947 -750 
L -750 -750 
Q -328 -750 -109 -509 
Q 109 -269 225 325 
L 1069 4666 
z
" transform="scale(0.015625)"/>
       <path id="DejaVuSans-Oblique-6c" d="M 1172 4863 
L 1747 4863 
L 800 0 
L 225 0 
L 1172 4863 
z
" transform="scale(0.015625)"/>
      </defs>
      <use xlink:href="#DejaVuSans-Oblique-48" transform="translate(0 0.003125)"/>
      <use xlink:href="#DejaVuSans-Oblique-68" transform="translate(75.195312 -16.403125) scale(0.7)"/>
      <use xlink:href="#DejaVuSans-Oblique-79" transform="translate(119.560547 -16.403125) scale(0.7)"/>
      <use xlink:href="#DejaVuSans-Oblique-64" transform="translate(160.986328 -16.403125) scale(0.7)"/>
      <use xlink:href="#DejaVuSans-5b" transform="translate(235.213433 0.003125)"/>
      <use xlink:href="#DejaVuSans-Oblique-6b" transform="translate(309.227104 57.810938) scale(0.7)"/>
      <use xlink:href="#DejaVuSans-Oblique-4a" transform="translate(349.764214 57.810938) scale(0.7)"/>
      <use xlink:href="#DejaVuSans-Oblique-6d" transform="translate(274.227104 -40.639062) scale(0.7)"/>
      <use xlink:href="#DejaVuSans-Oblique-6f" transform="translate(342.415581 -40.639062) scale(0.7)"/>
      <use xlink:href="#DejaVuSans-Oblique-6c" transform="translate(385.242729 -40.639062) scale(0.7)"/>
      <use xlink:href="#DejaVuSans-5d" transform="translate(417.190972 0.003125)"/>
      <path d="M 274.227104 18.8 
L 274.227104 25.05 
L 404.690972 25.05 
L 404.690972 18.8 
L 274.227104 18.8 
z
"/>
     </g>
    </g>
   </g>
   <g id="matplotlib.axis_8">
    <g id="ytick_20">
     <g id="line2d_48">
      <path d="M 816.51393 1342.9435 
L 1416.24 1342.9435 
" clip-path="url(#pe1fdc7c2c6)" style="fill: none; stroke: #ffffff; stroke-linecap: round"/>
     </g>
     <g id="text_58">
      <!-- 0 -->
      <g style="fill: #262626" transform="translate(795.892055 1350.101312) scale(0.2 -0.2)">
       <use xlink:href="#ArialMT-30"/>
      </g>
     </g>
    </g>
    <g id="ytick_21">
     <g id="line2d_49">
      <path d="M 816.51393 1272.324244 
L 1416.24 1272.324244 
" clip-path="url(#pe1fdc7c2c6)" style="fill: none; stroke: #ffffff; stroke-linecap: round"/>
     </g>
     <g id="text_59">
      <!-- 10 -->
      <g style="fill: #262626" transform="translate(784.77018 1279.482057) scale(0.2 -0.2)">
       <use xlink:href="#ArialMT-31"/>
       <use xlink:href="#ArialMT-30" x="55.615234"/>
      </g>
     </g>
    </g>
    <g id="ytick_22">
     <g id="line2d_50">
      <path d="M 816.51393 1201.704988 
L 1416.24 1201.704988 
" clip-path="url(#pe1fdc7c2c6)" style="fill: none; stroke: #ffffff; stroke-linecap: round"/>
     </g>
     <g id="text_60">
      <!-- 20 -->
      <g style="fill: #262626" transform="translate(784.77018 1208.862801) scale(0.2 -0.2)">
       <use xlink:href="#ArialMT-32"/>
       <use xlink:href="#ArialMT-30" x="55.615234"/>
      </g>
     </g>
    </g>
    <g id="ytick_23">
     <g id="line2d_51">
      <path d="M 816.51393 1131.085732 
L 1416.24 1131.085732 
" clip-path="url(#pe1fdc7c2c6)" style="fill: none; stroke: #ffffff; stroke-linecap: round"/>
     </g>
     <g id="text_61">
      <!-- 30 -->
      <g style="fill: #262626" transform="translate(784.77018 1138.243545) scale(0.2 -0.2)">
       <use xlink:href="#ArialMT-33"/>
       <use xlink:href="#ArialMT-30" x="55.615234"/>
      </g>
     </g>
    </g>
    <g id="ytick_24">
     <g id="line2d_52">
      <path d="M 816.51393 1060.466476 
L 1416.24 1060.466476 
" clip-path="url(#pe1fdc7c2c6)" style="fill: none; stroke: #ffffff; stroke-linecap: round"/>
     </g>
     <g id="text_62">
      <!-- 40 -->
      <g style="fill: #262626" transform="translate(784.77018 1067.624289) scale(0.2 -0.2)">
       <use xlink:href="#ArialMT-34"/>
       <use xlink:href="#ArialMT-30" x="55.615234"/>
      </g>
     </g>
    </g>
    <g id="ytick_25">
     <g id="line2d_53">
      <path d="M 816.51393 989.84722 
L 1416.24 989.84722 
" clip-path="url(#pe1fdc7c2c6)" style="fill: none; stroke: #ffffff; stroke-linecap: round"/>
     </g>
     <g id="text_63">
      <!-- 50 -->
      <g style="fill: #262626" transform="translate(784.77018 997.005033) scale(0.2 -0.2)">
       <use xlink:href="#ArialMT-35"/>
       <use xlink:href="#ArialMT-30" x="55.615234"/>
      </g>
     </g>
    </g>
    <g id="ytick_26">
     <g id="line2d_54">
      <path d="M 816.51393 919.227964 
L 1416.24 919.227964 
" clip-path="url(#pe1fdc7c2c6)" style="fill: none; stroke: #ffffff; stroke-linecap: round"/>
     </g>
     <g id="text_64">
      <!-- 60 -->
      <g style="fill: #262626" transform="translate(784.77018 926.385777) scale(0.2 -0.2)">
       <use xlink:href="#ArialMT-36"/>
       <use xlink:href="#ArialMT-30" x="55.615234"/>
      </g>
     </g>
    </g>
    <g id="ytick_27">
     <g id="line2d_55">
      <path d="M 816.51393 848.608708 
L 1416.24 848.608708 
" clip-path="url(#pe1fdc7c2c6)" style="fill: none; stroke: #ffffff; stroke-linecap: round"/>
     </g>
     <g id="text_65">
      <!-- 70 -->
      <g style="fill: #262626" transform="translate(784.77018 855.766521) scale(0.2 -0.2)">
       <use xlink:href="#ArialMT-37"/>
       <use xlink:href="#ArialMT-30" x="55.615234"/>
      </g>
     </g>
    </g>
    <g id="ytick_28">
     <g id="line2d_56">
      <path d="M 816.51393 777.989452 
L 1416.24 777.989452 
" clip-path="url(#pe1fdc7c2c6)" style="fill: none; stroke: #ffffff; stroke-linecap: round"/>
     </g>
     <g id="text_66">
      <!-- 80 -->
      <g style="fill: #262626" transform="translate(784.77018 785.147265) scale(0.2 -0.2)">
       <use xlink:href="#ArialMT-38"/>
       <use xlink:href="#ArialMT-30" x="55.615234"/>
      </g>
     </g>
    </g>
    <g id="text_67">
     <!-- Count -->
     <g style="fill: #262626" transform="translate(775.80143 1079.696141) rotate(-90) scale(0.25 -0.25)">
      <use xlink:href="#ArialMT-43"/>
      <use xlink:href="#ArialMT-6f" x="72.216797"/>
      <use xlink:href="#ArialMT-75" x="127.832031"/>
      <use xlink:href="#ArialMT-6e" x="183.447266"/>
      <use xlink:href="#ArialMT-74" x="239.0625"/>
     </g>
    </g>
   </g>
   <g id="patch_108">
    <path d="M 843.774206 1342.9435 
L 861.94772 1342.9435 
L 861.94772 1335.881574 
L 843.774206 1335.881574 
z
" clip-path="url(#pe1fdc7c2c6)" style="fill: #ffa500; stroke: #ffffff; stroke-linejoin: miter"/>
   </g>
   <g id="patch_109">
    <path d="M 861.94772 1342.9435 
L 880.121234 1342.9435 
L 880.121234 1335.881574 
L 861.94772 1335.881574 
z
" clip-path="url(#pe1fdc7c2c6)" style="fill: #ffa500; stroke: #ffffff; stroke-linejoin: miter"/>
   </g>
   <g id="patch_110">
    <path d="M 880.121234 1342.9435 
L 898.294748 1342.9435 
L 898.294748 1342.9435 
L 880.121234 1342.9435 
z
" clip-path="url(#pe1fdc7c2c6)" style="fill: #ffa500; stroke: #ffffff; stroke-linejoin: miter"/>
   </g>
   <g id="patch_111">
    <path d="M 898.294748 1342.9435 
L 916.468262 1342.9435 
L 916.468262 1342.9435 
L 898.294748 1342.9435 
z
" clip-path="url(#pe1fdc7c2c6)" style="fill: #ffa500; stroke: #ffffff; stroke-linejoin: miter"/>
   </g>
   <g id="patch_112">
    <path d="M 916.468262 1342.9435 
L 934.641776 1342.9435 
L 934.641776 1342.9435 
L 916.468262 1342.9435 
z
" clip-path="url(#pe1fdc7c2c6)" style="fill: #ffa500; stroke: #ffffff; stroke-linejoin: miter"/>
   </g>
   <g id="patch_113">
    <path d="M 934.641776 1342.9435 
L 952.815326 1342.9435 
L 952.815326 1335.881574 
L 934.641776 1335.881574 
z
" clip-path="url(#pe1fdc7c2c6)" style="fill: #ffa500; stroke: #ffffff; stroke-linejoin: miter"/>
   </g>
   <g id="patch_114">
    <path d="M 952.815326 1342.9435 
L 970.98884 1342.9435 
L 970.98884 1342.9435 
L 952.815326 1342.9435 
z
" clip-path="url(#pe1fdc7c2c6)" style="fill: #ffa500; stroke: #ffffff; stroke-linejoin: miter"/>
   </g>
   <g id="patch_115">
    <path d="M 970.98884 1342.9435 
L 989.162354 1342.9435 
L 989.162354 1321.757723 
L 970.98884 1321.757723 
z
" clip-path="url(#pe1fdc7c2c6)" style="fill: #ffa500; stroke: #ffffff; stroke-linejoin: miter"/>
   </g>
   <g id="patch_116">
    <path d="M 989.162354 1342.9435 
L 1007.335868 1342.9435 
L 1007.335868 1328.819649 
L 989.162354 1328.819649 
z
" clip-path="url(#pe1fdc7c2c6)" style="fill: #ffa500; stroke: #ffffff; stroke-linejoin: miter"/>
   </g>
   <g id="patch_117">
    <path d="M 1007.335868 1342.9435 
L 1025.509382 1342.9435 
L 1025.509382 1335.881574 
L 1007.335868 1335.881574 
z
" clip-path="url(#pe1fdc7c2c6)" style="fill: #ffa500; stroke: #ffffff; stroke-linejoin: miter"/>
   </g>
   <g id="patch_118">
    <path d="M 1025.509382 1342.9435 
L 1043.682896 1342.9435 
L 1043.682896 1328.819649 
L 1025.509382 1328.819649 
z
" clip-path="url(#pe1fdc7c2c6)" style="fill: #ffa500; stroke: #ffffff; stroke-linejoin: miter"/>
   </g>
   <g id="patch_119">
    <path d="M 1043.682896 1342.9435 
L 1061.85641 1342.9435 
L 1061.85641 1335.881574 
L 1043.682896 1335.881574 
z
" clip-path="url(#pe1fdc7c2c6)" style="fill: #ffa500; stroke: #ffffff; stroke-linejoin: miter"/>
   </g>
   <g id="patch_120">
    <path d="M 1061.85641 1342.9435 
L 1080.029924 1342.9435 
L 1080.029924 1335.881574 
L 1061.85641 1335.881574 
z
" clip-path="url(#pe1fdc7c2c6)" style="fill: #ffa500; stroke: #ffffff; stroke-linejoin: miter"/>
   </g>
   <g id="patch_121">
    <path d="M 1080.029924 1342.9435 
L 1098.203456 1342.9435 
L 1098.203456 1328.819649 
L 1080.029924 1328.819649 
z
" clip-path="url(#pe1fdc7c2c6)" style="fill: #ffa500; stroke: #ffffff; stroke-linejoin: miter"/>
   </g>
   <g id="patch_122">
    <path d="M 1098.203456 1342.9435 
L 1116.37697 1342.9435 
L 1116.37697 1314.695798 
L 1098.203456 1314.695798 
z
" clip-path="url(#pe1fdc7c2c6)" style="fill: #ffa500; stroke: #ffffff; stroke-linejoin: miter"/>
   </g>
   <g id="patch_123">
    <path d="M 1116.37697 1342.9435 
L 1134.550484 1342.9435 
L 1134.550484 1279.38617 
L 1116.37697 1279.38617 
z
" clip-path="url(#pe1fdc7c2c6)" style="fill: #ffa500; stroke: #ffffff; stroke-linejoin: miter"/>
   </g>
   <g id="patch_124">
    <path d="M 1134.550484 1342.9435 
L 1152.723997 1342.9435 
L 1152.723997 1124.023807 
L 1134.550484 1124.023807 
z
" clip-path="url(#pe1fdc7c2c6)" style="fill: #ffa500; stroke: #ffffff; stroke-linejoin: miter"/>
   </g>
   <g id="patch_125">
    <path d="M 1152.723997 1342.9435 
L 1170.897511 1342.9435 
L 1170.897511 1244.076542 
L 1152.723997 1244.076542 
z
" clip-path="url(#pe1fdc7c2c6)" style="fill: #ffa500; stroke: #ffffff; stroke-linejoin: miter"/>
   </g>
   <g id="patch_126">
    <path d="M 1170.897511 1342.9435 
L 1189.071034 1342.9435 
L 1189.071034 1180.519211 
L 1170.897511 1180.519211 
z
" clip-path="url(#pe1fdc7c2c6)" style="fill: #ffa500; stroke: #ffffff; stroke-linejoin: miter"/>
   </g>
   <g id="patch_127">
    <path d="M 1189.071034 1342.9435 
L 1207.244548 1342.9435 
L 1207.244548 1074.590327 
L 1189.071034 1074.590327 
z
" clip-path="url(#pe1fdc7c2c6)" style="fill: #ffa500; stroke: #ffffff; stroke-linejoin: miter"/>
   </g>
   <g id="patch_128">
    <path d="M 1207.244548 1342.9435 
L 1225.418071 1342.9435 
L 1225.418071 1011.032997 
L 1207.244548 1011.032997 
z
" clip-path="url(#pe1fdc7c2c6)" style="fill: #ffa500; stroke: #ffffff; stroke-linejoin: miter"/>
   </g>
   <g id="patch_129">
    <path d="M 1225.418071 1342.9435 
L 1243.591585 1342.9435 
L 1243.591585 777.989452 
L 1225.418071 777.989452 
z
" clip-path="url(#pe1fdc7c2c6)" style="fill: #ffa500; stroke: #ffffff; stroke-linejoin: miter"/>
   </g>
   <g id="patch_130">
    <path d="M 1243.591585 1342.9435 
L 1261.765104 1342.9435 
L 1261.765104 820.361006 
L 1243.591585 820.361006 
z
" clip-path="url(#pe1fdc7c2c6)" style="fill: #ffa500; stroke: #ffffff; stroke-linejoin: miter"/>
   </g>
   <g id="patch_131">
    <path d="M 1261.765104 1342.9435 
L 1279.938622 1342.9435 
L 1279.938622 785.051378 
L 1261.765104 785.051378 
z
" clip-path="url(#pe1fdc7c2c6)" style="fill: #ffa500; stroke: #ffffff; stroke-linejoin: miter"/>
   </g>
   <g id="patch_132">
    <path d="M 1279.938622 1342.9435 
L 1298.112138 1342.9435 
L 1298.112138 968.661443 
L 1279.938622 968.661443 
z
" clip-path="url(#pe1fdc7c2c6)" style="fill: #ffa500; stroke: #ffffff; stroke-linejoin: miter"/>
   </g>
   <g id="patch_133">
    <path d="M 1298.112138 1342.9435 
L 1316.285655 1342.9435 
L 1316.285655 869.794485 
L 1298.112138 869.794485 
z
" clip-path="url(#pe1fdc7c2c6)" style="fill: #ffa500; stroke: #ffffff; stroke-linejoin: miter"/>
   </g>
   <g id="patch_134">
    <path d="M 1316.285655 1342.9435 
L 1334.459172 1342.9435 
L 1334.459172 1074.590327 
L 1316.285655 1074.590327 
z
" clip-path="url(#pe1fdc7c2c6)" style="fill: #ffa500; stroke: #ffffff; stroke-linejoin: miter"/>
   </g>
   <g id="patch_135">
    <path d="M 1334.459172 1342.9435 
L 1352.632689 1342.9435 
L 1352.632689 1187.581137 
L 1334.459172 1187.581137 
z
" clip-path="url(#pe1fdc7c2c6)" style="fill: #ffa500; stroke: #ffffff; stroke-linejoin: miter"/>
   </g>
   <g id="patch_136">
    <path d="M 1352.632689 1342.9435 
L 1370.806206 1342.9435 
L 1370.806206 1194.643063 
L 1352.632689 1194.643063 
z
" clip-path="url(#pe1fdc7c2c6)" style="fill: #ffa500; stroke: #ffffff; stroke-linejoin: miter"/>
   </g>
   <g id="patch_137">
    <path d="M 1370.806206 1342.9435 
L 1388.979724 1342.9435 
L 1388.979724 1180.519211 
L 1370.806206 1180.519211 
z
" clip-path="url(#pe1fdc7c2c6)" style="fill: #ffa500; stroke: #ffffff; stroke-linejoin: miter"/>
   </g>
   <g id="patch_138">
    <path d="M 816.51393 1342.9435 
L 816.51393 749.74175 
" style="fill: none; stroke: #ffffff; stroke-width: 1.25; stroke-linejoin: miter; stroke-linecap: square"/>
   </g>
   <g id="patch_139">
    <path d="M 1416.24 1342.9435 
L 1416.24 749.74175 
" style="fill: none; stroke: #ffffff; stroke-width: 1.25; stroke-linejoin: miter; stroke-linecap: square"/>
   </g>
   <g id="patch_140">
    <path d="M 816.51393 1342.9435 
L 1416.24 1342.9435 
" style="fill: none; stroke: #ffffff; stroke-width: 1.25; stroke-linejoin: miter; stroke-linecap: square"/>
   </g>
   <g id="patch_141">
    <path d="M 816.51393 749.74175 
L 1416.24 749.74175 
" style="fill: none; stroke: #ffffff; stroke-width: 1.25; stroke-linejoin: miter; stroke-linecap: square"/>
   </g>
   <g id="text_68">
    <!-- Hydration enthalpy (FreeSolv) -->
    <g style="fill: #262626" transform="translate(950.341809 743.74175) scale(0.25 -0.25)">
     <defs>
      <path id="ArialMT-64" d="M 2575 0 
L 2575 419 
Q 2259 -75 1647 -75 
Q 1250 -75 917 144 
Q 584 363 401 755 
Q 219 1147 219 1656 
Q 219 2153 384 2558 
Q 550 2963 881 3178 
Q 1213 3394 1622 3394 
Q 1922 3394 2156 3267 
Q 2391 3141 2538 2938 
L 2538 4581 
L 3097 4581 
L 3097 0 
L 2575 0 
z
M 797 1656 
Q 797 1019 1065 703 
Q 1334 388 1700 388 
Q 2069 388 2326 689 
Q 2584 991 2584 1609 
Q 2584 2291 2321 2609 
Q 2059 2928 1675 2928 
Q 1300 2928 1048 2622 
Q 797 2316 797 1656 
z
" transform="scale(0.015625)"/>
      <path id="ArialMT-68" d="M 422 0 
L 422 4581 
L 984 4581 
L 984 2938 
Q 1378 3394 1978 3394 
Q 2347 3394 2619 3248 
Q 2891 3103 3008 2847 
Q 3125 2591 3125 2103 
L 3125 0 
L 2563 0 
L 2563 2103 
Q 2563 2525 2380 2717 
Q 2197 2909 1863 2909 
Q 1613 2909 1392 2779 
Q 1172 2650 1078 2428 
Q 984 2206 984 1816 
L 984 0 
L 422 0 
z
" transform="scale(0.015625)"/>
      <path id="ArialMT-46" d="M 525 0 
L 525 4581 
L 3616 4581 
L 3616 4041 
L 1131 4041 
L 1131 2622 
L 3281 2622 
L 3281 2081 
L 1131 2081 
L 1131 0 
L 525 0 
z
" transform="scale(0.015625)"/>
      <path id="ArialMT-53" d="M 288 1472 
L 859 1522 
Q 900 1178 1048 958 
Q 1197 738 1509 602 
Q 1822 466 2213 466 
Q 2559 466 2825 569 
Q 3091 672 3220 851 
Q 3350 1031 3350 1244 
Q 3350 1459 3225 1620 
Q 3100 1781 2813 1891 
Q 2628 1963 1997 2114 
Q 1366 2266 1113 2400 
Q 784 2572 623 2826 
Q 463 3081 463 3397 
Q 463 3744 659 4045 
Q 856 4347 1234 4503 
Q 1613 4659 2075 4659 
Q 2584 4659 2973 4495 
Q 3363 4331 3572 4012 
Q 3781 3694 3797 3291 
L 3216 3247 
Q 3169 3681 2898 3903 
Q 2628 4125 2100 4125 
Q 1550 4125 1298 3923 
Q 1047 3722 1047 3438 
Q 1047 3191 1225 3031 
Q 1400 2872 2139 2705 
Q 2878 2538 3153 2413 
Q 3553 2228 3743 1945 
Q 3934 1663 3934 1294 
Q 3934 928 3725 604 
Q 3516 281 3123 101 
Q 2731 -78 2241 -78 
Q 1619 -78 1198 103 
Q 778 284 539 648 
Q 300 1013 288 1472 
z
" transform="scale(0.015625)"/>
      <path id="ArialMT-76" d="M 1344 0 
L 81 3319 
L 675 3319 
L 1388 1331 
Q 1503 1009 1600 663 
Q 1675 925 1809 1294 
L 2547 3319 
L 3125 3319 
L 1869 0 
L 1344 0 
z
" transform="scale(0.015625)"/>
     </defs>
     <use xlink:href="#ArialMT-48"/>
     <use xlink:href="#ArialMT-79" x="72.216797"/>
     <use xlink:href="#ArialMT-64" x="122.216797"/>
     <use xlink:href="#ArialMT-72" x="177.832031"/>
     <use xlink:href="#ArialMT-61" x="211.132812"/>
     <use xlink:href="#ArialMT-74" x="266.748047"/>
     <use xlink:href="#ArialMT-69" x="294.53125"/>
     <use xlink:href="#ArialMT-6f" x="316.748047"/>
     <use xlink:href="#ArialMT-6e" x="372.363281"/>
     <use xlink:href="#ArialMT-20" x="427.978516"/>
     <use xlink:href="#ArialMT-65" x="455.761719"/>
     <use xlink:href="#ArialMT-6e" x="511.376953"/>
     <use xlink:href="#ArialMT-74" x="566.992188"/>
     <use xlink:href="#ArialMT-68" x="594.775391"/>
     <use xlink:href="#ArialMT-61" x="650.390625"/>
     <use xlink:href="#ArialMT-6c" x="706.005859"/>
     <use xlink:href="#ArialMT-70" x="728.222656"/>
     <use xlink:href="#ArialMT-79" x="783.837891"/>
     <use xlink:href="#ArialMT-20" x="833.837891"/>
     <use xlink:href="#ArialMT-28" x="861.621094"/>
     <use xlink:href="#ArialMT-46" x="894.921875"/>
     <use xlink:href="#ArialMT-72" x="956.005859"/>
     <use xlink:href="#ArialMT-65" x="989.306641"/>
     <use xlink:href="#ArialMT-65" x="1044.921875"/>
     <use xlink:href="#ArialMT-53" x="1100.537109"/>
     <use xlink:href="#ArialMT-6f" x="1167.236328"/>
     <use xlink:href="#ArialMT-6c" x="1222.851562"/>
     <use xlink:href="#ArialMT-76" x="1245.068359"/>
     <use xlink:href="#ArialMT-29" x="1295.068359"/>
    </g>
   </g>
  </g>
 </g>
 <defs>
  <clipPath id="pcc2d03c519">
   <rect x="116.82" y="48.48" width="599.72607" height="593.20175"/>
  </clipPath>
  <clipPath id="p19db1c39a2">
   <rect x="816.51393" y="48.48" width="599.72607" height="593.20175"/>
  </clipPath>
  <clipPath id="p3cde770c66">
   <rect x="116.82" y="749.74175" width="599.72607" height="593.20175"/>
  </clipPath>
  <clipPath id="pe1fdc7c2c6">
   <rect x="816.51393" y="749.74175" width="599.72607" height="593.20175"/>
  </clipPath>
 </defs>
</svg>
